M48
; DRILL file {KiCad (6.0.7-1)-1} date Sunday, January 15, 2023 at 06:13:03 pm
; FORMAT={-:-/ absolute / inch / decimal}
; #@! TF.CreationDate,2023-01-15T18:13:03-08:00
; #@! TF.GenerationSoftware,Kicad,Pcbnew,(6.0.7-1)-1
; #@! TF.FileFunction,Plated,1,2,PTH
FMAT,2
INCH
; #@! TA.AperFunction,Plated,PTH,ViaDrill
T1C0.0157
; #@! TA.AperFunction,Plated,PTH,ComponentDrill
T2C0.0315
; #@! TA.AperFunction,Plated,PTH,ComponentDrill
T3C0.0410
%
G90
G05
T1
X4.3307Y-2.7559
X4.5472Y-2.7559
T2
X3.2191Y-2.5368
X3.2191Y-3.1368
X3.3191Y-2.5368
X3.3191Y-3.1368
X3.4191Y-2.5368
X3.4191Y-3.1368
X3.5191Y-2.5368
X3.5191Y-3.1368
X3.6191Y-2.5368
X3.6191Y-3.1368
X3.7191Y-2.5368
X3.7191Y-3.1368
X3.8191Y-2.5368
X3.8191Y-3.1368
X3.9191Y-2.5368
X3.9191Y-3.1368
X4.0191Y-2.5368
X4.0191Y-3.1368
X4.0274Y-2.6368
X4.0274Y-2.7368
X4.0274Y-2.8368
X4.0274Y-2.9368
X4.0274Y-3.0368
T3
X3.559Y-3.3476
X3.613Y-3.4596
X3.667Y-3.3476
X3.721Y-3.4596
X3.775Y-3.3476
X3.829Y-3.4596
X3.883Y-3.3476
X3.937Y-3.4596
X3.991Y-3.3476
X4.045Y-3.4596
X4.099Y-3.3476
X4.153Y-3.4596
X4.207Y-3.3476
X4.261Y-3.4596
X4.315Y-3.3476
T0
M30
