%TF.GenerationSoftware,KiCad,Pcbnew,(6.0.7-1)-1*%
%TF.CreationDate,2023-02-22T21:50:02-08:00*%
%TF.ProjectId,NeoGeoDB15Wireless,4e656f47-656f-4444-9231-35576972656c,2*%
%TF.SameCoordinates,Original*%
%TF.FileFunction,Legend,Top*%
%TF.FilePolarity,Positive*%
%FSLAX46Y46*%
G04 Gerber Fmt 4.6, Leading zero omitted, Abs format (unit mm)*
G04 Created by KiCad (PCBNEW (6.0.7-1)-1) date 2023-02-22 21:50:02*
%MOMM*%
%LPD*%
G01*
G04 APERTURE LIST*
%ADD10C,0.150000*%
%ADD11C,0.120000*%
G04 APERTURE END LIST*
D10*
X105642857Y-64152380D02*
X105642857Y-63152380D01*
X106214285Y-64152380D01*
X106214285Y-63152380D01*
X107071428Y-64104761D02*
X106976190Y-64152380D01*
X106785714Y-64152380D01*
X106690476Y-64104761D01*
X106642857Y-64009523D01*
X106642857Y-63628571D01*
X106690476Y-63533333D01*
X106785714Y-63485714D01*
X106976190Y-63485714D01*
X107071428Y-63533333D01*
X107119047Y-63628571D01*
X107119047Y-63723809D01*
X106642857Y-63819047D01*
X107690476Y-64152380D02*
X107595238Y-64104761D01*
X107547619Y-64057142D01*
X107500000Y-63961904D01*
X107500000Y-63676190D01*
X107547619Y-63580952D01*
X107595238Y-63533333D01*
X107690476Y-63485714D01*
X107833333Y-63485714D01*
X107928571Y-63533333D01*
X107976190Y-63580952D01*
X108023809Y-63676190D01*
X108023809Y-63961904D01*
X107976190Y-64057142D01*
X107928571Y-64104761D01*
X107833333Y-64152380D01*
X107690476Y-64152380D01*
X109738095Y-63200000D02*
X109642857Y-63152380D01*
X109500000Y-63152380D01*
X109357142Y-63200000D01*
X109261904Y-63295238D01*
X109214285Y-63390476D01*
X109166666Y-63580952D01*
X109166666Y-63723809D01*
X109214285Y-63914285D01*
X109261904Y-64009523D01*
X109357142Y-64104761D01*
X109500000Y-64152380D01*
X109595238Y-64152380D01*
X109738095Y-64104761D01*
X109785714Y-64057142D01*
X109785714Y-63723809D01*
X109595238Y-63723809D01*
X110595238Y-64104761D02*
X110500000Y-64152380D01*
X110309523Y-64152380D01*
X110214285Y-64104761D01*
X110166666Y-64009523D01*
X110166666Y-63628571D01*
X110214285Y-63533333D01*
X110309523Y-63485714D01*
X110500000Y-63485714D01*
X110595238Y-63533333D01*
X110642857Y-63628571D01*
X110642857Y-63723809D01*
X110166666Y-63819047D01*
X111214285Y-64152380D02*
X111119047Y-64104761D01*
X111071428Y-64057142D01*
X111023809Y-63961904D01*
X111023809Y-63676190D01*
X111071428Y-63580952D01*
X111119047Y-63533333D01*
X111214285Y-63485714D01*
X111357142Y-63485714D01*
X111452380Y-63533333D01*
X111500000Y-63580952D01*
X111547619Y-63676190D01*
X111547619Y-63961904D01*
X111500000Y-64057142D01*
X111452380Y-64104761D01*
X111357142Y-64152380D01*
X111214285Y-64152380D01*
X112642857Y-63152380D02*
X112880952Y-64152380D01*
X113071428Y-63438095D01*
X113261904Y-64152380D01*
X113500000Y-63152380D01*
X113880952Y-64152380D02*
X113880952Y-63485714D01*
X113880952Y-63152380D02*
X113833333Y-63200000D01*
X113880952Y-63247619D01*
X113928571Y-63200000D01*
X113880952Y-63152380D01*
X113880952Y-63247619D01*
X114357142Y-64152380D02*
X114357142Y-63485714D01*
X114357142Y-63676190D02*
X114404761Y-63580952D01*
X114452380Y-63533333D01*
X114547619Y-63485714D01*
X114642857Y-63485714D01*
X115357142Y-64104761D02*
X115261904Y-64152380D01*
X115071428Y-64152380D01*
X114976190Y-64104761D01*
X114928571Y-64009523D01*
X114928571Y-63628571D01*
X114976190Y-63533333D01*
X115071428Y-63485714D01*
X115261904Y-63485714D01*
X115357142Y-63533333D01*
X115404761Y-63628571D01*
X115404761Y-63723809D01*
X114928571Y-63819047D01*
X115976190Y-64152380D02*
X115880952Y-64104761D01*
X115833333Y-64009523D01*
X115833333Y-63152380D01*
X116738095Y-64104761D02*
X116642857Y-64152380D01*
X116452380Y-64152380D01*
X116357142Y-64104761D01*
X116309523Y-64009523D01*
X116309523Y-63628571D01*
X116357142Y-63533333D01*
X116452380Y-63485714D01*
X116642857Y-63485714D01*
X116738095Y-63533333D01*
X116785714Y-63628571D01*
X116785714Y-63723809D01*
X116309523Y-63819047D01*
X117166666Y-64104761D02*
X117261904Y-64152380D01*
X117452380Y-64152380D01*
X117547619Y-64104761D01*
X117595238Y-64009523D01*
X117595238Y-63961904D01*
X117547619Y-63866666D01*
X117452380Y-63819047D01*
X117309523Y-63819047D01*
X117214285Y-63771428D01*
X117166666Y-63676190D01*
X117166666Y-63628571D01*
X117214285Y-63533333D01*
X117309523Y-63485714D01*
X117452380Y-63485714D01*
X117547619Y-63533333D01*
X117976190Y-64104761D02*
X118071428Y-64152380D01*
X118261904Y-64152380D01*
X118357142Y-64104761D01*
X118404761Y-64009523D01*
X118404761Y-63961904D01*
X118357142Y-63866666D01*
X118261904Y-63819047D01*
X118119047Y-63819047D01*
X118023809Y-63771428D01*
X117976190Y-63676190D01*
X117976190Y-63628571D01*
X118023809Y-63533333D01*
X118119047Y-63485714D01*
X118261904Y-63485714D01*
X118357142Y-63533333D01*
X107595238Y-77166190D02*
X107547619Y-77118571D01*
X107452380Y-77070952D01*
X107357142Y-77070952D01*
X107261904Y-77118571D01*
X107214285Y-77166190D01*
X107166666Y-77261428D01*
X107166666Y-77356666D01*
X107214285Y-77451904D01*
X107261904Y-77499523D01*
X107357142Y-77547142D01*
X107452380Y-77547142D01*
X107547619Y-77499523D01*
X107595238Y-77451904D01*
X107595238Y-77070952D02*
X107595238Y-77451904D01*
X107642857Y-77499523D01*
X107690476Y-77499523D01*
X107785714Y-77451904D01*
X107833333Y-77356666D01*
X107833333Y-77118571D01*
X107738095Y-76975714D01*
X107595238Y-76880476D01*
X107404761Y-76832857D01*
X107214285Y-76880476D01*
X107071428Y-76975714D01*
X106976190Y-77118571D01*
X106928571Y-77309047D01*
X106976190Y-77499523D01*
X107071428Y-77642380D01*
X107214285Y-77737619D01*
X107404761Y-77785238D01*
X107595238Y-77737619D01*
X107738095Y-77642380D01*
X108261904Y-76975714D02*
X108261904Y-77975714D01*
X108261904Y-77023333D02*
X108357142Y-76975714D01*
X108547619Y-76975714D01*
X108642857Y-77023333D01*
X108690476Y-77070952D01*
X108738095Y-77166190D01*
X108738095Y-77451904D01*
X108690476Y-77547142D01*
X108642857Y-77594761D01*
X108547619Y-77642380D01*
X108357142Y-77642380D01*
X108261904Y-77594761D01*
X109595238Y-77642380D02*
X109595238Y-77118571D01*
X109547619Y-77023333D01*
X109452380Y-76975714D01*
X109261904Y-76975714D01*
X109166666Y-77023333D01*
X109595238Y-77594761D02*
X109500000Y-77642380D01*
X109261904Y-77642380D01*
X109166666Y-77594761D01*
X109119047Y-77499523D01*
X109119047Y-77404285D01*
X109166666Y-77309047D01*
X109261904Y-77261428D01*
X109500000Y-77261428D01*
X109595238Y-77213809D01*
X110071428Y-77642380D02*
X110071428Y-76975714D01*
X110071428Y-77166190D02*
X110119047Y-77070952D01*
X110166666Y-77023333D01*
X110261904Y-76975714D01*
X110357142Y-76975714D01*
X110547619Y-76975714D02*
X110928571Y-76975714D01*
X110690476Y-76642380D02*
X110690476Y-77499523D01*
X110738095Y-77594761D01*
X110833333Y-77642380D01*
X110928571Y-77642380D01*
X111404761Y-77642380D02*
X111309523Y-77594761D01*
X111261904Y-77499523D01*
X111261904Y-76642380D01*
X111690476Y-76975714D02*
X111928571Y-77642380D01*
X112166666Y-76975714D02*
X111928571Y-77642380D01*
X111833333Y-77880476D01*
X111785714Y-77928095D01*
X111690476Y-77975714D01*
X112547619Y-77642380D02*
X112547619Y-76642380D01*
X112976190Y-77642380D02*
X112976190Y-77118571D01*
X112928571Y-77023333D01*
X112833333Y-76975714D01*
X112690476Y-76975714D01*
X112595238Y-77023333D01*
X112547619Y-77070952D01*
X113880952Y-76975714D02*
X113880952Y-77642380D01*
X113452380Y-76975714D02*
X113452380Y-77499523D01*
X113500000Y-77594761D01*
X113595238Y-77642380D01*
X113738095Y-77642380D01*
X113833333Y-77594761D01*
X113880952Y-77547142D01*
X114357142Y-77642380D02*
X114357142Y-76975714D01*
X114357142Y-77070952D02*
X114404761Y-77023333D01*
X114500000Y-76975714D01*
X114642857Y-76975714D01*
X114738095Y-77023333D01*
X114785714Y-77118571D01*
X114785714Y-77642380D01*
X114785714Y-77118571D02*
X114833333Y-77023333D01*
X114928571Y-76975714D01*
X115071428Y-76975714D01*
X115166666Y-77023333D01*
X115214285Y-77118571D01*
X115214285Y-77642380D01*
X116119047Y-77642380D02*
X116119047Y-77118571D01*
X116071428Y-77023333D01*
X115976190Y-76975714D01*
X115785714Y-76975714D01*
X115690476Y-77023333D01*
X116119047Y-77594761D02*
X116023809Y-77642380D01*
X115785714Y-77642380D01*
X115690476Y-77594761D01*
X115642857Y-77499523D01*
X115642857Y-77404285D01*
X115690476Y-77309047D01*
X115785714Y-77261428D01*
X116023809Y-77261428D01*
X116119047Y-77213809D01*
X116595238Y-76975714D02*
X116595238Y-77642380D01*
X116595238Y-77070952D02*
X116642857Y-77023333D01*
X116738095Y-76975714D01*
X116880952Y-76975714D01*
X116976190Y-77023333D01*
X117023809Y-77118571D01*
X117023809Y-77642380D01*
X107142857Y-78347619D02*
X107190476Y-78300000D01*
X107285714Y-78252380D01*
X107523809Y-78252380D01*
X107619047Y-78300000D01*
X107666666Y-78347619D01*
X107714285Y-78442857D01*
X107714285Y-78538095D01*
X107666666Y-78680952D01*
X107095238Y-79252380D01*
X107714285Y-79252380D01*
X108333333Y-78252380D02*
X108428571Y-78252380D01*
X108523809Y-78300000D01*
X108571428Y-78347619D01*
X108619047Y-78442857D01*
X108666666Y-78633333D01*
X108666666Y-78871428D01*
X108619047Y-79061904D01*
X108571428Y-79157142D01*
X108523809Y-79204761D01*
X108428571Y-79252380D01*
X108333333Y-79252380D01*
X108238095Y-79204761D01*
X108190476Y-79157142D01*
X108142857Y-79061904D01*
X108095238Y-78871428D01*
X108095238Y-78633333D01*
X108142857Y-78442857D01*
X108190476Y-78347619D01*
X108238095Y-78300000D01*
X108333333Y-78252380D01*
X109047619Y-78347619D02*
X109095238Y-78300000D01*
X109190476Y-78252380D01*
X109428571Y-78252380D01*
X109523809Y-78300000D01*
X109571428Y-78347619D01*
X109619047Y-78442857D01*
X109619047Y-78538095D01*
X109571428Y-78680952D01*
X109000000Y-79252380D01*
X109619047Y-79252380D01*
X109952380Y-78252380D02*
X110571428Y-78252380D01*
X110238095Y-78633333D01*
X110380952Y-78633333D01*
X110476190Y-78680952D01*
X110523809Y-78728571D01*
X110571428Y-78823809D01*
X110571428Y-79061904D01*
X110523809Y-79157142D01*
X110476190Y-79204761D01*
X110380952Y-79252380D01*
X110095238Y-79252380D01*
X110000000Y-79204761D01*
X109952380Y-79157142D01*
X111000000Y-78871428D02*
X111761904Y-78871428D01*
X112428571Y-78252380D02*
X112523809Y-78252380D01*
X112619047Y-78300000D01*
X112666666Y-78347619D01*
X112714285Y-78442857D01*
X112761904Y-78633333D01*
X112761904Y-78871428D01*
X112714285Y-79061904D01*
X112666666Y-79157142D01*
X112619047Y-79204761D01*
X112523809Y-79252380D01*
X112428571Y-79252380D01*
X112333333Y-79204761D01*
X112285714Y-79157142D01*
X112238095Y-79061904D01*
X112190476Y-78871428D01*
X112190476Y-78633333D01*
X112238095Y-78442857D01*
X112285714Y-78347619D01*
X112333333Y-78300000D01*
X112428571Y-78252380D01*
X113142857Y-78347619D02*
X113190476Y-78300000D01*
X113285714Y-78252380D01*
X113523809Y-78252380D01*
X113619047Y-78300000D01*
X113666666Y-78347619D01*
X113714285Y-78442857D01*
X113714285Y-78538095D01*
X113666666Y-78680952D01*
X113095238Y-79252380D01*
X113714285Y-79252380D01*
X114142857Y-78871428D02*
X114904761Y-78871428D01*
X115333333Y-78347619D02*
X115380952Y-78300000D01*
X115476190Y-78252380D01*
X115714285Y-78252380D01*
X115809523Y-78300000D01*
X115857142Y-78347619D01*
X115904761Y-78442857D01*
X115904761Y-78538095D01*
X115857142Y-78680952D01*
X115285714Y-79252380D01*
X115904761Y-79252380D01*
X116285714Y-78347619D02*
X116333333Y-78300000D01*
X116428571Y-78252380D01*
X116666666Y-78252380D01*
X116761904Y-78300000D01*
X116809523Y-78347619D01*
X116857142Y-78442857D01*
X116857142Y-78538095D01*
X116809523Y-78680952D01*
X116238095Y-79252380D01*
X116857142Y-79252380D01*
X110404761Y-80862380D02*
X110404761Y-80195714D01*
X110404761Y-80386190D02*
X110452380Y-80290952D01*
X110500000Y-80243333D01*
X110595238Y-80195714D01*
X110690476Y-80195714D01*
X111404761Y-80814761D02*
X111309523Y-80862380D01*
X111119047Y-80862380D01*
X111023809Y-80814761D01*
X110976190Y-80719523D01*
X110976190Y-80338571D01*
X111023809Y-80243333D01*
X111119047Y-80195714D01*
X111309523Y-80195714D01*
X111404761Y-80243333D01*
X111452380Y-80338571D01*
X111452380Y-80433809D01*
X110976190Y-80529047D01*
X111785714Y-80195714D02*
X112023809Y-80862380D01*
X112261904Y-80195714D01*
X112642857Y-80767142D02*
X112690476Y-80814761D01*
X112642857Y-80862380D01*
X112595238Y-80814761D01*
X112642857Y-80767142D01*
X112642857Y-80862380D01*
X113071428Y-79957619D02*
X113119047Y-79910000D01*
X113214285Y-79862380D01*
X113452380Y-79862380D01*
X113547619Y-79910000D01*
X113595238Y-79957619D01*
X113642857Y-80052857D01*
X113642857Y-80148095D01*
X113595238Y-80290952D01*
X113023809Y-80862380D01*
X113642857Y-80862380D01*
X98285714Y-91702380D02*
X98285714Y-90702380D01*
X98523809Y-90702380D01*
X98666666Y-90750000D01*
X98761904Y-90845238D01*
X98809523Y-90940476D01*
X98857142Y-91130952D01*
X98857142Y-91273809D01*
X98809523Y-91464285D01*
X98761904Y-91559523D01*
X98666666Y-91654761D01*
X98523809Y-91702380D01*
X98285714Y-91702380D01*
X99619047Y-91178571D02*
X99761904Y-91226190D01*
X99809523Y-91273809D01*
X99857142Y-91369047D01*
X99857142Y-91511904D01*
X99809523Y-91607142D01*
X99761904Y-91654761D01*
X99666666Y-91702380D01*
X99285714Y-91702380D01*
X99285714Y-90702380D01*
X99619047Y-90702380D01*
X99714285Y-90750000D01*
X99761904Y-90797619D01*
X99809523Y-90892857D01*
X99809523Y-90988095D01*
X99761904Y-91083333D01*
X99714285Y-91130952D01*
X99619047Y-91178571D01*
X99285714Y-91178571D01*
X100809523Y-91702380D02*
X100238095Y-91702380D01*
X100523809Y-91702380D02*
X100523809Y-90702380D01*
X100428571Y-90845238D01*
X100333333Y-90940476D01*
X100238095Y-90988095D01*
X101714285Y-90702380D02*
X101238095Y-90702380D01*
X101190476Y-91178571D01*
X101238095Y-91130952D01*
X101333333Y-91083333D01*
X101571428Y-91083333D01*
X101666666Y-91130952D01*
X101714285Y-91178571D01*
X101761904Y-91273809D01*
X101761904Y-91511904D01*
X101714285Y-91607142D01*
X101666666Y-91654761D01*
X101571428Y-91702380D01*
X101333333Y-91702380D01*
X101238095Y-91654761D01*
X101190476Y-91607142D01*
%TO.C,U1*%
X91627380Y-76435952D02*
X91151190Y-76769285D01*
X91627380Y-77007380D02*
X90627380Y-77007380D01*
X90627380Y-76626428D01*
X90675000Y-76531190D01*
X90722619Y-76483571D01*
X90817857Y-76435952D01*
X90960714Y-76435952D01*
X91055952Y-76483571D01*
X91103571Y-76531190D01*
X91151190Y-76626428D01*
X91151190Y-77007380D01*
X91627380Y-76007380D02*
X90627380Y-76007380D01*
X90627380Y-75626428D01*
X90675000Y-75531190D01*
X90722619Y-75483571D01*
X90817857Y-75435952D01*
X90960714Y-75435952D01*
X91055952Y-75483571D01*
X91103571Y-75531190D01*
X91151190Y-75626428D01*
X91151190Y-76007380D01*
X90722619Y-75055000D02*
X90675000Y-75007380D01*
X90627380Y-74912142D01*
X90627380Y-74674047D01*
X90675000Y-74578809D01*
X90722619Y-74531190D01*
X90817857Y-74483571D01*
X90913095Y-74483571D01*
X91055952Y-74531190D01*
X91627380Y-75102619D01*
X91627380Y-74483571D01*
X90627380Y-73864523D02*
X90627380Y-73769285D01*
X90675000Y-73674047D01*
X90722619Y-73626428D01*
X90817857Y-73578809D01*
X91008333Y-73531190D01*
X91246428Y-73531190D01*
X91436904Y-73578809D01*
X91532142Y-73626428D01*
X91579761Y-73674047D01*
X91627380Y-73769285D01*
X91627380Y-73864523D01*
X91579761Y-73959761D01*
X91532142Y-74007380D01*
X91436904Y-74055000D01*
X91246428Y-74102619D01*
X91008333Y-74102619D01*
X90817857Y-74055000D01*
X90722619Y-74007380D01*
X90675000Y-73959761D01*
X90627380Y-73864523D01*
X90960714Y-72674047D02*
X91627380Y-72674047D01*
X90579761Y-72912142D02*
X91294047Y-73150238D01*
X91294047Y-72531190D01*
X90627380Y-71959761D02*
X90627380Y-71864523D01*
X90675000Y-71769285D01*
X90722619Y-71721666D01*
X90817857Y-71674047D01*
X91008333Y-71626428D01*
X91246428Y-71626428D01*
X91436904Y-71674047D01*
X91532142Y-71721666D01*
X91579761Y-71769285D01*
X91627380Y-71864523D01*
X91627380Y-71959761D01*
X91579761Y-72055000D01*
X91532142Y-72102619D01*
X91436904Y-72150238D01*
X91246428Y-72197857D01*
X91008333Y-72197857D01*
X90817857Y-72150238D01*
X90722619Y-72102619D01*
X90675000Y-72055000D01*
X90627380Y-71959761D01*
X91246428Y-71197857D02*
X91246428Y-70435952D01*
X90627380Y-70055000D02*
X90627380Y-69388333D01*
X91627380Y-70055000D01*
X91627380Y-69388333D01*
X91579761Y-68626428D02*
X91627380Y-68721666D01*
X91627380Y-68912142D01*
X91579761Y-69007380D01*
X91484523Y-69055000D01*
X91103571Y-69055000D01*
X91008333Y-69007380D01*
X90960714Y-68912142D01*
X90960714Y-68721666D01*
X91008333Y-68626428D01*
X91103571Y-68578809D01*
X91198809Y-68578809D01*
X91294047Y-69055000D01*
X91627380Y-68150238D02*
X90960714Y-68150238D01*
X91151190Y-68150238D02*
X91055952Y-68102619D01*
X91008333Y-68055000D01*
X90960714Y-67959761D01*
X90960714Y-67864523D01*
X91627380Y-67388333D02*
X91579761Y-67483571D01*
X91532142Y-67531190D01*
X91436904Y-67578809D01*
X91151190Y-67578809D01*
X91055952Y-67531190D01*
X91008333Y-67483571D01*
X90960714Y-67388333D01*
X90960714Y-67245476D01*
X91008333Y-67150238D01*
X91055952Y-67102619D01*
X91151190Y-67055000D01*
X91436904Y-67055000D01*
X91532142Y-67102619D01*
X91579761Y-67150238D01*
X91627380Y-67245476D01*
X91627380Y-67388333D01*
D11*
X103675000Y-81055000D02*
X103675000Y-63055000D01*
X80175000Y-81055000D02*
X103675000Y-81055000D01*
X103675000Y-63055000D02*
X80175000Y-63055000D01*
X80175000Y-63055000D02*
X80175000Y-81055000D01*
%TD*%
M02*
