%TF.GenerationSoftware,KiCad,Pcbnew,(6.0.7-1)-1*%
%TF.CreationDate,2023-02-22T21:50:02-08:00*%
%TF.ProjectId,NeoGeoDB15Wireless,4e656f47-656f-4444-9231-35576972656c,2*%
%TF.SameCoordinates,Original*%
%TF.FileFunction,Copper,L1,Top*%
%TF.FilePolarity,Positive*%
%FSLAX46Y46*%
G04 Gerber Fmt 4.6, Leading zero omitted, Abs format (unit mm)*
G04 Created by KiCad (PCBNEW (6.0.7-1)-1) date 2023-02-22 21:50:02*
%MOMM*%
%LPD*%
G01*
G04 APERTURE LIST*
G04 Aperture macros list*
%AMRoundRect*
0 Rectangle with rounded corners*
0 $1 Rounding radius*
0 $2 $3 $4 $5 $6 $7 $8 $9 X,Y pos of 4 corners*
0 Add a 4 corners polygon primitive as box body*
4,1,4,$2,$3,$4,$5,$6,$7,$8,$9,$2,$3,0*
0 Add four circle primitives for the rounded corners*
1,1,$1+$1,$2,$3*
1,1,$1+$1,$4,$5*
1,1,$1+$1,$6,$7*
1,1,$1+$1,$8,$9*
0 Add four rect primitives between the rounded corners*
20,1,$1+$1,$2,$3,$4,$5,0*
20,1,$1+$1,$4,$5,$6,$7,0*
20,1,$1+$1,$6,$7,$8,$9,0*
20,1,$1+$1,$8,$9,$2,$3,0*%
G04 Aperture macros list end*
%TA.AperFunction,ComponentPad*%
%ADD10RoundRect,0.400000X0.400000X-0.900000X0.400000X0.900000X-0.400000X0.900000X-0.400000X-0.900000X0*%
%TD*%
%TA.AperFunction,ComponentPad*%
%ADD11RoundRect,0.400050X0.400050X-0.899950X0.400050X0.899950X-0.400050X0.899950X-0.400050X-0.899950X0*%
%TD*%
%TA.AperFunction,ComponentPad*%
%ADD12RoundRect,0.400000X0.900000X-0.400000X0.900000X0.400000X-0.900000X0.400000X-0.900000X-0.400000X0*%
%TD*%
%TA.AperFunction,ComponentPad*%
%ADD13RoundRect,0.393700X0.906300X-0.393700X0.906300X0.393700X-0.906300X0.393700X-0.906300X-0.393700X0*%
%TD*%
%TA.AperFunction,ComponentPad*%
%ADD14C,4.825000*%
%TD*%
%TA.AperFunction,ComponentPad*%
%ADD15C,1.591397*%
%TD*%
%TA.AperFunction,ViaPad*%
%ADD16C,0.800000*%
%TD*%
%TA.AperFunction,Conductor*%
%ADD17C,0.250000*%
%TD*%
G04 APERTURE END LIST*
D10*
%TO.P,U1,1,GP0*%
%TO.N,/DU*%
X81765000Y-63835000D03*
%TO.P,U1,2,GP1*%
%TO.N,/DD*%
X84305000Y-63835000D03*
%TO.P,U1,3,GP2*%
%TO.N,/DL*%
X86845000Y-63835000D03*
%TO.P,U1,4,GP3*%
%TO.N,/DR*%
X89385000Y-63835000D03*
%TO.P,U1,5,GP4*%
%TO.N,/BA*%
X91925000Y-63835000D03*
D11*
%TO.P,U1,6,GP5*%
%TO.N,/BB*%
X94465000Y-63835000D03*
%TO.P,U1,7,GP6*%
%TO.N,/BC*%
X97005000Y-63835000D03*
%TO.P,U1,8,GP7*%
%TO.N,/BD*%
X99545000Y-63835000D03*
%TO.P,U1,9,GP8*%
%TO.N,/STA*%
X102085000Y-63835000D03*
D12*
%TO.P,U1,10,GP9*%
%TO.N,/SEL*%
X102895000Y-66975000D03*
D13*
%TO.P,U1,11,GP10*%
%TO.N,unconnected-(U1-Pad11)*%
X102895000Y-69515000D03*
%TO.P,U1,12,GP11*%
%TO.N,unconnected-(U1-Pad12)*%
X102895000Y-72055000D03*
%TO.P,U1,13,GP12*%
%TO.N,/MISO*%
X102895000Y-74595000D03*
%TO.P,U1,14,GP13*%
%TO.N,/CS*%
X102895000Y-77135000D03*
D11*
%TO.P,U1,15,GP14*%
%TO.N,/SCK*%
X102085000Y-80275000D03*
%TO.P,U1,16,GP15*%
%TO.N,/MOSI*%
X99545000Y-80275000D03*
%TO.P,U1,17,GP26*%
%TO.N,/CE*%
X97005000Y-80275000D03*
%TO.P,U1,18,GP27*%
%TO.N,/IRQ*%
X94465000Y-80275000D03*
%TO.P,U1,19,GP28*%
%TO.N,unconnected-(U1-Pad19)*%
X91925000Y-80275000D03*
%TO.P,U1,20,GP29*%
%TO.N,unconnected-(U1-Pad20)*%
X89385000Y-80275000D03*
%TO.P,U1,21,3V3*%
%TO.N,/3V3*%
X86845000Y-80275000D03*
%TO.P,U1,22,GND*%
%TO.N,GND*%
X84305000Y-80275000D03*
%TO.P,U1,23,5V*%
%TO.N,/VCC*%
X81765000Y-80275000D03*
%TD*%
D14*
%TO.P,J1,0,PAD*%
%TO.N,GND*%
X116662400Y-86450800D03*
X83337600Y-86450800D03*
D15*
%TO.P,J1,1,1*%
X109601192Y-85028400D03*
%TO.P,J1,2,2*%
%TO.N,unconnected-(J1-Pad2)*%
X106857993Y-85028400D03*
%TO.P,J1,3,3*%
%TO.N,/SEL*%
X104114794Y-85028400D03*
%TO.P,J1,4,4*%
%TO.N,/BD*%
X101371595Y-85028400D03*
%TO.P,J1,5,5*%
%TO.N,/BB*%
X98628396Y-85028400D03*
%TO.P,J1,6,6*%
%TO.N,/DR*%
X95885197Y-85028400D03*
%TO.P,J1,7,7*%
%TO.N,/DD*%
X93141998Y-85028400D03*
%TO.P,J1,8,8*%
%TO.N,/VCC*%
X90398799Y-85028400D03*
%TO.P,J1,9,P9*%
%TO.N,unconnected-(J1-Pad9)*%
X108229600Y-87873200D03*
%TO.P,J1,10,P10*%
%TO.N,unconnected-(J1-Pad10)*%
X105486401Y-87873200D03*
%TO.P,J1,11,P111*%
%TO.N,/STA*%
X102743202Y-87873200D03*
%TO.P,J1,12,P12*%
%TO.N,/BC*%
X100000003Y-87873200D03*
%TO.P,J1,13,P13*%
%TO.N,/BA*%
X97256804Y-87873200D03*
%TO.P,J1,14,P14*%
%TO.N,/DL*%
X94513605Y-87873200D03*
%TO.P,J1,15,P15*%
%TO.N,/DU*%
X91770406Y-87873200D03*
%TD*%
D16*
%TO.N,GND*%
X99500000Y-71800000D03*
%TO.N,/MISO*%
X110000000Y-70000000D03*
X115700000Y-66300000D03*
%TO.N,GND*%
X115700000Y-74700000D03*
X82900000Y-74600000D03*
X86900000Y-74600000D03*
X97100000Y-73100000D03*
X87500000Y-90100000D03*
X108500000Y-66300000D03*
X100000000Y-90100000D03*
X113100000Y-75200000D03*
X110000000Y-74400000D03*
X112600000Y-90100000D03*
X89600000Y-74600000D03*
X94500000Y-74600000D03*
%TD*%
D17*
%TO.N,/MISO*%
X112000000Y-70000000D02*
X115700000Y-66300000D01*
X110000000Y-70000000D02*
X112000000Y-70000000D01*
%TO.N,/DD*%
X88100000Y-68230000D02*
X84305000Y-64435000D01*
X93141998Y-85028400D02*
X91770398Y-86400000D01*
X89500000Y-86400000D02*
X88100000Y-85000000D01*
X91770398Y-86400000D02*
X89500000Y-86400000D01*
X88100000Y-85000000D02*
X88100000Y-68230000D01*
%TO.N,/DR*%
X95879900Y-85023103D02*
X95879900Y-70929900D01*
X95885197Y-85028400D02*
X95879900Y-85023103D01*
X95879900Y-70929900D02*
X89385000Y-64435000D01*
%TO.N,/BB*%
X100800000Y-71100000D02*
X94465000Y-64765000D01*
X98628396Y-85028400D02*
X100800000Y-82856796D01*
X100800000Y-82856796D02*
X100800000Y-71100000D01*
X94465000Y-64765000D02*
X94465000Y-64435000D01*
%TO.N,/BD*%
X99545000Y-67795000D02*
X100050000Y-68300000D01*
X104300000Y-68300000D02*
X105800000Y-69800000D01*
X100050000Y-68300000D02*
X104300000Y-68300000D01*
X105800000Y-69800000D02*
X105800000Y-80599995D01*
X105800000Y-80599995D02*
X101371595Y-85028400D01*
X99545000Y-64435000D02*
X99545000Y-67795000D01*
%TO.N,/SEL*%
X104114794Y-83385206D02*
X106500000Y-81000000D01*
X104114794Y-85028400D02*
X104114794Y-83385206D01*
X104975000Y-66975000D02*
X102295000Y-66975000D01*
X106500000Y-81000000D02*
X106500000Y-68500000D01*
X106500000Y-68500000D02*
X104975000Y-66975000D01*
%TO.N,/DU*%
X91770406Y-87873200D02*
X90073200Y-87873200D01*
X85600000Y-68270000D02*
X81765000Y-64435000D01*
X85600000Y-83400000D02*
X85600000Y-68270000D01*
X90073200Y-87873200D02*
X85600000Y-83400000D01*
%TO.N,/DL*%
X93200000Y-70790000D02*
X86845000Y-64435000D01*
X94513605Y-87873200D02*
X94513605Y-82648981D01*
X94513605Y-82648981D02*
X93200000Y-81335376D01*
X93200000Y-81335376D02*
X93200000Y-70790000D01*
%TO.N,/BA*%
X97256804Y-83243196D02*
X98300000Y-82200000D01*
X98300000Y-70810000D02*
X91925000Y-64435000D01*
X97256804Y-87873200D02*
X97256804Y-83243196D01*
X98300000Y-82200000D02*
X98300000Y-70810000D01*
%TO.N,/BC*%
X101050000Y-83500000D02*
X100000003Y-84549997D01*
X97005000Y-64435000D02*
X97005000Y-66338604D01*
X100000003Y-84549997D02*
X100000003Y-87873200D01*
X97005000Y-66338604D02*
X101466396Y-70800000D01*
X105000000Y-80400000D02*
X101900000Y-83500000D01*
X101900000Y-83500000D02*
X101050000Y-83500000D01*
X105000000Y-71500000D02*
X105000000Y-80400000D01*
X101466396Y-70800000D02*
X104300000Y-70800000D01*
X104300000Y-70800000D02*
X105000000Y-71500000D01*
%TO.N,/STA*%
X105338194Y-83161806D02*
X107500000Y-81000000D01*
X105338194Y-85961806D02*
X105338194Y-83161806D01*
X107500000Y-81000000D02*
X107500000Y-67700000D01*
X102150000Y-64500000D02*
X102085000Y-64435000D01*
X102743202Y-87873200D02*
X103426800Y-87873200D01*
X107500000Y-67700000D02*
X104300000Y-64500000D01*
X104300000Y-64500000D02*
X102150000Y-64500000D01*
X103426800Y-87873200D02*
X105338194Y-85961806D01*
%TD*%
%TA.AperFunction,Conductor*%
%TO.N,GND*%
G36*
X119333621Y-62028502D02*
G01*
X119380114Y-62082158D01*
X119391500Y-62134500D01*
X119391500Y-84865473D01*
X119371498Y-84933594D01*
X119317842Y-84980087D01*
X119247568Y-84990191D01*
X119182988Y-84960697D01*
X119156052Y-84927901D01*
X119117679Y-84860626D01*
X119113747Y-84854571D01*
X118918642Y-84588969D01*
X118914252Y-84583663D01*
X118900661Y-84575581D01*
X118900056Y-84575602D01*
X118891574Y-84580836D01*
X117034422Y-86437988D01*
X117026808Y-86451932D01*
X117026939Y-86453765D01*
X117031190Y-86460380D01*
X118886547Y-88315737D01*
X118899901Y-88323029D01*
X118909874Y-88315974D01*
X119008675Y-88197808D01*
X119012991Y-88191997D01*
X119160188Y-87967910D01*
X119214306Y-87921956D01*
X119284677Y-87912555D01*
X119348960Y-87942692D01*
X119386745Y-88002799D01*
X119391500Y-88037087D01*
X119391500Y-92865500D01*
X119371498Y-92933621D01*
X119317842Y-92980114D01*
X119265500Y-92991500D01*
X80634500Y-92991500D01*
X80566379Y-92971498D01*
X80519886Y-92917842D01*
X80508500Y-92865500D01*
X80508500Y-88690537D01*
X81463403Y-88690537D01*
X81463421Y-88690788D01*
X81469337Y-88699535D01*
X81493873Y-88721860D01*
X81499497Y-88726415D01*
X81767115Y-88918718D01*
X81773246Y-88922608D01*
X82061183Y-89082872D01*
X82067703Y-89086024D01*
X82372162Y-89212135D01*
X82379013Y-89214521D01*
X82695932Y-89304798D01*
X82703021Y-89306382D01*
X83028226Y-89359637D01*
X83035434Y-89360394D01*
X83364608Y-89375918D01*
X83371858Y-89375842D01*
X83700624Y-89353429D01*
X83707834Y-89352518D01*
X84031852Y-89292465D01*
X84038882Y-89290738D01*
X84353852Y-89193841D01*
X84360664Y-89191307D01*
X84662403Y-89058853D01*
X84668858Y-89055564D01*
X84953379Y-88889304D01*
X84959428Y-88885285D01*
X85203931Y-88701707D01*
X85212385Y-88690380D01*
X85205640Y-88678050D01*
X83350412Y-86822822D01*
X83336468Y-86815208D01*
X83334635Y-86815339D01*
X83328020Y-86819590D01*
X81471017Y-88676593D01*
X81463403Y-88690537D01*
X80508500Y-88690537D01*
X80508500Y-87856335D01*
X80528502Y-87788214D01*
X80582158Y-87741721D01*
X80652432Y-87731617D01*
X80717012Y-87761111D01*
X80745855Y-87797376D01*
X80833581Y-87963063D01*
X80837327Y-87969248D01*
X81023985Y-88240835D01*
X81028430Y-88246565D01*
X81088362Y-88315267D01*
X81101534Y-88323671D01*
X81111389Y-88317801D01*
X82965578Y-86463612D01*
X82973192Y-86449668D01*
X82973061Y-86447835D01*
X82968810Y-86441220D01*
X81112300Y-84584710D01*
X81099507Y-84577724D01*
X81088754Y-84585588D01*
X80937610Y-84778350D01*
X80933476Y-84784299D01*
X80761290Y-85065280D01*
X80757860Y-85071677D01*
X80748787Y-85091223D01*
X80701963Y-85144590D01*
X80633719Y-85164170D01*
X80565724Y-85143746D01*
X80519564Y-85089803D01*
X80508500Y-85038172D01*
X80508500Y-81913677D01*
X80528502Y-81845556D01*
X80582158Y-81799063D01*
X80652432Y-81788959D01*
X80716933Y-81818417D01*
X80718969Y-81820931D01*
X80867392Y-81941122D01*
X81037561Y-82027827D01*
X81043934Y-82029535D01*
X81043935Y-82029535D01*
X81214609Y-82075267D01*
X81222039Y-82077258D01*
X81227793Y-82077711D01*
X81227794Y-82077711D01*
X81298896Y-82083307D01*
X81298907Y-82083307D01*
X81301354Y-82083500D01*
X82228646Y-82083500D01*
X82231093Y-82083307D01*
X82231104Y-82083307D01*
X82302206Y-82077711D01*
X82302207Y-82077711D01*
X82307961Y-82077258D01*
X82315392Y-82075267D01*
X82486065Y-82029535D01*
X82486066Y-82029535D01*
X82492439Y-82027827D01*
X82662608Y-81941122D01*
X82811031Y-81820931D01*
X82931222Y-81672508D01*
X82931386Y-81672186D01*
X82983507Y-81627458D01*
X83053828Y-81617691D01*
X83118267Y-81647492D01*
X83140971Y-81673694D01*
X83143355Y-81677365D01*
X83255174Y-81815449D01*
X83264451Y-81824726D01*
X83402536Y-81936546D01*
X83413547Y-81943696D01*
X83571864Y-82024363D01*
X83584110Y-82029064D01*
X83756543Y-82075267D01*
X83767870Y-82077214D01*
X83838935Y-82082807D01*
X83843861Y-82083000D01*
X84032885Y-82083000D01*
X84048124Y-82078525D01*
X84049329Y-82077135D01*
X84051000Y-82069452D01*
X84051000Y-78485115D01*
X84046525Y-78469876D01*
X84045135Y-78468671D01*
X84037452Y-78467000D01*
X83843862Y-78467000D01*
X83838935Y-78467193D01*
X83767870Y-78472786D01*
X83756543Y-78474733D01*
X83584110Y-78520936D01*
X83571864Y-78525637D01*
X83413547Y-78606304D01*
X83402536Y-78613454D01*
X83264451Y-78725274D01*
X83255174Y-78734551D01*
X83143355Y-78872635D01*
X83140971Y-78876306D01*
X83087094Y-78922541D01*
X83016772Y-78932309D01*
X82952333Y-78902508D01*
X82932029Y-78879076D01*
X82931222Y-78877492D01*
X82811031Y-78729069D01*
X82662608Y-78608878D01*
X82492439Y-78522173D01*
X82486065Y-78520465D01*
X82313537Y-78474236D01*
X82313536Y-78474236D01*
X82307961Y-78472742D01*
X82302207Y-78472289D01*
X82302206Y-78472289D01*
X82231104Y-78466693D01*
X82231093Y-78466693D01*
X82228646Y-78466500D01*
X81301354Y-78466500D01*
X81298907Y-78466693D01*
X81298896Y-78466693D01*
X81227794Y-78472289D01*
X81227793Y-78472289D01*
X81222039Y-78472742D01*
X81216464Y-78474236D01*
X81216463Y-78474236D01*
X81043935Y-78520465D01*
X81037561Y-78522173D01*
X80867392Y-78608878D01*
X80718969Y-78729069D01*
X80718337Y-78728289D01*
X80661283Y-78759444D01*
X80590468Y-78754379D01*
X80533632Y-78711832D01*
X80508821Y-78645312D01*
X80508500Y-78636323D01*
X80508500Y-65473604D01*
X80528502Y-65405483D01*
X80582158Y-65358990D01*
X80652432Y-65348886D01*
X80716958Y-65378355D01*
X80719055Y-65380945D01*
X80724186Y-65385100D01*
X80862337Y-65496973D01*
X80862341Y-65496976D01*
X80867470Y-65501129D01*
X80873347Y-65504124D01*
X80873351Y-65504126D01*
X81031064Y-65584484D01*
X81037629Y-65587829D01*
X81044002Y-65589537D01*
X81044003Y-65589537D01*
X81216519Y-65635763D01*
X81216523Y-65635764D01*
X81222096Y-65637257D01*
X81227852Y-65637710D01*
X81298963Y-65643307D01*
X81298970Y-65643307D01*
X81301419Y-65643500D01*
X81336480Y-65643500D01*
X82025405Y-65643499D01*
X82093526Y-65663501D01*
X82114500Y-65680404D01*
X84929595Y-68495500D01*
X84963621Y-68557812D01*
X84966500Y-68584595D01*
X84966500Y-78346268D01*
X84946498Y-78414389D01*
X84892842Y-78460882D01*
X84830614Y-78471880D01*
X84771065Y-78467193D01*
X84766138Y-78467000D01*
X84577115Y-78467000D01*
X84561876Y-78471475D01*
X84560671Y-78472865D01*
X84559000Y-78480548D01*
X84559000Y-82064885D01*
X84563475Y-82080124D01*
X84564865Y-82081329D01*
X84572548Y-82083000D01*
X84766139Y-82083000D01*
X84771065Y-82082807D01*
X84830614Y-82078120D01*
X84900094Y-82092716D01*
X84950654Y-82142559D01*
X84966500Y-82203732D01*
X84966500Y-83321233D01*
X84965973Y-83332416D01*
X84964298Y-83339909D01*
X84964547Y-83347835D01*
X84964547Y-83347836D01*
X84966438Y-83407986D01*
X84966500Y-83411945D01*
X84966500Y-83439856D01*
X84966997Y-83443790D01*
X84966997Y-83443791D01*
X84967005Y-83443856D01*
X84967938Y-83455693D01*
X84969327Y-83499889D01*
X84974978Y-83519339D01*
X84978987Y-83538700D01*
X84981526Y-83558797D01*
X84984445Y-83566168D01*
X84984445Y-83566170D01*
X84997804Y-83599912D01*
X85001649Y-83611142D01*
X85013982Y-83653593D01*
X85018015Y-83660412D01*
X85018017Y-83660417D01*
X85024293Y-83671028D01*
X85032988Y-83688776D01*
X85040448Y-83707617D01*
X85045110Y-83714033D01*
X85045110Y-83714034D01*
X85066436Y-83743387D01*
X85072952Y-83753307D01*
X85088698Y-83779931D01*
X85095458Y-83791362D01*
X85109779Y-83805683D01*
X85122619Y-83820716D01*
X85134528Y-83837107D01*
X85140634Y-83842159D01*
X85144987Y-83846794D01*
X85177037Y-83910145D01*
X85169748Y-83980766D01*
X85125436Y-84036237D01*
X85058169Y-84058944D01*
X84989303Y-84041680D01*
X84982859Y-84037627D01*
X84829779Y-83934762D01*
X84823558Y-83931082D01*
X84530707Y-83779931D01*
X84524096Y-83776988D01*
X84215829Y-83660504D01*
X84208903Y-83658333D01*
X83889290Y-83578052D01*
X83882180Y-83576696D01*
X83555457Y-83533681D01*
X83548218Y-83533150D01*
X83218737Y-83527974D01*
X83211475Y-83528278D01*
X82883567Y-83561008D01*
X82876419Y-83562140D01*
X82554434Y-83632344D01*
X82547456Y-83634292D01*
X82235677Y-83741038D01*
X82228970Y-83743775D01*
X81931532Y-83885646D01*
X81925174Y-83889141D01*
X81646027Y-84064250D01*
X81640104Y-84068459D01*
X81473450Y-84201975D01*
X81464982Y-84214098D01*
X81471379Y-84225369D01*
X85561747Y-88315737D01*
X85575101Y-88323029D01*
X85585074Y-88315974D01*
X85683875Y-88197808D01*
X85688191Y-88191997D01*
X85869126Y-87916550D01*
X85872740Y-87910288D01*
X86020817Y-87615872D01*
X86023689Y-87609234D01*
X86136941Y-87299759D01*
X86139037Y-87292818D01*
X86215967Y-86972381D01*
X86217251Y-86965242D01*
X86256940Y-86637269D01*
X86257364Y-86631699D01*
X86262961Y-86453597D01*
X86262888Y-86448004D01*
X86243870Y-86118177D01*
X86243038Y-86110988D01*
X86186379Y-85786344D01*
X86184724Y-85779289D01*
X86091131Y-85463324D01*
X86088673Y-85456495D01*
X85959382Y-85153379D01*
X85956165Y-85146896D01*
X85792879Y-84860626D01*
X85788947Y-84854571D01*
X85746357Y-84796592D01*
X85722149Y-84729850D01*
X85737867Y-84660615D01*
X85788521Y-84610869D01*
X85858029Y-84596405D01*
X85924322Y-84621817D01*
X85936998Y-84632902D01*
X87753763Y-86449668D01*
X89569548Y-88265453D01*
X89577088Y-88273739D01*
X89581200Y-88280218D01*
X89586977Y-88285643D01*
X89630851Y-88326843D01*
X89633693Y-88329598D01*
X89653430Y-88349335D01*
X89656627Y-88351815D01*
X89665647Y-88359518D01*
X89697879Y-88389786D01*
X89704825Y-88393605D01*
X89704828Y-88393607D01*
X89715634Y-88399548D01*
X89732153Y-88410399D01*
X89748159Y-88422814D01*
X89755428Y-88425959D01*
X89755432Y-88425962D01*
X89788737Y-88440374D01*
X89799387Y-88445591D01*
X89838140Y-88466895D01*
X89845815Y-88468866D01*
X89845816Y-88468866D01*
X89857762Y-88471933D01*
X89876467Y-88478337D01*
X89895055Y-88486381D01*
X89902878Y-88487620D01*
X89902888Y-88487623D01*
X89938724Y-88493299D01*
X89950344Y-88495705D01*
X89985489Y-88504728D01*
X89993170Y-88506700D01*
X90013424Y-88506700D01*
X90033134Y-88508251D01*
X90053143Y-88511420D01*
X90061035Y-88510674D01*
X90097161Y-88507259D01*
X90109019Y-88506700D01*
X90556264Y-88506700D01*
X90624385Y-88526702D01*
X90659477Y-88560429D01*
X90758401Y-88701707D01*
X90767516Y-88714725D01*
X90928881Y-88876090D01*
X90933389Y-88879247D01*
X90933392Y-88879249D01*
X91111307Y-89003826D01*
X91115816Y-89006983D01*
X91120798Y-89009306D01*
X91120803Y-89009309D01*
X91285319Y-89086024D01*
X91322640Y-89103427D01*
X91327948Y-89104849D01*
X91327950Y-89104850D01*
X91396419Y-89123196D01*
X91543069Y-89162491D01*
X91770406Y-89182380D01*
X91997743Y-89162491D01*
X92144393Y-89123196D01*
X92212862Y-89104850D01*
X92212864Y-89104849D01*
X92218172Y-89103427D01*
X92255493Y-89086024D01*
X92420009Y-89009309D01*
X92420014Y-89009306D01*
X92424996Y-89006983D01*
X92429505Y-89003826D01*
X92607420Y-88879249D01*
X92607423Y-88879247D01*
X92611931Y-88876090D01*
X92773296Y-88714725D01*
X92782412Y-88701707D01*
X92901032Y-88532299D01*
X92901033Y-88532297D01*
X92904189Y-88527790D01*
X92906512Y-88522808D01*
X92906515Y-88522803D01*
X92998310Y-88325948D01*
X92998311Y-88325946D01*
X93000633Y-88320966D01*
X93002056Y-88315656D01*
X93002059Y-88315648D01*
X93020300Y-88247573D01*
X93057252Y-88186950D01*
X93121112Y-88155929D01*
X93191607Y-88164359D01*
X93246353Y-88209562D01*
X93263712Y-88247572D01*
X93270177Y-88271698D01*
X93281955Y-88315654D01*
X93283378Y-88320966D01*
X93285700Y-88325946D01*
X93285701Y-88325948D01*
X93377496Y-88522803D01*
X93377499Y-88522808D01*
X93379822Y-88527790D01*
X93382978Y-88532297D01*
X93382979Y-88532299D01*
X93501600Y-88701707D01*
X93510715Y-88714725D01*
X93672080Y-88876090D01*
X93676588Y-88879247D01*
X93676591Y-88879249D01*
X93854506Y-89003826D01*
X93859015Y-89006983D01*
X93863997Y-89009306D01*
X93864002Y-89009309D01*
X94028518Y-89086024D01*
X94065839Y-89103427D01*
X94071147Y-89104849D01*
X94071149Y-89104850D01*
X94139618Y-89123196D01*
X94286268Y-89162491D01*
X94513605Y-89182380D01*
X94740942Y-89162491D01*
X94887592Y-89123196D01*
X94956061Y-89104850D01*
X94956063Y-89104849D01*
X94961371Y-89103427D01*
X94998692Y-89086024D01*
X95163208Y-89009309D01*
X95163213Y-89009306D01*
X95168195Y-89006983D01*
X95172704Y-89003826D01*
X95350619Y-88879249D01*
X95350622Y-88879247D01*
X95355130Y-88876090D01*
X95516495Y-88714725D01*
X95525611Y-88701707D01*
X95644231Y-88532299D01*
X95644232Y-88532297D01*
X95647388Y-88527790D01*
X95649711Y-88522808D01*
X95649714Y-88522803D01*
X95741509Y-88325948D01*
X95741510Y-88325946D01*
X95743832Y-88320966D01*
X95745255Y-88315656D01*
X95745258Y-88315648D01*
X95763499Y-88247573D01*
X95800451Y-88186950D01*
X95864311Y-88155929D01*
X95934806Y-88164359D01*
X95989552Y-88209562D01*
X96006911Y-88247572D01*
X96013376Y-88271698D01*
X96025154Y-88315654D01*
X96026577Y-88320966D01*
X96028899Y-88325946D01*
X96028900Y-88325948D01*
X96120695Y-88522803D01*
X96120698Y-88522808D01*
X96123021Y-88527790D01*
X96126177Y-88532297D01*
X96126178Y-88532299D01*
X96244799Y-88701707D01*
X96253914Y-88714725D01*
X96415279Y-88876090D01*
X96419787Y-88879247D01*
X96419790Y-88879249D01*
X96597705Y-89003826D01*
X96602214Y-89006983D01*
X96607196Y-89009306D01*
X96607201Y-89009309D01*
X96771717Y-89086024D01*
X96809038Y-89103427D01*
X96814346Y-89104849D01*
X96814348Y-89104850D01*
X96882817Y-89123196D01*
X97029467Y-89162491D01*
X97256804Y-89182380D01*
X97484141Y-89162491D01*
X97630791Y-89123196D01*
X97699260Y-89104850D01*
X97699262Y-89104849D01*
X97704570Y-89103427D01*
X97741891Y-89086024D01*
X97906407Y-89009309D01*
X97906412Y-89009306D01*
X97911394Y-89006983D01*
X97915903Y-89003826D01*
X98093818Y-88879249D01*
X98093821Y-88879247D01*
X98098329Y-88876090D01*
X98259694Y-88714725D01*
X98268810Y-88701707D01*
X98387430Y-88532299D01*
X98387431Y-88532297D01*
X98390587Y-88527790D01*
X98392910Y-88522808D01*
X98392913Y-88522803D01*
X98484708Y-88325948D01*
X98484709Y-88325946D01*
X98487031Y-88320966D01*
X98488454Y-88315656D01*
X98488457Y-88315648D01*
X98506698Y-88247573D01*
X98543650Y-88186950D01*
X98607510Y-88155929D01*
X98678005Y-88164359D01*
X98732751Y-88209562D01*
X98750110Y-88247572D01*
X98756575Y-88271698D01*
X98768353Y-88315654D01*
X98769776Y-88320966D01*
X98772098Y-88325946D01*
X98772099Y-88325948D01*
X98863894Y-88522803D01*
X98863897Y-88522808D01*
X98866220Y-88527790D01*
X98869376Y-88532297D01*
X98869377Y-88532299D01*
X98987998Y-88701707D01*
X98997113Y-88714725D01*
X99158478Y-88876090D01*
X99162986Y-88879247D01*
X99162989Y-88879249D01*
X99340904Y-89003826D01*
X99345413Y-89006983D01*
X99350395Y-89009306D01*
X99350400Y-89009309D01*
X99514916Y-89086024D01*
X99552237Y-89103427D01*
X99557545Y-89104849D01*
X99557547Y-89104850D01*
X99626016Y-89123196D01*
X99772666Y-89162491D01*
X100000003Y-89182380D01*
X100227340Y-89162491D01*
X100373990Y-89123196D01*
X100442459Y-89104850D01*
X100442461Y-89104849D01*
X100447769Y-89103427D01*
X100485090Y-89086024D01*
X100649606Y-89009309D01*
X100649611Y-89009306D01*
X100654593Y-89006983D01*
X100659102Y-89003826D01*
X100837017Y-88879249D01*
X100837020Y-88879247D01*
X100841528Y-88876090D01*
X101002893Y-88714725D01*
X101012009Y-88701707D01*
X101130629Y-88532299D01*
X101130630Y-88532297D01*
X101133786Y-88527790D01*
X101136109Y-88522808D01*
X101136112Y-88522803D01*
X101227907Y-88325948D01*
X101227908Y-88325946D01*
X101230230Y-88320966D01*
X101231653Y-88315656D01*
X101231656Y-88315648D01*
X101249897Y-88247573D01*
X101286849Y-88186950D01*
X101350709Y-88155929D01*
X101421204Y-88164359D01*
X101475950Y-88209562D01*
X101493309Y-88247572D01*
X101499774Y-88271698D01*
X101511552Y-88315654D01*
X101512975Y-88320966D01*
X101515297Y-88325946D01*
X101515298Y-88325948D01*
X101607093Y-88522803D01*
X101607096Y-88522808D01*
X101609419Y-88527790D01*
X101612575Y-88532297D01*
X101612576Y-88532299D01*
X101731197Y-88701707D01*
X101740312Y-88714725D01*
X101901677Y-88876090D01*
X101906185Y-88879247D01*
X101906188Y-88879249D01*
X102084103Y-89003826D01*
X102088612Y-89006983D01*
X102093594Y-89009306D01*
X102093599Y-89009309D01*
X102258115Y-89086024D01*
X102295436Y-89103427D01*
X102300744Y-89104849D01*
X102300746Y-89104850D01*
X102369215Y-89123196D01*
X102515865Y-89162491D01*
X102743202Y-89182380D01*
X102970539Y-89162491D01*
X103117189Y-89123196D01*
X103185658Y-89104850D01*
X103185660Y-89104849D01*
X103190968Y-89103427D01*
X103228289Y-89086024D01*
X103392805Y-89009309D01*
X103392810Y-89009306D01*
X103397792Y-89006983D01*
X103402301Y-89003826D01*
X103580216Y-88879249D01*
X103580219Y-88879247D01*
X103584727Y-88876090D01*
X103746092Y-88714725D01*
X103755208Y-88701707D01*
X103873828Y-88532299D01*
X103873829Y-88532297D01*
X103876985Y-88527790D01*
X103879308Y-88522808D01*
X103879311Y-88522803D01*
X103971106Y-88325948D01*
X103971107Y-88325946D01*
X103973429Y-88320966D01*
X103974852Y-88315656D01*
X103974853Y-88315654D01*
X103993094Y-88247574D01*
X104030045Y-88186951D01*
X104093905Y-88155929D01*
X104164400Y-88164357D01*
X104219147Y-88209559D01*
X104236507Y-88247572D01*
X104254748Y-88315648D01*
X104254751Y-88315656D01*
X104256174Y-88320966D01*
X104258496Y-88325946D01*
X104258497Y-88325948D01*
X104350292Y-88522803D01*
X104350295Y-88522808D01*
X104352618Y-88527790D01*
X104355774Y-88532297D01*
X104355775Y-88532299D01*
X104474396Y-88701707D01*
X104483511Y-88714725D01*
X104644876Y-88876090D01*
X104649384Y-88879247D01*
X104649387Y-88879249D01*
X104827302Y-89003826D01*
X104831811Y-89006983D01*
X104836793Y-89009306D01*
X104836798Y-89009309D01*
X105001314Y-89086024D01*
X105038635Y-89103427D01*
X105043943Y-89104849D01*
X105043945Y-89104850D01*
X105112414Y-89123196D01*
X105259064Y-89162491D01*
X105486401Y-89182380D01*
X105713738Y-89162491D01*
X105860388Y-89123196D01*
X105928857Y-89104850D01*
X105928859Y-89104849D01*
X105934167Y-89103427D01*
X105971488Y-89086024D01*
X106136004Y-89009309D01*
X106136009Y-89009306D01*
X106140991Y-89006983D01*
X106145500Y-89003826D01*
X106323415Y-88879249D01*
X106323418Y-88879247D01*
X106327926Y-88876090D01*
X106489291Y-88714725D01*
X106498407Y-88701707D01*
X106617027Y-88532299D01*
X106617028Y-88532297D01*
X106620184Y-88527790D01*
X106622507Y-88522808D01*
X106622510Y-88522803D01*
X106714305Y-88325948D01*
X106714306Y-88325946D01*
X106716628Y-88320966D01*
X106718051Y-88315656D01*
X106718054Y-88315648D01*
X106736295Y-88247573D01*
X106773247Y-88186950D01*
X106837107Y-88155929D01*
X106907602Y-88164359D01*
X106962348Y-88209562D01*
X106979707Y-88247572D01*
X106986172Y-88271698D01*
X106997950Y-88315654D01*
X106999373Y-88320966D01*
X107001695Y-88325946D01*
X107001696Y-88325948D01*
X107093491Y-88522803D01*
X107093494Y-88522808D01*
X107095817Y-88527790D01*
X107098973Y-88532297D01*
X107098974Y-88532299D01*
X107217595Y-88701707D01*
X107226710Y-88714725D01*
X107388075Y-88876090D01*
X107392583Y-88879247D01*
X107392586Y-88879249D01*
X107570501Y-89003826D01*
X107575010Y-89006983D01*
X107579992Y-89009306D01*
X107579997Y-89009309D01*
X107744513Y-89086024D01*
X107781834Y-89103427D01*
X107787142Y-89104849D01*
X107787144Y-89104850D01*
X107855613Y-89123196D01*
X108002263Y-89162491D01*
X108229600Y-89182380D01*
X108456937Y-89162491D01*
X108603587Y-89123196D01*
X108672056Y-89104850D01*
X108672058Y-89104849D01*
X108677366Y-89103427D01*
X108714687Y-89086024D01*
X108879203Y-89009309D01*
X108879208Y-89009306D01*
X108884190Y-89006983D01*
X108888699Y-89003826D01*
X109066614Y-88879249D01*
X109066617Y-88879247D01*
X109071125Y-88876090D01*
X109232490Y-88714725D01*
X109241606Y-88701707D01*
X109249427Y-88690537D01*
X114788203Y-88690537D01*
X114788221Y-88690788D01*
X114794137Y-88699535D01*
X114818673Y-88721860D01*
X114824297Y-88726415D01*
X115091915Y-88918718D01*
X115098046Y-88922608D01*
X115385983Y-89082872D01*
X115392503Y-89086024D01*
X115696962Y-89212135D01*
X115703813Y-89214521D01*
X116020732Y-89304798D01*
X116027821Y-89306382D01*
X116353026Y-89359637D01*
X116360234Y-89360394D01*
X116689408Y-89375918D01*
X116696658Y-89375842D01*
X117025424Y-89353429D01*
X117032634Y-89352518D01*
X117356652Y-89292465D01*
X117363682Y-89290738D01*
X117678652Y-89193841D01*
X117685464Y-89191307D01*
X117987203Y-89058853D01*
X117993658Y-89055564D01*
X118278179Y-88889304D01*
X118284228Y-88885285D01*
X118528731Y-88701707D01*
X118537185Y-88690380D01*
X118530440Y-88678050D01*
X116675212Y-86822822D01*
X116661268Y-86815208D01*
X116659435Y-86815339D01*
X116652820Y-86819590D01*
X114795817Y-88676593D01*
X114788203Y-88690537D01*
X109249427Y-88690537D01*
X109360226Y-88532299D01*
X109360227Y-88532297D01*
X109363383Y-88527790D01*
X109365706Y-88522808D01*
X109365709Y-88522803D01*
X109457504Y-88325948D01*
X109457505Y-88325946D01*
X109459827Y-88320966D01*
X109461251Y-88315654D01*
X109489678Y-88209562D01*
X109518891Y-88100537D01*
X109538780Y-87873200D01*
X109518891Y-87645863D01*
X109459827Y-87425434D01*
X109428472Y-87358193D01*
X109365709Y-87223597D01*
X109365706Y-87223592D01*
X109363383Y-87218610D01*
X109232490Y-87031675D01*
X109071125Y-86870310D01*
X109066617Y-86867153D01*
X109066614Y-86867151D01*
X108888699Y-86742574D01*
X108888697Y-86742573D01*
X108884190Y-86739417D01*
X108879208Y-86737094D01*
X108879203Y-86737091D01*
X108682348Y-86645296D01*
X108682346Y-86645295D01*
X108677366Y-86642973D01*
X108672058Y-86641551D01*
X108672056Y-86641550D01*
X108587827Y-86618981D01*
X108456937Y-86583909D01*
X108229600Y-86564020D01*
X108002263Y-86583909D01*
X107871373Y-86618981D01*
X107787144Y-86641550D01*
X107787142Y-86641551D01*
X107781834Y-86642973D01*
X107776854Y-86645295D01*
X107776852Y-86645296D01*
X107579997Y-86737091D01*
X107579992Y-86737094D01*
X107575010Y-86739417D01*
X107570503Y-86742573D01*
X107570501Y-86742574D01*
X107392586Y-86867151D01*
X107392583Y-86867153D01*
X107388075Y-86870310D01*
X107226710Y-87031675D01*
X107095817Y-87218610D01*
X107093494Y-87223592D01*
X107093491Y-87223597D01*
X107030728Y-87358193D01*
X106999373Y-87425434D01*
X106997951Y-87430742D01*
X106997950Y-87430744D01*
X106979708Y-87498826D01*
X106942757Y-87559449D01*
X106878896Y-87590470D01*
X106808402Y-87582042D01*
X106753654Y-87536839D01*
X106736295Y-87498827D01*
X106718054Y-87430752D01*
X106718050Y-87430741D01*
X106716628Y-87425434D01*
X106685273Y-87358193D01*
X106622510Y-87223597D01*
X106622507Y-87223592D01*
X106620184Y-87218610D01*
X106489291Y-87031675D01*
X106327926Y-86870310D01*
X106323418Y-86867153D01*
X106323415Y-86867151D01*
X106145500Y-86742574D01*
X106145498Y-86742573D01*
X106140991Y-86739417D01*
X106136009Y-86737094D01*
X106136004Y-86737091D01*
X105939149Y-86645296D01*
X105939147Y-86645295D01*
X105934167Y-86642973D01*
X105928859Y-86641551D01*
X105928857Y-86641550D01*
X105844628Y-86618981D01*
X105784005Y-86582029D01*
X105752984Y-86518168D01*
X105761412Y-86447674D01*
X105785388Y-86411022D01*
X105791881Y-86404108D01*
X105794607Y-86401297D01*
X105814328Y-86381576D01*
X105816806Y-86378381D01*
X105824512Y-86369359D01*
X105830915Y-86362541D01*
X113738490Y-86362541D01*
X113747116Y-86691970D01*
X113747722Y-86699186D01*
X113794155Y-87025438D01*
X113795589Y-87032549D01*
X113879214Y-87351310D01*
X113881451Y-87358193D01*
X114001155Y-87665219D01*
X114004175Y-87671817D01*
X114158381Y-87963063D01*
X114162127Y-87969248D01*
X114348785Y-88240835D01*
X114353230Y-88246565D01*
X114413162Y-88315267D01*
X114426334Y-88323671D01*
X114436189Y-88317801D01*
X116290378Y-86463612D01*
X116297992Y-86449668D01*
X116297861Y-86447835D01*
X116293610Y-86441220D01*
X114437100Y-84584710D01*
X114424307Y-84577724D01*
X114413554Y-84585588D01*
X114262410Y-84778350D01*
X114258276Y-84784299D01*
X114086090Y-85065280D01*
X114082660Y-85071676D01*
X113943917Y-85370572D01*
X113941246Y-85377317D01*
X113837772Y-85690192D01*
X113835896Y-85697196D01*
X113769072Y-86019877D01*
X113768010Y-86027069D01*
X113738718Y-86355287D01*
X113738490Y-86362541D01*
X105830915Y-86362541D01*
X105854780Y-86337127D01*
X105863632Y-86321026D01*
X105864540Y-86319374D01*
X105875393Y-86302851D01*
X105882947Y-86293112D01*
X105887807Y-86286847D01*
X105905370Y-86246263D01*
X105910577Y-86235633D01*
X105931889Y-86196866D01*
X105933860Y-86189189D01*
X105933862Y-86189184D01*
X105935558Y-86182577D01*
X105971871Y-86121569D01*
X106035403Y-86089880D01*
X106105982Y-86097568D01*
X106129870Y-86110695D01*
X106132198Y-86112325D01*
X106203403Y-86162183D01*
X106208385Y-86164506D01*
X106208390Y-86164509D01*
X106397956Y-86252905D01*
X106410227Y-86258627D01*
X106415535Y-86260049D01*
X106415537Y-86260050D01*
X106484006Y-86278396D01*
X106630656Y-86317691D01*
X106857993Y-86337580D01*
X107085330Y-86317691D01*
X107231980Y-86278396D01*
X107300449Y-86260050D01*
X107300451Y-86260049D01*
X107305759Y-86258627D01*
X107318030Y-86252905D01*
X107507596Y-86164509D01*
X107507601Y-86164506D01*
X107512583Y-86162183D01*
X107544334Y-86139951D01*
X107585148Y-86111373D01*
X108882773Y-86111373D01*
X108892069Y-86123388D01*
X108942348Y-86158593D01*
X108951838Y-86164073D01*
X109148616Y-86255832D01*
X109158908Y-86259578D01*
X109368627Y-86315772D01*
X109379422Y-86317675D01*
X109595717Y-86336599D01*
X109606667Y-86336599D01*
X109822962Y-86317675D01*
X109833757Y-86315772D01*
X110043476Y-86259578D01*
X110053768Y-86255832D01*
X110250546Y-86164073D01*
X110260036Y-86158593D01*
X110311154Y-86122801D01*
X110319528Y-86112325D01*
X110312460Y-86098878D01*
X109614004Y-85400422D01*
X109600060Y-85392808D01*
X109598227Y-85392939D01*
X109591612Y-85397190D01*
X108889203Y-86099599D01*
X108882773Y-86111373D01*
X107585148Y-86111373D01*
X107695007Y-86034449D01*
X107695010Y-86034447D01*
X107699518Y-86031290D01*
X107860883Y-85869925D01*
X107991776Y-85682990D01*
X107994099Y-85678008D01*
X107994102Y-85678003D01*
X108085897Y-85481148D01*
X108085898Y-85481146D01*
X108088220Y-85476166D01*
X108089643Y-85470856D01*
X108089646Y-85470848D01*
X108108146Y-85401806D01*
X108145097Y-85341184D01*
X108208958Y-85310162D01*
X108279453Y-85318592D01*
X108334199Y-85363795D01*
X108351559Y-85401807D01*
X108370014Y-85470684D01*
X108373760Y-85480976D01*
X108465519Y-85677754D01*
X108470999Y-85687244D01*
X108506791Y-85738362D01*
X108517267Y-85746736D01*
X108530714Y-85739668D01*
X109229170Y-85041212D01*
X109235548Y-85029532D01*
X109965600Y-85029532D01*
X109965731Y-85031365D01*
X109969982Y-85037980D01*
X110672391Y-85740389D01*
X110684165Y-85746819D01*
X110696180Y-85737523D01*
X110731385Y-85687244D01*
X110736865Y-85677754D01*
X110828624Y-85480976D01*
X110832370Y-85470684D01*
X110888564Y-85260965D01*
X110890467Y-85250170D01*
X110909391Y-85033875D01*
X110909391Y-85022925D01*
X110890467Y-84806630D01*
X110888564Y-84795835D01*
X110832370Y-84586116D01*
X110828624Y-84575824D01*
X110736865Y-84379046D01*
X110731385Y-84369556D01*
X110695593Y-84318438D01*
X110685117Y-84310064D01*
X110671670Y-84317132D01*
X109973214Y-85015588D01*
X109965600Y-85029532D01*
X109235548Y-85029532D01*
X109236784Y-85027268D01*
X109236653Y-85025435D01*
X109232402Y-85018820D01*
X108529993Y-84316411D01*
X108518219Y-84309981D01*
X108506204Y-84319277D01*
X108470999Y-84369556D01*
X108465519Y-84379046D01*
X108373760Y-84575824D01*
X108370014Y-84586116D01*
X108351559Y-84654993D01*
X108314608Y-84715616D01*
X108250747Y-84746637D01*
X108180253Y-84738209D01*
X108125505Y-84693006D01*
X108108146Y-84654994D01*
X108089646Y-84585952D01*
X108089642Y-84585941D01*
X108088220Y-84580634D01*
X107994218Y-84379046D01*
X107994102Y-84378797D01*
X107994099Y-84378792D01*
X107991776Y-84373810D01*
X107947083Y-84309981D01*
X107864042Y-84191386D01*
X107864040Y-84191383D01*
X107860883Y-84186875D01*
X107699518Y-84025510D01*
X107695010Y-84022353D01*
X107695007Y-84022351D01*
X107583788Y-83944475D01*
X108882856Y-83944475D01*
X108889924Y-83957922D01*
X109588380Y-84656378D01*
X109602324Y-84663992D01*
X109604157Y-84663861D01*
X109610772Y-84659610D01*
X110056284Y-84214098D01*
X114789782Y-84214098D01*
X114796179Y-84225369D01*
X116649588Y-86078778D01*
X116663532Y-86086392D01*
X116665365Y-86086261D01*
X116671980Y-86082010D01*
X118527409Y-84226581D01*
X118534801Y-84213044D01*
X118528014Y-84203343D01*
X118433880Y-84122946D01*
X118428121Y-84118574D01*
X118154579Y-83934762D01*
X118148358Y-83931082D01*
X117855507Y-83779931D01*
X117848896Y-83776988D01*
X117540629Y-83660504D01*
X117533703Y-83658333D01*
X117214090Y-83578052D01*
X117206980Y-83576696D01*
X116880257Y-83533681D01*
X116873018Y-83533150D01*
X116543537Y-83527974D01*
X116536275Y-83528278D01*
X116208367Y-83561008D01*
X116201219Y-83562140D01*
X115879234Y-83632344D01*
X115872256Y-83634292D01*
X115560477Y-83741038D01*
X115553770Y-83743775D01*
X115256332Y-83885646D01*
X115249974Y-83889141D01*
X114970827Y-84064250D01*
X114964904Y-84068459D01*
X114798250Y-84201975D01*
X114789782Y-84214098D01*
X110056284Y-84214098D01*
X110313181Y-83957201D01*
X110319611Y-83945427D01*
X110310315Y-83933412D01*
X110260036Y-83898207D01*
X110250546Y-83892727D01*
X110053768Y-83800968D01*
X110043476Y-83797222D01*
X109833757Y-83741028D01*
X109822962Y-83739125D01*
X109606667Y-83720201D01*
X109595717Y-83720201D01*
X109379422Y-83739125D01*
X109368627Y-83741028D01*
X109158908Y-83797222D01*
X109148616Y-83800968D01*
X108951838Y-83892727D01*
X108942348Y-83898207D01*
X108891230Y-83933999D01*
X108882856Y-83944475D01*
X107583788Y-83944475D01*
X107517092Y-83897774D01*
X107517090Y-83897773D01*
X107512583Y-83894617D01*
X107507601Y-83892294D01*
X107507596Y-83892291D01*
X107310741Y-83800496D01*
X107310739Y-83800495D01*
X107305759Y-83798173D01*
X107300451Y-83796751D01*
X107300449Y-83796750D01*
X107216287Y-83774199D01*
X107085330Y-83739109D01*
X106857993Y-83719220D01*
X106630656Y-83739109D01*
X106499699Y-83774199D01*
X106415537Y-83796750D01*
X106415535Y-83796751D01*
X106410227Y-83798173D01*
X106405247Y-83800495D01*
X106405245Y-83800496D01*
X106208390Y-83892291D01*
X106208385Y-83892294D01*
X106203403Y-83894617D01*
X106198276Y-83898207D01*
X106169964Y-83918031D01*
X106102689Y-83940718D01*
X106033829Y-83923432D01*
X105985246Y-83871662D01*
X105971694Y-83814817D01*
X105971694Y-83476400D01*
X105991696Y-83408279D01*
X106008599Y-83387305D01*
X107892247Y-81503657D01*
X107900537Y-81496113D01*
X107907018Y-81492000D01*
X107953659Y-81442332D01*
X107956413Y-81439491D01*
X107976134Y-81419770D01*
X107978612Y-81416575D01*
X107986318Y-81407553D01*
X108011158Y-81381101D01*
X108016586Y-81375321D01*
X108026346Y-81357568D01*
X108037199Y-81341045D01*
X108044753Y-81331306D01*
X108049613Y-81325041D01*
X108067176Y-81284457D01*
X108072383Y-81273827D01*
X108093695Y-81235060D01*
X108095666Y-81227383D01*
X108095668Y-81227378D01*
X108098732Y-81215442D01*
X108105138Y-81196730D01*
X108110034Y-81185417D01*
X108113181Y-81178145D01*
X108120097Y-81134481D01*
X108122504Y-81122860D01*
X108131528Y-81087711D01*
X108131528Y-81087710D01*
X108133500Y-81080030D01*
X108133500Y-81059769D01*
X108135051Y-81040058D01*
X108136979Y-81027885D01*
X108138219Y-81020057D01*
X108134059Y-80976046D01*
X108133500Y-80964189D01*
X108133500Y-70000000D01*
X109086496Y-70000000D01*
X109106458Y-70189928D01*
X109165473Y-70371556D01*
X109168776Y-70377278D01*
X109168777Y-70377279D01*
X109180336Y-70397299D01*
X109260960Y-70536944D01*
X109265378Y-70541851D01*
X109265379Y-70541852D01*
X109347452Y-70633003D01*
X109388747Y-70678866D01*
X109473221Y-70740240D01*
X109515001Y-70770595D01*
X109543248Y-70791118D01*
X109549276Y-70793802D01*
X109549278Y-70793803D01*
X109711681Y-70866109D01*
X109717712Y-70868794D01*
X109799182Y-70886111D01*
X109898056Y-70907128D01*
X109898061Y-70907128D01*
X109904513Y-70908500D01*
X110095487Y-70908500D01*
X110101939Y-70907128D01*
X110101944Y-70907128D01*
X110200818Y-70886111D01*
X110282288Y-70868794D01*
X110288319Y-70866109D01*
X110450722Y-70793803D01*
X110450724Y-70793802D01*
X110456752Y-70791118D01*
X110485000Y-70770595D01*
X110604301Y-70683917D01*
X110611253Y-70678866D01*
X110615668Y-70673963D01*
X110620580Y-70669540D01*
X110621705Y-70670789D01*
X110675014Y-70637949D01*
X110708200Y-70633500D01*
X111921233Y-70633500D01*
X111932416Y-70634027D01*
X111939909Y-70635702D01*
X111947835Y-70635453D01*
X111947836Y-70635453D01*
X112007986Y-70633562D01*
X112011945Y-70633500D01*
X112039856Y-70633500D01*
X112043791Y-70633003D01*
X112043856Y-70632995D01*
X112055693Y-70632062D01*
X112087951Y-70631048D01*
X112091970Y-70630922D01*
X112099889Y-70630673D01*
X112119343Y-70625021D01*
X112138700Y-70621013D01*
X112150930Y-70619468D01*
X112150931Y-70619468D01*
X112158797Y-70618474D01*
X112166168Y-70615555D01*
X112166170Y-70615555D01*
X112199912Y-70602196D01*
X112211142Y-70598351D01*
X112245983Y-70588229D01*
X112245984Y-70588229D01*
X112253593Y-70586018D01*
X112260412Y-70581985D01*
X112260417Y-70581983D01*
X112271028Y-70575707D01*
X112288776Y-70567012D01*
X112307617Y-70559552D01*
X112343387Y-70533564D01*
X112353307Y-70527048D01*
X112384535Y-70508580D01*
X112384538Y-70508578D01*
X112391362Y-70504542D01*
X112405683Y-70490221D01*
X112420717Y-70477380D01*
X112437107Y-70465472D01*
X112465298Y-70431395D01*
X112473288Y-70422616D01*
X115650499Y-67245405D01*
X115712811Y-67211379D01*
X115739594Y-67208500D01*
X115795487Y-67208500D01*
X115801939Y-67207128D01*
X115801944Y-67207128D01*
X115888888Y-67188647D01*
X115982288Y-67168794D01*
X116002887Y-67159623D01*
X116150722Y-67093803D01*
X116150724Y-67093802D01*
X116156752Y-67091118D01*
X116311253Y-66978866D01*
X116439040Y-66836944D01*
X116534527Y-66671556D01*
X116593542Y-66489928D01*
X116600207Y-66426519D01*
X116612814Y-66306565D01*
X116613504Y-66300000D01*
X116601788Y-66188525D01*
X116594232Y-66116635D01*
X116594232Y-66116633D01*
X116593542Y-66110072D01*
X116534527Y-65928444D01*
X116439040Y-65763056D01*
X116352275Y-65666693D01*
X116315675Y-65626045D01*
X116315674Y-65626044D01*
X116311253Y-65621134D01*
X116156752Y-65508882D01*
X116150724Y-65506198D01*
X116150722Y-65506197D01*
X115988319Y-65433891D01*
X115988318Y-65433891D01*
X115982288Y-65431206D01*
X115888887Y-65411353D01*
X115801944Y-65392872D01*
X115801939Y-65392872D01*
X115795487Y-65391500D01*
X115604513Y-65391500D01*
X115598061Y-65392872D01*
X115598056Y-65392872D01*
X115511113Y-65411353D01*
X115417712Y-65431206D01*
X115411682Y-65433891D01*
X115411681Y-65433891D01*
X115249278Y-65506197D01*
X115249276Y-65506198D01*
X115243248Y-65508882D01*
X115088747Y-65621134D01*
X115084326Y-65626044D01*
X115084325Y-65626045D01*
X115047726Y-65666693D01*
X114960960Y-65763056D01*
X114865473Y-65928444D01*
X114806458Y-66110072D01*
X114805768Y-66116633D01*
X114805768Y-66116635D01*
X114798212Y-66188525D01*
X114790770Y-66259340D01*
X114789093Y-66275292D01*
X114762080Y-66340949D01*
X114752878Y-66351217D01*
X111774500Y-69329595D01*
X111712188Y-69363621D01*
X111685405Y-69366500D01*
X110708200Y-69366500D01*
X110640079Y-69346498D01*
X110620853Y-69330157D01*
X110620580Y-69330460D01*
X110615668Y-69326037D01*
X110611253Y-69321134D01*
X110456752Y-69208882D01*
X110450724Y-69206198D01*
X110450722Y-69206197D01*
X110288319Y-69133891D01*
X110288318Y-69133891D01*
X110282288Y-69131206D01*
X110188888Y-69111353D01*
X110101944Y-69092872D01*
X110101939Y-69092872D01*
X110095487Y-69091500D01*
X109904513Y-69091500D01*
X109898061Y-69092872D01*
X109898056Y-69092872D01*
X109811112Y-69111353D01*
X109717712Y-69131206D01*
X109711682Y-69133891D01*
X109711681Y-69133891D01*
X109549278Y-69206197D01*
X109549276Y-69206198D01*
X109543248Y-69208882D01*
X109388747Y-69321134D01*
X109384326Y-69326044D01*
X109384325Y-69326045D01*
X109350492Y-69363621D01*
X109260960Y-69463056D01*
X109165473Y-69628444D01*
X109106458Y-69810072D01*
X109105768Y-69816633D01*
X109105768Y-69816635D01*
X109089714Y-69969380D01*
X109086496Y-70000000D01*
X108133500Y-70000000D01*
X108133500Y-67778763D01*
X108134027Y-67767579D01*
X108135701Y-67760091D01*
X108133562Y-67692032D01*
X108133500Y-67688075D01*
X108133500Y-67660144D01*
X108132994Y-67656138D01*
X108132061Y-67644292D01*
X108130922Y-67608037D01*
X108130673Y-67600110D01*
X108125022Y-67580658D01*
X108121014Y-67561306D01*
X108119468Y-67549068D01*
X108119467Y-67549066D01*
X108118474Y-67541203D01*
X108102194Y-67500086D01*
X108098359Y-67488885D01*
X108086018Y-67446406D01*
X108081985Y-67439587D01*
X108081983Y-67439582D01*
X108075707Y-67428971D01*
X108067010Y-67411221D01*
X108059552Y-67392383D01*
X108033571Y-67356623D01*
X108027053Y-67346701D01*
X108008578Y-67315460D01*
X108008574Y-67315455D01*
X108004542Y-67308637D01*
X107990218Y-67294313D01*
X107977376Y-67279278D01*
X107965472Y-67262893D01*
X107931406Y-67234711D01*
X107922627Y-67226722D01*
X104803652Y-64107747D01*
X104796112Y-64099461D01*
X104792000Y-64092982D01*
X104742348Y-64046356D01*
X104739507Y-64043602D01*
X104719770Y-64023865D01*
X104716573Y-64021385D01*
X104707551Y-64013680D01*
X104681100Y-63988841D01*
X104675321Y-63983414D01*
X104668375Y-63979595D01*
X104668372Y-63979593D01*
X104657566Y-63973652D01*
X104641047Y-63962801D01*
X104640583Y-63962441D01*
X104625041Y-63950386D01*
X104617772Y-63947241D01*
X104617768Y-63947238D01*
X104584463Y-63932826D01*
X104573813Y-63927609D01*
X104535060Y-63906305D01*
X104515437Y-63901267D01*
X104496734Y-63894863D01*
X104485420Y-63889967D01*
X104485419Y-63889967D01*
X104478145Y-63886819D01*
X104470322Y-63885580D01*
X104470312Y-63885577D01*
X104434476Y-63879901D01*
X104422856Y-63877495D01*
X104387711Y-63868472D01*
X104387710Y-63868472D01*
X104380030Y-63866500D01*
X104359776Y-63866500D01*
X104340065Y-63864949D01*
X104327886Y-63863020D01*
X104320057Y-63861780D01*
X104312165Y-63862526D01*
X104276039Y-63865941D01*
X104264181Y-63866500D01*
X103519600Y-63866500D01*
X103451479Y-63846498D01*
X103404986Y-63792842D01*
X103393600Y-63740500D01*
X103393600Y-62871454D01*
X103387358Y-62792139D01*
X103337927Y-62607661D01*
X103251222Y-62437492D01*
X103131031Y-62289069D01*
X103061076Y-62232420D01*
X103020724Y-62174006D01*
X103018360Y-62103048D01*
X103054733Y-62042077D01*
X103118295Y-62010449D01*
X103140371Y-62008500D01*
X119265500Y-62008500D01*
X119333621Y-62028502D01*
G37*
%TD.AperFunction*%
%TA.AperFunction,Conductor*%
G36*
X87173525Y-65663501D02*
G01*
X87194500Y-65680404D01*
X92529595Y-71015499D01*
X92563621Y-71077811D01*
X92566500Y-71104594D01*
X92566500Y-78344191D01*
X92546498Y-78412312D01*
X92492842Y-78458805D01*
X92430615Y-78469803D01*
X92416035Y-78468656D01*
X92391102Y-78466693D01*
X92391095Y-78466693D01*
X92388646Y-78466500D01*
X91461354Y-78466500D01*
X91458907Y-78466693D01*
X91458896Y-78466693D01*
X91387794Y-78472289D01*
X91387793Y-78472289D01*
X91382039Y-78472742D01*
X91376464Y-78474236D01*
X91376463Y-78474236D01*
X91203935Y-78520465D01*
X91197561Y-78522173D01*
X91027392Y-78608878D01*
X90878969Y-78729069D01*
X90758778Y-78877492D01*
X90758764Y-78877481D01*
X90706793Y-78922080D01*
X90636472Y-78931847D01*
X90572033Y-78902045D01*
X90551886Y-78878794D01*
X90551222Y-78877492D01*
X90431031Y-78729069D01*
X90282608Y-78608878D01*
X90112439Y-78522173D01*
X90106065Y-78520465D01*
X89933537Y-78474236D01*
X89933536Y-78474236D01*
X89927961Y-78472742D01*
X89922207Y-78472289D01*
X89922206Y-78472289D01*
X89851104Y-78466693D01*
X89851093Y-78466693D01*
X89848646Y-78466500D01*
X88921354Y-78466500D01*
X88918905Y-78466693D01*
X88918898Y-78466693D01*
X88893399Y-78468700D01*
X88869385Y-78470590D01*
X88799906Y-78455994D01*
X88749346Y-78406151D01*
X88733500Y-78344978D01*
X88733500Y-68308763D01*
X88734027Y-68297579D01*
X88735701Y-68290091D01*
X88733562Y-68222032D01*
X88733500Y-68218075D01*
X88733500Y-68190144D01*
X88732994Y-68186138D01*
X88732061Y-68174292D01*
X88731020Y-68141139D01*
X88730673Y-68130110D01*
X88725022Y-68110658D01*
X88721014Y-68091306D01*
X88719468Y-68079068D01*
X88719467Y-68079066D01*
X88718474Y-68071203D01*
X88702194Y-68030086D01*
X88698359Y-68018885D01*
X88686018Y-67976406D01*
X88681985Y-67969587D01*
X88681983Y-67969582D01*
X88675707Y-67958971D01*
X88667010Y-67941221D01*
X88659552Y-67922383D01*
X88633571Y-67886623D01*
X88627053Y-67876701D01*
X88608578Y-67845460D01*
X88608574Y-67845455D01*
X88604542Y-67838637D01*
X88590218Y-67824313D01*
X88577376Y-67809278D01*
X88565472Y-67792893D01*
X88531406Y-67764711D01*
X88522627Y-67756722D01*
X86624500Y-65858595D01*
X86590474Y-65796283D01*
X86595539Y-65725468D01*
X86638086Y-65668632D01*
X86704606Y-65643821D01*
X86713595Y-65643500D01*
X87048026Y-65643499D01*
X87105405Y-65643499D01*
X87173525Y-65663501D01*
G37*
%TD.AperFunction*%
%TA.AperFunction,Conductor*%
G36*
X89713525Y-65663501D02*
G01*
X89734500Y-65680404D01*
X95209495Y-71155399D01*
X95243521Y-71217711D01*
X95246400Y-71244494D01*
X95246400Y-78372425D01*
X95226398Y-78440546D01*
X95172742Y-78487039D01*
X95102468Y-78497143D01*
X95087789Y-78494132D01*
X95086502Y-78493787D01*
X95037093Y-78480548D01*
X95013537Y-78474236D01*
X95013536Y-78474236D01*
X95007961Y-78472742D01*
X95002207Y-78472289D01*
X95002206Y-78472289D01*
X94931104Y-78466693D01*
X94931093Y-78466693D01*
X94928646Y-78466500D01*
X94001354Y-78466500D01*
X93998905Y-78466693D01*
X93998898Y-78466693D01*
X93979791Y-78468197D01*
X93969385Y-78469016D01*
X93899906Y-78454420D01*
X93849346Y-78404577D01*
X93833500Y-78343404D01*
X93833500Y-70868767D01*
X93834027Y-70857584D01*
X93835702Y-70850091D01*
X93833562Y-70782014D01*
X93833500Y-70778055D01*
X93833500Y-70750144D01*
X93832995Y-70746144D01*
X93832062Y-70734301D01*
X93831754Y-70724479D01*
X93830673Y-70690110D01*
X93825022Y-70670658D01*
X93821014Y-70651306D01*
X93819467Y-70639063D01*
X93818474Y-70631203D01*
X93815556Y-70623832D01*
X93802200Y-70590097D01*
X93798355Y-70578870D01*
X93791565Y-70555500D01*
X93786018Y-70536407D01*
X93781984Y-70529585D01*
X93781981Y-70529579D01*
X93775706Y-70518968D01*
X93767010Y-70501218D01*
X93762472Y-70489756D01*
X93762469Y-70489751D01*
X93759552Y-70482383D01*
X93740893Y-70456701D01*
X93733573Y-70446625D01*
X93727057Y-70436707D01*
X93716005Y-70418019D01*
X93704542Y-70398637D01*
X93690218Y-70384313D01*
X93677376Y-70369278D01*
X93665472Y-70352893D01*
X93631406Y-70324711D01*
X93622627Y-70316722D01*
X89164500Y-65858595D01*
X89130474Y-65796283D01*
X89135539Y-65725468D01*
X89178086Y-65668632D01*
X89244606Y-65643821D01*
X89253595Y-65643500D01*
X89588026Y-65643499D01*
X89645405Y-65643499D01*
X89713525Y-65663501D01*
G37*
%TD.AperFunction*%
%TA.AperFunction,Conductor*%
G36*
X92253525Y-65663501D02*
G01*
X92274500Y-65680404D01*
X97629595Y-71035499D01*
X97663621Y-71097811D01*
X97666500Y-71124594D01*
X97666500Y-78345765D01*
X97646498Y-78413886D01*
X97592842Y-78460379D01*
X97530615Y-78471377D01*
X97506846Y-78469506D01*
X97471102Y-78466693D01*
X97471095Y-78466693D01*
X97468646Y-78466500D01*
X96639400Y-78466500D01*
X96571279Y-78446498D01*
X96524786Y-78392842D01*
X96513400Y-78340500D01*
X96513400Y-71008668D01*
X96513927Y-70997485D01*
X96515602Y-70989992D01*
X96513462Y-70921901D01*
X96513400Y-70917944D01*
X96513400Y-70890044D01*
X96512896Y-70886053D01*
X96511963Y-70874211D01*
X96511709Y-70866109D01*
X96510574Y-70830011D01*
X96504921Y-70810552D01*
X96500912Y-70791193D01*
X96499503Y-70780042D01*
X96498374Y-70771103D01*
X96495458Y-70763737D01*
X96495456Y-70763731D01*
X96482100Y-70729998D01*
X96478255Y-70718768D01*
X96468130Y-70683917D01*
X96468130Y-70683916D01*
X96465919Y-70676307D01*
X96455605Y-70658866D01*
X96446908Y-70641113D01*
X96442372Y-70629658D01*
X96439452Y-70622283D01*
X96413463Y-70586512D01*
X96406947Y-70576592D01*
X96398098Y-70561629D01*
X96384442Y-70538538D01*
X96370121Y-70524217D01*
X96357280Y-70509183D01*
X96353908Y-70504542D01*
X96345372Y-70492793D01*
X96311295Y-70464602D01*
X96302516Y-70456612D01*
X91704500Y-65858595D01*
X91670474Y-65796283D01*
X91675539Y-65725468D01*
X91718086Y-65668632D01*
X91784606Y-65643821D01*
X91793595Y-65643500D01*
X92128026Y-65643499D01*
X92185405Y-65643499D01*
X92253525Y-65663501D01*
G37*
%TD.AperFunction*%
%TA.AperFunction,Conductor*%
G36*
X94463527Y-65663502D02*
G01*
X94484501Y-65680405D01*
X100129595Y-71325500D01*
X100163621Y-71387812D01*
X100166500Y-71414595D01*
X100166500Y-78342617D01*
X100146498Y-78410738D01*
X100092842Y-78457231D01*
X100030615Y-78468229D01*
X100024071Y-78467714D01*
X100011102Y-78466693D01*
X100011095Y-78466693D01*
X100008646Y-78466500D01*
X99081354Y-78466500D01*
X99078905Y-78466693D01*
X99078898Y-78466693D01*
X99072548Y-78467193D01*
X99069386Y-78467442D01*
X98999906Y-78452846D01*
X98949347Y-78403004D01*
X98933500Y-78341830D01*
X98933500Y-70888763D01*
X98934027Y-70877579D01*
X98935701Y-70870091D01*
X98933562Y-70802032D01*
X98933500Y-70798075D01*
X98933500Y-70770144D01*
X98932994Y-70766138D01*
X98932061Y-70754292D01*
X98930922Y-70718037D01*
X98930673Y-70710110D01*
X98925022Y-70690658D01*
X98921014Y-70671306D01*
X98919468Y-70659068D01*
X98919467Y-70659066D01*
X98918474Y-70651203D01*
X98902194Y-70610086D01*
X98898359Y-70598885D01*
X98886018Y-70556406D01*
X98881985Y-70549587D01*
X98881983Y-70549582D01*
X98875707Y-70538971D01*
X98867010Y-70521221D01*
X98859552Y-70502383D01*
X98852585Y-70492793D01*
X98833572Y-70466625D01*
X98827053Y-70456701D01*
X98808578Y-70425460D01*
X98808574Y-70425455D01*
X98804542Y-70418637D01*
X98790218Y-70404313D01*
X98777376Y-70389278D01*
X98773769Y-70384313D01*
X98765472Y-70372893D01*
X98731406Y-70344711D01*
X98722627Y-70336722D01*
X94244500Y-65858595D01*
X94210474Y-65796283D01*
X94215539Y-65725468D01*
X94258086Y-65668632D01*
X94324606Y-65643821D01*
X94333595Y-65643500D01*
X94395406Y-65643500D01*
X94463527Y-65663502D01*
G37*
%TD.AperFunction*%
%TA.AperFunction,Conductor*%
G36*
X84633525Y-65663501D02*
G01*
X84654500Y-65680404D01*
X87429595Y-68455499D01*
X87463621Y-68517811D01*
X87466500Y-68544594D01*
X87466500Y-78342617D01*
X87446498Y-78410738D01*
X87392842Y-78457231D01*
X87330615Y-78468229D01*
X87324071Y-78467714D01*
X87311102Y-78466693D01*
X87311095Y-78466693D01*
X87308646Y-78466500D01*
X86381354Y-78466500D01*
X86378905Y-78466693D01*
X86378898Y-78466693D01*
X86372548Y-78467193D01*
X86369386Y-78467442D01*
X86299906Y-78452846D01*
X86249347Y-78403004D01*
X86233500Y-78341830D01*
X86233500Y-68348767D01*
X86234027Y-68337584D01*
X86235702Y-68330091D01*
X86233562Y-68262014D01*
X86233500Y-68258055D01*
X86233500Y-68230144D01*
X86232995Y-68226144D01*
X86232062Y-68214301D01*
X86230922Y-68178030D01*
X86230673Y-68170111D01*
X86225021Y-68150657D01*
X86221013Y-68131300D01*
X86219468Y-68119070D01*
X86219468Y-68119069D01*
X86218474Y-68111203D01*
X86214489Y-68101137D01*
X86202196Y-68070088D01*
X86198351Y-68058858D01*
X86188229Y-68024017D01*
X86188229Y-68024016D01*
X86186018Y-68016407D01*
X86181985Y-68009588D01*
X86181983Y-68009583D01*
X86175707Y-67998972D01*
X86167012Y-67981224D01*
X86159552Y-67962383D01*
X86133564Y-67926613D01*
X86127048Y-67916693D01*
X86108580Y-67885465D01*
X86108578Y-67885462D01*
X86104542Y-67878638D01*
X86090221Y-67864317D01*
X86077380Y-67849283D01*
X86065472Y-67832893D01*
X86031395Y-67804702D01*
X86022616Y-67796712D01*
X85057130Y-66831226D01*
X84084498Y-65858593D01*
X84050473Y-65796283D01*
X84055538Y-65725468D01*
X84098085Y-65668632D01*
X84164605Y-65643821D01*
X84173594Y-65643500D01*
X84508026Y-65643499D01*
X84565405Y-65643499D01*
X84633525Y-65663501D01*
G37*
%TD.AperFunction*%
%TD*%
M02*
