%TF.GenerationSoftware,KiCad,Pcbnew,(6.0.7-1)-1*%
%TF.CreationDate,2023-01-15T20:24:14-08:00*%
%TF.ProjectId,NeoGeoDB15Wireless,4e656f47-656f-4444-9231-35576972656c,rev?*%
%TF.SameCoordinates,Original*%
%TF.FileFunction,Soldermask,Bot*%
%TF.FilePolarity,Negative*%
%FSLAX46Y46*%
G04 Gerber Fmt 4.6, Leading zero omitted, Abs format (unit mm)*
G04 Created by KiCad (PCBNEW (6.0.7-1)-1) date 2023-01-15 20:24:14*
%MOMM*%
%LPD*%
G01*
G04 APERTURE LIST*
G04 Aperture macros list*
%AMRoundRect*
0 Rectangle with rounded corners*
0 $1 Rounding radius*
0 $2 $3 $4 $5 $6 $7 $8 $9 X,Y pos of 4 corners*
0 Add a 4 corners polygon primitive as box body*
4,1,4,$2,$3,$4,$5,$6,$7,$8,$9,$2,$3,0*
0 Add four circle primitives for the rounded corners*
1,1,$1+$1,$2,$3*
1,1,$1+$1,$4,$5*
1,1,$1+$1,$6,$7*
1,1,$1+$1,$8,$9*
0 Add four rect primitives between the rounded corners*
20,1,$1+$1,$2,$3,$4,$5,0*
20,1,$1+$1,$4,$5,$6,$7,0*
20,1,$1+$1,$6,$7,$8,$9,0*
20,1,$1+$1,$8,$9,$2,$3,0*%
G04 Aperture macros list end*
%ADD10RoundRect,0.237500X-0.237500X0.300000X-0.237500X-0.300000X0.237500X-0.300000X0.237500X0.300000X0*%
%ADD11RoundRect,0.237500X0.237500X-0.300000X0.237500X0.300000X-0.237500X0.300000X-0.237500X-0.300000X0*%
%ADD12RoundRect,0.400000X0.400000X-0.900000X0.400000X0.900000X-0.400000X0.900000X-0.400000X-0.900000X0*%
%ADD13RoundRect,0.400050X0.400050X-0.899950X0.400050X0.899950X-0.400050X0.899950X-0.400050X-0.899950X0*%
%ADD14RoundRect,0.400000X0.900000X-0.400000X0.900000X0.400000X-0.900000X0.400000X-0.900000X-0.400000X0*%
%ADD15RoundRect,0.393700X0.906300X-0.393700X0.906300X0.393700X-0.906300X0.393700X-0.906300X-0.393700X0*%
%ADD16C,4.825000*%
%ADD17C,1.591397*%
%ADD18R,1.000000X2.000000*%
G04 APERTURE END LIST*
D10*
%TO.C,C2*%
X91900000Y-66737500D03*
X91900000Y-68462500D03*
%TD*%
D11*
%TO.C,C1*%
X91900000Y-76862500D03*
X91900000Y-75137500D03*
%TD*%
D12*
%TO.C,U1*%
X81765000Y-63835000D03*
X84305000Y-63835000D03*
X86845000Y-63835000D03*
X89385000Y-63835000D03*
X91925000Y-63835000D03*
D13*
X94465000Y-63835000D03*
X97005000Y-63835000D03*
X99545000Y-63835000D03*
X102085000Y-63835000D03*
D14*
X102895000Y-66975000D03*
D15*
X102895000Y-69515000D03*
X102895000Y-72055000D03*
X102895000Y-74595000D03*
X102895000Y-77135000D03*
D13*
X102085000Y-80275000D03*
X99545000Y-80275000D03*
X97005000Y-80275000D03*
X94465000Y-80275000D03*
X81765000Y-80275000D03*
X84305000Y-80275000D03*
X86845000Y-80275000D03*
X91925000Y-80275000D03*
X89385000Y-80275000D03*
%TD*%
D16*
%TO.C,J1*%
X116662400Y-86450800D03*
X83337600Y-86450800D03*
D17*
X109601192Y-85028400D03*
X106857993Y-85028400D03*
X104114794Y-85028400D03*
X101371595Y-85028400D03*
X98628396Y-85028400D03*
X95885197Y-85028400D03*
X93141998Y-85028400D03*
X90398799Y-85028400D03*
X108229600Y-87873200D03*
X105486401Y-87873200D03*
X102743202Y-87873200D03*
X100000003Y-87873200D03*
X97256804Y-87873200D03*
X94513605Y-87873200D03*
X91770406Y-87873200D03*
%TD*%
D18*
%TO.C,U2*%
X109370000Y-63800000D03*
X108100000Y-63800000D03*
X110640000Y-63800000D03*
X111910000Y-63800000D03*
X113180000Y-63800000D03*
X114450000Y-63800000D03*
X115720000Y-63800000D03*
X116990000Y-63800000D03*
%TD*%
M02*
