%TF.GenerationSoftware,KiCad,Pcbnew,(6.0.7-1)-1*%
%TF.CreationDate,2023-01-15T20:24:14-08:00*%
%TF.ProjectId,NeoGeoDB15Wireless,4e656f47-656f-4444-9231-35576972656c,rev?*%
%TF.SameCoordinates,Original*%
%TF.FileFunction,Legend,Bot*%
%TF.FilePolarity,Positive*%
%FSLAX46Y46*%
G04 Gerber Fmt 4.6, Leading zero omitted, Abs format (unit mm)*
G04 Created by KiCad (PCBNEW (6.0.7-1)-1) date 2023-01-15 20:24:14*
%MOMM*%
%LPD*%
G01*
G04 APERTURE LIST*
%ADD10C,0.150000*%
%ADD11C,0.120000*%
G04 APERTURE END LIST*
D10*
X118500000Y-62250000D02*
X106500000Y-62250000D01*
X106500000Y-62250000D02*
X106500000Y-81750000D01*
X106500000Y-81750000D02*
X118500000Y-81750000D01*
X118500000Y-81750000D02*
X118500000Y-62250000D01*
%TO.C,C2*%
X93957142Y-67433333D02*
X94004761Y-67385714D01*
X94052380Y-67242857D01*
X94052380Y-67147619D01*
X94004761Y-67004761D01*
X93909523Y-66909523D01*
X93814285Y-66861904D01*
X93623809Y-66814285D01*
X93480952Y-66814285D01*
X93290476Y-66861904D01*
X93195238Y-66909523D01*
X93100000Y-67004761D01*
X93052380Y-67147619D01*
X93052380Y-67242857D01*
X93100000Y-67385714D01*
X93147619Y-67433333D01*
X93147619Y-67814285D02*
X93100000Y-67861904D01*
X93052380Y-67957142D01*
X93052380Y-68195238D01*
X93100000Y-68290476D01*
X93147619Y-68338095D01*
X93242857Y-68385714D01*
X93338095Y-68385714D01*
X93480952Y-68338095D01*
X94052380Y-67766666D01*
X94052380Y-68385714D01*
%TO.C,C1*%
X93957142Y-75833333D02*
X94004761Y-75785714D01*
X94052380Y-75642857D01*
X94052380Y-75547619D01*
X94004761Y-75404761D01*
X93909523Y-75309523D01*
X93814285Y-75261904D01*
X93623809Y-75214285D01*
X93480952Y-75214285D01*
X93290476Y-75261904D01*
X93195238Y-75309523D01*
X93100000Y-75404761D01*
X93052380Y-75547619D01*
X93052380Y-75642857D01*
X93100000Y-75785714D01*
X93147619Y-75833333D01*
X94052380Y-76785714D02*
X94052380Y-76214285D01*
X94052380Y-76500000D02*
X93052380Y-76500000D01*
X93195238Y-76404761D01*
X93290476Y-76309523D01*
X93338095Y-76214285D01*
%TO.C,U2*%
X108976190Y-79797619D02*
X108976190Y-80797619D01*
X109547619Y-79797619D01*
X109547619Y-80797619D01*
X110595238Y-79797619D02*
X110261904Y-80273809D01*
X110023809Y-79797619D02*
X110023809Y-80797619D01*
X110404761Y-80797619D01*
X110500000Y-80750000D01*
X110547619Y-80702380D01*
X110595238Y-80607142D01*
X110595238Y-80464285D01*
X110547619Y-80369047D01*
X110500000Y-80321428D01*
X110404761Y-80273809D01*
X110023809Y-80273809D01*
X111357142Y-80321428D02*
X111023809Y-80321428D01*
X111023809Y-79797619D02*
X111023809Y-80797619D01*
X111500000Y-80797619D01*
X111833333Y-80702380D02*
X111880952Y-80750000D01*
X111976190Y-80797619D01*
X112214285Y-80797619D01*
X112309523Y-80750000D01*
X112357142Y-80702380D01*
X112404761Y-80607142D01*
X112404761Y-80511904D01*
X112357142Y-80369047D01*
X111785714Y-79797619D01*
X112404761Y-79797619D01*
X113261904Y-80464285D02*
X113261904Y-79797619D01*
X113023809Y-80845238D02*
X112785714Y-80130952D01*
X113404761Y-80130952D01*
X114261904Y-79797619D02*
X113785714Y-79797619D01*
X113785714Y-80797619D01*
X114785714Y-80797619D02*
X114880952Y-80797619D01*
X114976190Y-80750000D01*
X115023809Y-80702380D01*
X115071428Y-80607142D01*
X115119047Y-80416666D01*
X115119047Y-80178571D01*
X115071428Y-79988095D01*
X115023809Y-79892857D01*
X114976190Y-79845238D01*
X114880952Y-79797619D01*
X114785714Y-79797619D01*
X114690476Y-79845238D01*
X114642857Y-79892857D01*
X114595238Y-79988095D01*
X114547619Y-80178571D01*
X114547619Y-80416666D01*
X114595238Y-80607142D01*
X114642857Y-80702380D01*
X114690476Y-80750000D01*
X114785714Y-80797619D01*
X116071428Y-79797619D02*
X115500000Y-79797619D01*
X115785714Y-79797619D02*
X115785714Y-80797619D01*
X115690476Y-80654761D01*
X115595238Y-80559523D01*
X115500000Y-80511904D01*
D11*
%TO.C,C2*%
X91390000Y-67453733D02*
X91390000Y-67746267D01*
X92410000Y-67453733D02*
X92410000Y-67746267D01*
%TO.C,C1*%
X92410000Y-76146267D02*
X92410000Y-75853733D01*
X91390000Y-76146267D02*
X91390000Y-75853733D01*
%TD*%
M02*
