%TF.GenerationSoftware,KiCad,Pcbnew,(6.0.7-1)-1*%
%TF.CreationDate,2023-02-22T21:50:02-08:00*%
%TF.ProjectId,NeoGeoDB15Wireless,4e656f47-656f-4444-9231-35576972656c,2*%
%TF.SameCoordinates,Original*%
%TF.FileFunction,Legend,Bot*%
%TF.FilePolarity,Positive*%
%FSLAX46Y46*%
G04 Gerber Fmt 4.6, Leading zero omitted, Abs format (unit mm)*
G04 Created by KiCad (PCBNEW (6.0.7-1)-1) date 2023-02-22 21:50:02*
%MOMM*%
%LPD*%
G01*
G04 APERTURE LIST*
%ADD10C,0.150000*%
%ADD11C,0.120000*%
G04 APERTURE END LIST*
D10*
X118500000Y-62250000D02*
X106500000Y-62250000D01*
X106500000Y-62250000D02*
X106500000Y-81750000D01*
X106500000Y-81750000D02*
X118500000Y-81750000D01*
X118500000Y-81750000D02*
X118500000Y-62250000D01*
%TO.C,U2*%
X108976190Y-79797619D02*
X108976190Y-80797619D01*
X109547619Y-79797619D01*
X109547619Y-80797619D01*
X110595238Y-79797619D02*
X110261904Y-80273809D01*
X110023809Y-79797619D02*
X110023809Y-80797619D01*
X110404761Y-80797619D01*
X110500000Y-80750000D01*
X110547619Y-80702380D01*
X110595238Y-80607142D01*
X110595238Y-80464285D01*
X110547619Y-80369047D01*
X110500000Y-80321428D01*
X110404761Y-80273809D01*
X110023809Y-80273809D01*
X111357142Y-80321428D02*
X111023809Y-80321428D01*
X111023809Y-79797619D02*
X111023809Y-80797619D01*
X111500000Y-80797619D01*
X111833333Y-80702380D02*
X111880952Y-80750000D01*
X111976190Y-80797619D01*
X112214285Y-80797619D01*
X112309523Y-80750000D01*
X112357142Y-80702380D01*
X112404761Y-80607142D01*
X112404761Y-80511904D01*
X112357142Y-80369047D01*
X111785714Y-79797619D01*
X112404761Y-79797619D01*
X113261904Y-80464285D02*
X113261904Y-79797619D01*
X113023809Y-80845238D02*
X112785714Y-80130952D01*
X113404761Y-80130952D01*
X114261904Y-79797619D02*
X113785714Y-79797619D01*
X113785714Y-80797619D01*
X114785714Y-80797619D02*
X114880952Y-80797619D01*
X114976190Y-80750000D01*
X115023809Y-80702380D01*
X115071428Y-80607142D01*
X115119047Y-80416666D01*
X115119047Y-80178571D01*
X115071428Y-79988095D01*
X115023809Y-79892857D01*
X114976190Y-79845238D01*
X114880952Y-79797619D01*
X114785714Y-79797619D01*
X114690476Y-79845238D01*
X114642857Y-79892857D01*
X114595238Y-79988095D01*
X114547619Y-80178571D01*
X114547619Y-80416666D01*
X114595238Y-80607142D01*
X114642857Y-80702380D01*
X114690476Y-80750000D01*
X114785714Y-80797619D01*
X116071428Y-79797619D02*
X115500000Y-79797619D01*
X115785714Y-79797619D02*
X115785714Y-80797619D01*
X115690476Y-80654761D01*
X115595238Y-80559523D01*
X115500000Y-80511904D01*
%TO.C,C2*%
X105857142Y-67733333D02*
X105904761Y-67685714D01*
X105952380Y-67542857D01*
X105952380Y-67447619D01*
X105904761Y-67304761D01*
X105809523Y-67209523D01*
X105714285Y-67161904D01*
X105523809Y-67114285D01*
X105380952Y-67114285D01*
X105190476Y-67161904D01*
X105095238Y-67209523D01*
X105000000Y-67304761D01*
X104952380Y-67447619D01*
X104952380Y-67542857D01*
X105000000Y-67685714D01*
X105047619Y-67733333D01*
X105047619Y-68114285D02*
X105000000Y-68161904D01*
X104952380Y-68257142D01*
X104952380Y-68495238D01*
X105000000Y-68590476D01*
X105047619Y-68638095D01*
X105142857Y-68685714D01*
X105238095Y-68685714D01*
X105380952Y-68638095D01*
X105952380Y-68066666D01*
X105952380Y-68685714D01*
%TO.C,C1*%
X86257142Y-83733333D02*
X86304761Y-83685714D01*
X86352380Y-83542857D01*
X86352380Y-83447619D01*
X86304761Y-83304761D01*
X86209523Y-83209523D01*
X86114285Y-83161904D01*
X85923809Y-83114285D01*
X85780952Y-83114285D01*
X85590476Y-83161904D01*
X85495238Y-83209523D01*
X85400000Y-83304761D01*
X85352380Y-83447619D01*
X85352380Y-83542857D01*
X85400000Y-83685714D01*
X85447619Y-83733333D01*
X86352380Y-84685714D02*
X86352380Y-84114285D01*
X86352380Y-84400000D02*
X85352380Y-84400000D01*
X85495238Y-84304761D01*
X85590476Y-84209523D01*
X85638095Y-84114285D01*
D11*
%TO.C,C2*%
X105910000Y-64553733D02*
X105910000Y-64846267D01*
X104890000Y-64553733D02*
X104890000Y-64846267D01*
%TO.C,C1*%
X87090000Y-83753733D02*
X87090000Y-84046267D01*
X88110000Y-83753733D02*
X88110000Y-84046267D01*
%TD*%
M02*
