%TF.GenerationSoftware,KiCad,Pcbnew,(6.0.7-1)-1*%
%TF.CreationDate,2023-02-22T21:50:02-08:00*%
%TF.ProjectId,NeoGeoDB15Wireless,4e656f47-656f-4444-9231-35576972656c,2*%
%TF.SameCoordinates,Original*%
%TF.FileFunction,Copper,L2,Bot*%
%TF.FilePolarity,Positive*%
%FSLAX46Y46*%
G04 Gerber Fmt 4.6, Leading zero omitted, Abs format (unit mm)*
G04 Created by KiCad (PCBNEW (6.0.7-1)-1) date 2023-02-22 21:50:02*
%MOMM*%
%LPD*%
G01*
G04 APERTURE LIST*
G04 Aperture macros list*
%AMRoundRect*
0 Rectangle with rounded corners*
0 $1 Rounding radius*
0 $2 $3 $4 $5 $6 $7 $8 $9 X,Y pos of 4 corners*
0 Add a 4 corners polygon primitive as box body*
4,1,4,$2,$3,$4,$5,$6,$7,$8,$9,$2,$3,0*
0 Add four circle primitives for the rounded corners*
1,1,$1+$1,$2,$3*
1,1,$1+$1,$4,$5*
1,1,$1+$1,$6,$7*
1,1,$1+$1,$8,$9*
0 Add four rect primitives between the rounded corners*
20,1,$1+$1,$2,$3,$4,$5,0*
20,1,$1+$1,$4,$5,$6,$7,0*
20,1,$1+$1,$6,$7,$8,$9,0*
20,1,$1+$1,$8,$9,$2,$3,0*%
G04 Aperture macros list end*
%TA.AperFunction,ComponentPad*%
%ADD10RoundRect,0.400000X0.400000X-0.900000X0.400000X0.900000X-0.400000X0.900000X-0.400000X-0.900000X0*%
%TD*%
%TA.AperFunction,ComponentPad*%
%ADD11RoundRect,0.400050X0.400050X-0.899950X0.400050X0.899950X-0.400050X0.899950X-0.400050X-0.899950X0*%
%TD*%
%TA.AperFunction,ComponentPad*%
%ADD12RoundRect,0.400000X0.900000X-0.400000X0.900000X0.400000X-0.900000X0.400000X-0.900000X-0.400000X0*%
%TD*%
%TA.AperFunction,ComponentPad*%
%ADD13RoundRect,0.393700X0.906300X-0.393700X0.906300X0.393700X-0.906300X0.393700X-0.906300X-0.393700X0*%
%TD*%
%TA.AperFunction,ComponentPad*%
%ADD14C,4.825000*%
%TD*%
%TA.AperFunction,ComponentPad*%
%ADD15C,1.591397*%
%TD*%
%TA.AperFunction,SMDPad,CuDef*%
%ADD16R,1.000000X2.000000*%
%TD*%
%TA.AperFunction,SMDPad,CuDef*%
%ADD17RoundRect,0.237500X-0.237500X0.300000X-0.237500X-0.300000X0.237500X-0.300000X0.237500X0.300000X0*%
%TD*%
%TA.AperFunction,ViaPad*%
%ADD18C,0.800000*%
%TD*%
%TA.AperFunction,Conductor*%
%ADD19C,0.250000*%
%TD*%
%TA.AperFunction,Conductor*%
%ADD20C,0.400000*%
%TD*%
G04 APERTURE END LIST*
D10*
%TO.P,U1,1,GP0*%
%TO.N,/DU*%
X81765000Y-63835000D03*
%TO.P,U1,2,GP1*%
%TO.N,/DD*%
X84305000Y-63835000D03*
%TO.P,U1,3,GP2*%
%TO.N,/DL*%
X86845000Y-63835000D03*
%TO.P,U1,4,GP3*%
%TO.N,/DR*%
X89385000Y-63835000D03*
%TO.P,U1,5,GP4*%
%TO.N,/BA*%
X91925000Y-63835000D03*
D11*
%TO.P,U1,6,GP5*%
%TO.N,/BB*%
X94465000Y-63835000D03*
%TO.P,U1,7,GP6*%
%TO.N,/BC*%
X97005000Y-63835000D03*
%TO.P,U1,8,GP7*%
%TO.N,/BD*%
X99545000Y-63835000D03*
%TO.P,U1,9,GP8*%
%TO.N,/STA*%
X102085000Y-63835000D03*
D12*
%TO.P,U1,10,GP9*%
%TO.N,/SEL*%
X102895000Y-66975000D03*
D13*
%TO.P,U1,11,GP10*%
%TO.N,unconnected-(U1-Pad11)*%
X102895000Y-69515000D03*
%TO.P,U1,12,GP11*%
%TO.N,unconnected-(U1-Pad12)*%
X102895000Y-72055000D03*
%TO.P,U1,13,GP12*%
%TO.N,/MISO*%
X102895000Y-74595000D03*
%TO.P,U1,14,GP13*%
%TO.N,/CS*%
X102895000Y-77135000D03*
D11*
%TO.P,U1,15,GP14*%
%TO.N,/SCK*%
X102085000Y-80275000D03*
%TO.P,U1,16,GP15*%
%TO.N,/MOSI*%
X99545000Y-80275000D03*
%TO.P,U1,17,GP26*%
%TO.N,/CE*%
X97005000Y-80275000D03*
%TO.P,U1,18,GP27*%
%TO.N,/IRQ*%
X94465000Y-80275000D03*
%TO.P,U1,19,GP28*%
%TO.N,unconnected-(U1-Pad19)*%
X91925000Y-80275000D03*
%TO.P,U1,20,GP29*%
%TO.N,unconnected-(U1-Pad20)*%
X89385000Y-80275000D03*
%TO.P,U1,21,3V3*%
%TO.N,/3V3*%
X86845000Y-80275000D03*
%TO.P,U1,22,GND*%
%TO.N,GND*%
X84305000Y-80275000D03*
%TO.P,U1,23,5V*%
%TO.N,/VCC*%
X81765000Y-80275000D03*
%TD*%
D14*
%TO.P,J1,0,PAD*%
%TO.N,GND*%
X116662400Y-86450800D03*
X83337600Y-86450800D03*
D15*
%TO.P,J1,1,1*%
X109601192Y-85028400D03*
%TO.P,J1,2,2*%
%TO.N,unconnected-(J1-Pad2)*%
X106857993Y-85028400D03*
%TO.P,J1,3,3*%
%TO.N,/SEL*%
X104114794Y-85028400D03*
%TO.P,J1,4,4*%
%TO.N,/BD*%
X101371595Y-85028400D03*
%TO.P,J1,5,5*%
%TO.N,/BB*%
X98628396Y-85028400D03*
%TO.P,J1,6,6*%
%TO.N,/DR*%
X95885197Y-85028400D03*
%TO.P,J1,7,7*%
%TO.N,/DD*%
X93141998Y-85028400D03*
%TO.P,J1,8,8*%
%TO.N,/VCC*%
X90398799Y-85028400D03*
%TO.P,J1,9,P9*%
%TO.N,unconnected-(J1-Pad9)*%
X108229600Y-87873200D03*
%TO.P,J1,10,P10*%
%TO.N,unconnected-(J1-Pad10)*%
X105486401Y-87873200D03*
%TO.P,J1,11,P111*%
%TO.N,/STA*%
X102743202Y-87873200D03*
%TO.P,J1,12,P12*%
%TO.N,/BC*%
X100000003Y-87873200D03*
%TO.P,J1,13,P13*%
%TO.N,/BA*%
X97256804Y-87873200D03*
%TO.P,J1,14,P14*%
%TO.N,/DL*%
X94513605Y-87873200D03*
%TO.P,J1,15,P15*%
%TO.N,/DU*%
X91770406Y-87873200D03*
%TD*%
D16*
%TO.P,U2,1,GND*%
%TO.N,GND*%
X109370000Y-63800000D03*
%TO.P,U2,2,VCC*%
%TO.N,/3V3*%
X108100000Y-63800000D03*
%TO.P,U2,3,CE*%
%TO.N,/CE*%
X110640000Y-63800000D03*
%TO.P,U2,4,~{CSN}*%
%TO.N,/CS*%
X111910000Y-63800000D03*
%TO.P,U2,5,SCK*%
%TO.N,/SCK*%
X113180000Y-63800000D03*
%TO.P,U2,6,MOSI*%
%TO.N,/MOSI*%
X114450000Y-63800000D03*
%TO.P,U2,7,MISO*%
%TO.N,/MISO*%
X115720000Y-63800000D03*
%TO.P,U2,8,IRQ*%
%TO.N,/IRQ*%
X116990000Y-63800000D03*
%TD*%
D17*
%TO.P,C2,1*%
%TO.N,/3V3*%
X105400000Y-63837500D03*
%TO.P,C2,2*%
%TO.N,GND*%
X105400000Y-65562500D03*
%TD*%
%TO.P,C1,1*%
%TO.N,/VCC*%
X87600000Y-83037500D03*
%TO.P,C1,2*%
%TO.N,GND*%
X87600000Y-84762500D03*
%TD*%
D18*
%TO.N,GND*%
X99500000Y-71800000D03*
%TO.N,/MISO*%
X110000000Y-70000000D03*
X115700000Y-66300000D03*
%TO.N,GND*%
X115700000Y-74700000D03*
X82900000Y-74600000D03*
X86900000Y-74600000D03*
X97100000Y-73100000D03*
X87500000Y-90100000D03*
X108500000Y-66300000D03*
X100000000Y-90100000D03*
X113100000Y-75200000D03*
X110000000Y-74400000D03*
X112600000Y-90100000D03*
X89600000Y-74600000D03*
X94500000Y-74600000D03*
%TD*%
D19*
%TO.N,/MISO*%
X115700000Y-66300000D02*
X115720000Y-66280000D01*
X115720000Y-66280000D02*
X115720000Y-63800000D01*
D20*
%TO.N,/VCC*%
X88370399Y-83000000D02*
X90398799Y-85028400D01*
X84000000Y-83000000D02*
X88370399Y-83000000D01*
X81765000Y-79675000D02*
X82000000Y-79910000D01*
X82000000Y-81000000D02*
X84000000Y-83000000D01*
X82000000Y-79910000D02*
X82000000Y-81000000D01*
D19*
%TO.N,/MISO*%
X102295000Y-74595000D02*
X105405000Y-74595000D01*
X105405000Y-74595000D02*
X110000000Y-70000000D01*
%TO.N,/CS*%
X111910000Y-63800000D02*
X111910000Y-70590000D01*
X111910000Y-70590000D02*
X105365000Y-77135000D01*
X105365000Y-77135000D02*
X102295000Y-77135000D01*
%TO.N,/SCK*%
X102660000Y-80250000D02*
X102085000Y-79675000D01*
X113180000Y-73070000D02*
X106000000Y-80250000D01*
X106000000Y-80250000D02*
X102660000Y-80250000D01*
X113180000Y-63800000D02*
X113180000Y-73070000D01*
%TO.N,/MOSI*%
X99545000Y-80795000D02*
X99545000Y-79675000D01*
X109500000Y-82500000D02*
X101250000Y-82500000D01*
X114500000Y-77500000D02*
X109500000Y-82500000D01*
X101250000Y-82500000D02*
X99545000Y-80795000D01*
X114500000Y-63850000D02*
X114500000Y-77500000D01*
X114450000Y-63800000D02*
X114500000Y-63850000D01*
%TO.N,/CE*%
X110640000Y-67160000D02*
X104500000Y-73300000D01*
X101300000Y-73300000D02*
X97005000Y-77595000D01*
X97005000Y-77595000D02*
X97005000Y-79675000D01*
X110640000Y-63800000D02*
X110640000Y-67160000D01*
X104500000Y-73300000D02*
X101300000Y-73300000D01*
%TO.N,/IRQ*%
X116990000Y-63800000D02*
X116990000Y-77510000D01*
X116990000Y-77510000D02*
X111250000Y-83250000D01*
X94465000Y-80465000D02*
X94465000Y-79675000D01*
X97250000Y-83250000D02*
X94465000Y-80465000D01*
X111250000Y-83250000D02*
X97250000Y-83250000D01*
D20*
%TO.N,/3V3*%
X101600000Y-65600000D02*
X103600000Y-65600000D01*
X86845000Y-79675000D02*
X88920000Y-77600000D01*
X105400000Y-63837500D02*
X108062500Y-63837500D01*
X100900000Y-66300000D02*
X101600000Y-65600000D01*
X103600000Y-65600000D02*
X105362500Y-63837500D01*
X88920000Y-77600000D02*
X95600000Y-77600000D01*
X100900000Y-72300000D02*
X100900000Y-66300000D01*
X108062500Y-63837500D02*
X108100000Y-63800000D01*
X95600000Y-77600000D02*
X100900000Y-72300000D01*
X105362500Y-63837500D02*
X105400000Y-63837500D01*
%TD*%
%TA.AperFunction,Conductor*%
%TO.N,GND*%
G36*
X119333621Y-62028502D02*
G01*
X119380114Y-62082158D01*
X119391500Y-62134500D01*
X119391500Y-84865473D01*
X119371498Y-84933594D01*
X119317842Y-84980087D01*
X119247568Y-84990191D01*
X119182988Y-84960697D01*
X119156052Y-84927901D01*
X119117679Y-84860626D01*
X119113747Y-84854571D01*
X118918642Y-84588969D01*
X118914252Y-84583663D01*
X118900661Y-84575581D01*
X118900056Y-84575602D01*
X118891574Y-84580836D01*
X117034422Y-86437988D01*
X117026808Y-86451932D01*
X117026939Y-86453765D01*
X117031190Y-86460380D01*
X118886547Y-88315737D01*
X118899901Y-88323029D01*
X118909874Y-88315974D01*
X119008675Y-88197808D01*
X119012991Y-88191997D01*
X119160188Y-87967910D01*
X119214306Y-87921956D01*
X119284677Y-87912555D01*
X119348960Y-87942692D01*
X119386745Y-88002799D01*
X119391500Y-88037087D01*
X119391500Y-92865500D01*
X119371498Y-92933621D01*
X119317842Y-92980114D01*
X119265500Y-92991500D01*
X80634500Y-92991500D01*
X80566379Y-92971498D01*
X80519886Y-92917842D01*
X80508500Y-92865500D01*
X80508500Y-88690537D01*
X81463403Y-88690537D01*
X81463421Y-88690788D01*
X81469337Y-88699535D01*
X81493873Y-88721860D01*
X81499497Y-88726415D01*
X81767115Y-88918718D01*
X81773246Y-88922608D01*
X82061183Y-89082872D01*
X82067703Y-89086024D01*
X82372162Y-89212135D01*
X82379013Y-89214521D01*
X82695932Y-89304798D01*
X82703021Y-89306382D01*
X83028226Y-89359637D01*
X83035434Y-89360394D01*
X83364608Y-89375918D01*
X83371858Y-89375842D01*
X83700624Y-89353429D01*
X83707834Y-89352518D01*
X84031852Y-89292465D01*
X84038882Y-89290738D01*
X84353852Y-89193841D01*
X84360664Y-89191307D01*
X84662403Y-89058853D01*
X84668858Y-89055564D01*
X84953379Y-88889304D01*
X84959428Y-88885285D01*
X85203931Y-88701707D01*
X85212385Y-88690380D01*
X85205640Y-88678050D01*
X83350412Y-86822822D01*
X83336468Y-86815208D01*
X83334635Y-86815339D01*
X83328020Y-86819590D01*
X81471017Y-88676593D01*
X81463403Y-88690537D01*
X80508500Y-88690537D01*
X80508500Y-87856335D01*
X80528502Y-87788214D01*
X80582158Y-87741721D01*
X80652432Y-87731617D01*
X80717012Y-87761111D01*
X80745855Y-87797376D01*
X80833581Y-87963063D01*
X80837327Y-87969248D01*
X81023985Y-88240835D01*
X81028430Y-88246565D01*
X81088362Y-88315267D01*
X81101534Y-88323671D01*
X81111389Y-88317801D01*
X82965578Y-86463612D01*
X82971956Y-86451932D01*
X83702008Y-86451932D01*
X83702139Y-86453765D01*
X83706390Y-86460380D01*
X85561747Y-88315737D01*
X85575101Y-88323029D01*
X85585074Y-88315974D01*
X85683875Y-88197808D01*
X85688191Y-88191997D01*
X85869126Y-87916550D01*
X85872740Y-87910288D01*
X85891393Y-87873200D01*
X90461226Y-87873200D01*
X90481115Y-88100537D01*
X90540179Y-88320966D01*
X90542501Y-88325946D01*
X90542502Y-88325948D01*
X90634297Y-88522803D01*
X90634300Y-88522808D01*
X90636623Y-88527790D01*
X90639779Y-88532297D01*
X90639780Y-88532299D01*
X90758401Y-88701707D01*
X90767516Y-88714725D01*
X90928881Y-88876090D01*
X90933389Y-88879247D01*
X90933392Y-88879249D01*
X91111307Y-89003826D01*
X91115816Y-89006983D01*
X91120798Y-89009306D01*
X91120803Y-89009309D01*
X91285319Y-89086024D01*
X91322640Y-89103427D01*
X91327948Y-89104849D01*
X91327950Y-89104850D01*
X91396419Y-89123196D01*
X91543069Y-89162491D01*
X91770406Y-89182380D01*
X91997743Y-89162491D01*
X92144393Y-89123196D01*
X92212862Y-89104850D01*
X92212864Y-89104849D01*
X92218172Y-89103427D01*
X92255493Y-89086024D01*
X92420009Y-89009309D01*
X92420014Y-89009306D01*
X92424996Y-89006983D01*
X92429505Y-89003826D01*
X92607420Y-88879249D01*
X92607423Y-88879247D01*
X92611931Y-88876090D01*
X92773296Y-88714725D01*
X92782412Y-88701707D01*
X92901032Y-88532299D01*
X92901033Y-88532297D01*
X92904189Y-88527790D01*
X92906512Y-88522808D01*
X92906515Y-88522803D01*
X92998310Y-88325948D01*
X92998311Y-88325946D01*
X93000633Y-88320966D01*
X93002056Y-88315656D01*
X93002059Y-88315648D01*
X93020300Y-88247573D01*
X93057252Y-88186950D01*
X93121112Y-88155929D01*
X93191607Y-88164359D01*
X93246353Y-88209562D01*
X93263712Y-88247572D01*
X93283378Y-88320966D01*
X93285700Y-88325946D01*
X93285701Y-88325948D01*
X93377496Y-88522803D01*
X93377499Y-88522808D01*
X93379822Y-88527790D01*
X93382978Y-88532297D01*
X93382979Y-88532299D01*
X93501600Y-88701707D01*
X93510715Y-88714725D01*
X93672080Y-88876090D01*
X93676588Y-88879247D01*
X93676591Y-88879249D01*
X93854506Y-89003826D01*
X93859015Y-89006983D01*
X93863997Y-89009306D01*
X93864002Y-89009309D01*
X94028518Y-89086024D01*
X94065839Y-89103427D01*
X94071147Y-89104849D01*
X94071149Y-89104850D01*
X94139618Y-89123196D01*
X94286268Y-89162491D01*
X94513605Y-89182380D01*
X94740942Y-89162491D01*
X94887592Y-89123196D01*
X94956061Y-89104850D01*
X94956063Y-89104849D01*
X94961371Y-89103427D01*
X94998692Y-89086024D01*
X95163208Y-89009309D01*
X95163213Y-89009306D01*
X95168195Y-89006983D01*
X95172704Y-89003826D01*
X95350619Y-88879249D01*
X95350622Y-88879247D01*
X95355130Y-88876090D01*
X95516495Y-88714725D01*
X95525611Y-88701707D01*
X95644231Y-88532299D01*
X95644232Y-88532297D01*
X95647388Y-88527790D01*
X95649711Y-88522808D01*
X95649714Y-88522803D01*
X95741509Y-88325948D01*
X95741510Y-88325946D01*
X95743832Y-88320966D01*
X95745255Y-88315656D01*
X95745258Y-88315648D01*
X95763499Y-88247573D01*
X95800451Y-88186950D01*
X95864311Y-88155929D01*
X95934806Y-88164359D01*
X95989552Y-88209562D01*
X96006911Y-88247572D01*
X96026577Y-88320966D01*
X96028899Y-88325946D01*
X96028900Y-88325948D01*
X96120695Y-88522803D01*
X96120698Y-88522808D01*
X96123021Y-88527790D01*
X96126177Y-88532297D01*
X96126178Y-88532299D01*
X96244799Y-88701707D01*
X96253914Y-88714725D01*
X96415279Y-88876090D01*
X96419787Y-88879247D01*
X96419790Y-88879249D01*
X96597705Y-89003826D01*
X96602214Y-89006983D01*
X96607196Y-89009306D01*
X96607201Y-89009309D01*
X96771717Y-89086024D01*
X96809038Y-89103427D01*
X96814346Y-89104849D01*
X96814348Y-89104850D01*
X96882817Y-89123196D01*
X97029467Y-89162491D01*
X97256804Y-89182380D01*
X97484141Y-89162491D01*
X97630791Y-89123196D01*
X97699260Y-89104850D01*
X97699262Y-89104849D01*
X97704570Y-89103427D01*
X97741891Y-89086024D01*
X97906407Y-89009309D01*
X97906412Y-89009306D01*
X97911394Y-89006983D01*
X97915903Y-89003826D01*
X98093818Y-88879249D01*
X98093821Y-88879247D01*
X98098329Y-88876090D01*
X98259694Y-88714725D01*
X98268810Y-88701707D01*
X98387430Y-88532299D01*
X98387431Y-88532297D01*
X98390587Y-88527790D01*
X98392910Y-88522808D01*
X98392913Y-88522803D01*
X98484708Y-88325948D01*
X98484709Y-88325946D01*
X98487031Y-88320966D01*
X98488454Y-88315656D01*
X98488457Y-88315648D01*
X98506698Y-88247573D01*
X98543650Y-88186950D01*
X98607510Y-88155929D01*
X98678005Y-88164359D01*
X98732751Y-88209562D01*
X98750110Y-88247572D01*
X98769776Y-88320966D01*
X98772098Y-88325946D01*
X98772099Y-88325948D01*
X98863894Y-88522803D01*
X98863897Y-88522808D01*
X98866220Y-88527790D01*
X98869376Y-88532297D01*
X98869377Y-88532299D01*
X98987998Y-88701707D01*
X98997113Y-88714725D01*
X99158478Y-88876090D01*
X99162986Y-88879247D01*
X99162989Y-88879249D01*
X99340904Y-89003826D01*
X99345413Y-89006983D01*
X99350395Y-89009306D01*
X99350400Y-89009309D01*
X99514916Y-89086024D01*
X99552237Y-89103427D01*
X99557545Y-89104849D01*
X99557547Y-89104850D01*
X99626016Y-89123196D01*
X99772666Y-89162491D01*
X100000003Y-89182380D01*
X100227340Y-89162491D01*
X100373990Y-89123196D01*
X100442459Y-89104850D01*
X100442461Y-89104849D01*
X100447769Y-89103427D01*
X100485090Y-89086024D01*
X100649606Y-89009309D01*
X100649611Y-89009306D01*
X100654593Y-89006983D01*
X100659102Y-89003826D01*
X100837017Y-88879249D01*
X100837020Y-88879247D01*
X100841528Y-88876090D01*
X101002893Y-88714725D01*
X101012009Y-88701707D01*
X101130629Y-88532299D01*
X101130630Y-88532297D01*
X101133786Y-88527790D01*
X101136109Y-88522808D01*
X101136112Y-88522803D01*
X101227907Y-88325948D01*
X101227908Y-88325946D01*
X101230230Y-88320966D01*
X101231653Y-88315656D01*
X101231656Y-88315648D01*
X101249897Y-88247573D01*
X101286849Y-88186950D01*
X101350709Y-88155929D01*
X101421204Y-88164359D01*
X101475950Y-88209562D01*
X101493309Y-88247572D01*
X101512975Y-88320966D01*
X101515297Y-88325946D01*
X101515298Y-88325948D01*
X101607093Y-88522803D01*
X101607096Y-88522808D01*
X101609419Y-88527790D01*
X101612575Y-88532297D01*
X101612576Y-88532299D01*
X101731197Y-88701707D01*
X101740312Y-88714725D01*
X101901677Y-88876090D01*
X101906185Y-88879247D01*
X101906188Y-88879249D01*
X102084103Y-89003826D01*
X102088612Y-89006983D01*
X102093594Y-89009306D01*
X102093599Y-89009309D01*
X102258115Y-89086024D01*
X102295436Y-89103427D01*
X102300744Y-89104849D01*
X102300746Y-89104850D01*
X102369215Y-89123196D01*
X102515865Y-89162491D01*
X102743202Y-89182380D01*
X102970539Y-89162491D01*
X103117189Y-89123196D01*
X103185658Y-89104850D01*
X103185660Y-89104849D01*
X103190968Y-89103427D01*
X103228289Y-89086024D01*
X103392805Y-89009309D01*
X103392810Y-89009306D01*
X103397792Y-89006983D01*
X103402301Y-89003826D01*
X103580216Y-88879249D01*
X103580219Y-88879247D01*
X103584727Y-88876090D01*
X103746092Y-88714725D01*
X103755208Y-88701707D01*
X103873828Y-88532299D01*
X103873829Y-88532297D01*
X103876985Y-88527790D01*
X103879308Y-88522808D01*
X103879311Y-88522803D01*
X103971106Y-88325948D01*
X103971107Y-88325946D01*
X103973429Y-88320966D01*
X103974852Y-88315656D01*
X103974855Y-88315648D01*
X103993096Y-88247573D01*
X104030048Y-88186950D01*
X104093908Y-88155929D01*
X104164403Y-88164359D01*
X104219149Y-88209562D01*
X104236508Y-88247572D01*
X104256174Y-88320966D01*
X104258496Y-88325946D01*
X104258497Y-88325948D01*
X104350292Y-88522803D01*
X104350295Y-88522808D01*
X104352618Y-88527790D01*
X104355774Y-88532297D01*
X104355775Y-88532299D01*
X104474396Y-88701707D01*
X104483511Y-88714725D01*
X104644876Y-88876090D01*
X104649384Y-88879247D01*
X104649387Y-88879249D01*
X104827302Y-89003826D01*
X104831811Y-89006983D01*
X104836793Y-89009306D01*
X104836798Y-89009309D01*
X105001314Y-89086024D01*
X105038635Y-89103427D01*
X105043943Y-89104849D01*
X105043945Y-89104850D01*
X105112414Y-89123196D01*
X105259064Y-89162491D01*
X105486401Y-89182380D01*
X105713738Y-89162491D01*
X105860388Y-89123196D01*
X105928857Y-89104850D01*
X105928859Y-89104849D01*
X105934167Y-89103427D01*
X105971488Y-89086024D01*
X106136004Y-89009309D01*
X106136009Y-89009306D01*
X106140991Y-89006983D01*
X106145500Y-89003826D01*
X106323415Y-88879249D01*
X106323418Y-88879247D01*
X106327926Y-88876090D01*
X106489291Y-88714725D01*
X106498407Y-88701707D01*
X106617027Y-88532299D01*
X106617028Y-88532297D01*
X106620184Y-88527790D01*
X106622507Y-88522808D01*
X106622510Y-88522803D01*
X106714305Y-88325948D01*
X106714306Y-88325946D01*
X106716628Y-88320966D01*
X106718051Y-88315656D01*
X106718054Y-88315648D01*
X106736295Y-88247573D01*
X106773247Y-88186950D01*
X106837107Y-88155929D01*
X106907602Y-88164359D01*
X106962348Y-88209562D01*
X106979707Y-88247572D01*
X106999373Y-88320966D01*
X107001695Y-88325946D01*
X107001696Y-88325948D01*
X107093491Y-88522803D01*
X107093494Y-88522808D01*
X107095817Y-88527790D01*
X107098973Y-88532297D01*
X107098974Y-88532299D01*
X107217595Y-88701707D01*
X107226710Y-88714725D01*
X107388075Y-88876090D01*
X107392583Y-88879247D01*
X107392586Y-88879249D01*
X107570501Y-89003826D01*
X107575010Y-89006983D01*
X107579992Y-89009306D01*
X107579997Y-89009309D01*
X107744513Y-89086024D01*
X107781834Y-89103427D01*
X107787142Y-89104849D01*
X107787144Y-89104850D01*
X107855613Y-89123196D01*
X108002263Y-89162491D01*
X108229600Y-89182380D01*
X108456937Y-89162491D01*
X108603587Y-89123196D01*
X108672056Y-89104850D01*
X108672058Y-89104849D01*
X108677366Y-89103427D01*
X108714687Y-89086024D01*
X108879203Y-89009309D01*
X108879208Y-89009306D01*
X108884190Y-89006983D01*
X108888699Y-89003826D01*
X109066614Y-88879249D01*
X109066617Y-88879247D01*
X109071125Y-88876090D01*
X109232490Y-88714725D01*
X109241606Y-88701707D01*
X109249427Y-88690537D01*
X114788203Y-88690537D01*
X114788221Y-88690788D01*
X114794137Y-88699535D01*
X114818673Y-88721860D01*
X114824297Y-88726415D01*
X115091915Y-88918718D01*
X115098046Y-88922608D01*
X115385983Y-89082872D01*
X115392503Y-89086024D01*
X115696962Y-89212135D01*
X115703813Y-89214521D01*
X116020732Y-89304798D01*
X116027821Y-89306382D01*
X116353026Y-89359637D01*
X116360234Y-89360394D01*
X116689408Y-89375918D01*
X116696658Y-89375842D01*
X117025424Y-89353429D01*
X117032634Y-89352518D01*
X117356652Y-89292465D01*
X117363682Y-89290738D01*
X117678652Y-89193841D01*
X117685464Y-89191307D01*
X117987203Y-89058853D01*
X117993658Y-89055564D01*
X118278179Y-88889304D01*
X118284228Y-88885285D01*
X118528731Y-88701707D01*
X118537185Y-88690380D01*
X118530440Y-88678050D01*
X116675212Y-86822822D01*
X116661268Y-86815208D01*
X116659435Y-86815339D01*
X116652820Y-86819590D01*
X114795817Y-88676593D01*
X114788203Y-88690537D01*
X109249427Y-88690537D01*
X109360226Y-88532299D01*
X109360227Y-88532297D01*
X109363383Y-88527790D01*
X109365706Y-88522808D01*
X109365709Y-88522803D01*
X109457504Y-88325948D01*
X109457505Y-88325946D01*
X109459827Y-88320966D01*
X109518891Y-88100537D01*
X109538780Y-87873200D01*
X109518891Y-87645863D01*
X109459827Y-87425434D01*
X109428472Y-87358193D01*
X109365709Y-87223597D01*
X109365706Y-87223592D01*
X109363383Y-87218610D01*
X109232490Y-87031675D01*
X109071125Y-86870310D01*
X109066617Y-86867153D01*
X109066614Y-86867151D01*
X108888699Y-86742574D01*
X108888697Y-86742573D01*
X108884190Y-86739417D01*
X108879208Y-86737094D01*
X108879203Y-86737091D01*
X108682348Y-86645296D01*
X108682346Y-86645295D01*
X108677366Y-86642973D01*
X108672058Y-86641551D01*
X108672056Y-86641550D01*
X108603587Y-86623204D01*
X108456937Y-86583909D01*
X108229600Y-86564020D01*
X108002263Y-86583909D01*
X107855613Y-86623204D01*
X107787144Y-86641550D01*
X107787142Y-86641551D01*
X107781834Y-86642973D01*
X107776854Y-86645295D01*
X107776852Y-86645296D01*
X107579997Y-86737091D01*
X107579992Y-86737094D01*
X107575010Y-86739417D01*
X107570503Y-86742573D01*
X107570501Y-86742574D01*
X107392586Y-86867151D01*
X107392583Y-86867153D01*
X107388075Y-86870310D01*
X107226710Y-87031675D01*
X107095817Y-87218610D01*
X107093494Y-87223592D01*
X107093491Y-87223597D01*
X107030728Y-87358193D01*
X106999373Y-87425434D01*
X106997951Y-87430742D01*
X106997950Y-87430744D01*
X106979708Y-87498826D01*
X106942757Y-87559449D01*
X106878896Y-87590470D01*
X106808402Y-87582042D01*
X106753654Y-87536839D01*
X106736295Y-87498827D01*
X106718054Y-87430752D01*
X106718050Y-87430741D01*
X106716628Y-87425434D01*
X106685273Y-87358193D01*
X106622510Y-87223597D01*
X106622507Y-87223592D01*
X106620184Y-87218610D01*
X106489291Y-87031675D01*
X106327926Y-86870310D01*
X106323418Y-86867153D01*
X106323415Y-86867151D01*
X106145500Y-86742574D01*
X106145498Y-86742573D01*
X106140991Y-86739417D01*
X106136009Y-86737094D01*
X106136004Y-86737091D01*
X105939149Y-86645296D01*
X105939147Y-86645295D01*
X105934167Y-86642973D01*
X105928859Y-86641551D01*
X105928857Y-86641550D01*
X105860388Y-86623204D01*
X105713738Y-86583909D01*
X105486401Y-86564020D01*
X105259064Y-86583909D01*
X105112414Y-86623204D01*
X105043945Y-86641550D01*
X105043943Y-86641551D01*
X105038635Y-86642973D01*
X105033655Y-86645295D01*
X105033653Y-86645296D01*
X104836798Y-86737091D01*
X104836793Y-86737094D01*
X104831811Y-86739417D01*
X104827304Y-86742573D01*
X104827302Y-86742574D01*
X104649387Y-86867151D01*
X104649384Y-86867153D01*
X104644876Y-86870310D01*
X104483511Y-87031675D01*
X104352618Y-87218610D01*
X104350295Y-87223592D01*
X104350292Y-87223597D01*
X104287529Y-87358193D01*
X104256174Y-87425434D01*
X104254752Y-87430742D01*
X104254751Y-87430744D01*
X104236509Y-87498826D01*
X104199558Y-87559449D01*
X104135697Y-87590470D01*
X104065203Y-87582042D01*
X104010455Y-87536839D01*
X103993096Y-87498827D01*
X103974855Y-87430752D01*
X103974851Y-87430741D01*
X103973429Y-87425434D01*
X103942074Y-87358193D01*
X103879311Y-87223597D01*
X103879308Y-87223592D01*
X103876985Y-87218610D01*
X103746092Y-87031675D01*
X103584727Y-86870310D01*
X103580219Y-86867153D01*
X103580216Y-86867151D01*
X103402301Y-86742574D01*
X103402299Y-86742573D01*
X103397792Y-86739417D01*
X103392810Y-86737094D01*
X103392805Y-86737091D01*
X103195950Y-86645296D01*
X103195948Y-86645295D01*
X103190968Y-86642973D01*
X103185660Y-86641551D01*
X103185658Y-86641550D01*
X103117189Y-86623204D01*
X102970539Y-86583909D01*
X102743202Y-86564020D01*
X102515865Y-86583909D01*
X102369215Y-86623204D01*
X102300746Y-86641550D01*
X102300744Y-86641551D01*
X102295436Y-86642973D01*
X102290456Y-86645295D01*
X102290454Y-86645296D01*
X102093599Y-86737091D01*
X102093594Y-86737094D01*
X102088612Y-86739417D01*
X102084105Y-86742573D01*
X102084103Y-86742574D01*
X101906188Y-86867151D01*
X101906185Y-86867153D01*
X101901677Y-86870310D01*
X101740312Y-87031675D01*
X101609419Y-87218610D01*
X101607096Y-87223592D01*
X101607093Y-87223597D01*
X101544330Y-87358193D01*
X101512975Y-87425434D01*
X101511553Y-87430742D01*
X101511552Y-87430744D01*
X101493310Y-87498826D01*
X101456359Y-87559449D01*
X101392498Y-87590470D01*
X101322004Y-87582042D01*
X101267256Y-87536839D01*
X101249897Y-87498827D01*
X101231656Y-87430752D01*
X101231652Y-87430741D01*
X101230230Y-87425434D01*
X101198875Y-87358193D01*
X101136112Y-87223597D01*
X101136109Y-87223592D01*
X101133786Y-87218610D01*
X101002893Y-87031675D01*
X100841528Y-86870310D01*
X100837020Y-86867153D01*
X100837017Y-86867151D01*
X100659102Y-86742574D01*
X100659100Y-86742573D01*
X100654593Y-86739417D01*
X100649611Y-86737094D01*
X100649606Y-86737091D01*
X100452751Y-86645296D01*
X100452749Y-86645295D01*
X100447769Y-86642973D01*
X100442461Y-86641551D01*
X100442459Y-86641550D01*
X100373990Y-86623204D01*
X100227340Y-86583909D01*
X100000003Y-86564020D01*
X99772666Y-86583909D01*
X99626016Y-86623204D01*
X99557547Y-86641550D01*
X99557545Y-86641551D01*
X99552237Y-86642973D01*
X99547257Y-86645295D01*
X99547255Y-86645296D01*
X99350400Y-86737091D01*
X99350395Y-86737094D01*
X99345413Y-86739417D01*
X99340906Y-86742573D01*
X99340904Y-86742574D01*
X99162989Y-86867151D01*
X99162986Y-86867153D01*
X99158478Y-86870310D01*
X98997113Y-87031675D01*
X98866220Y-87218610D01*
X98863897Y-87223592D01*
X98863894Y-87223597D01*
X98801131Y-87358193D01*
X98769776Y-87425434D01*
X98768354Y-87430742D01*
X98768353Y-87430744D01*
X98750111Y-87498826D01*
X98713160Y-87559449D01*
X98649299Y-87590470D01*
X98578805Y-87582042D01*
X98524057Y-87536839D01*
X98506698Y-87498827D01*
X98488457Y-87430752D01*
X98488453Y-87430741D01*
X98487031Y-87425434D01*
X98455676Y-87358193D01*
X98392913Y-87223597D01*
X98392910Y-87223592D01*
X98390587Y-87218610D01*
X98259694Y-87031675D01*
X98098329Y-86870310D01*
X98093821Y-86867153D01*
X98093818Y-86867151D01*
X97915903Y-86742574D01*
X97915901Y-86742573D01*
X97911394Y-86739417D01*
X97906412Y-86737094D01*
X97906407Y-86737091D01*
X97709552Y-86645296D01*
X97709550Y-86645295D01*
X97704570Y-86642973D01*
X97699262Y-86641551D01*
X97699260Y-86641550D01*
X97630791Y-86623204D01*
X97484141Y-86583909D01*
X97256804Y-86564020D01*
X97029467Y-86583909D01*
X96882817Y-86623204D01*
X96814348Y-86641550D01*
X96814346Y-86641551D01*
X96809038Y-86642973D01*
X96804058Y-86645295D01*
X96804056Y-86645296D01*
X96607201Y-86737091D01*
X96607196Y-86737094D01*
X96602214Y-86739417D01*
X96597707Y-86742573D01*
X96597705Y-86742574D01*
X96419790Y-86867151D01*
X96419787Y-86867153D01*
X96415279Y-86870310D01*
X96253914Y-87031675D01*
X96123021Y-87218610D01*
X96120698Y-87223592D01*
X96120695Y-87223597D01*
X96057932Y-87358193D01*
X96026577Y-87425434D01*
X96025155Y-87430742D01*
X96025154Y-87430744D01*
X96006912Y-87498826D01*
X95969961Y-87559449D01*
X95906100Y-87590470D01*
X95835606Y-87582042D01*
X95780858Y-87536839D01*
X95763499Y-87498827D01*
X95745258Y-87430752D01*
X95745254Y-87430741D01*
X95743832Y-87425434D01*
X95712477Y-87358193D01*
X95649714Y-87223597D01*
X95649711Y-87223592D01*
X95647388Y-87218610D01*
X95516495Y-87031675D01*
X95355130Y-86870310D01*
X95350622Y-86867153D01*
X95350619Y-86867151D01*
X95172704Y-86742574D01*
X95172702Y-86742573D01*
X95168195Y-86739417D01*
X95163213Y-86737094D01*
X95163208Y-86737091D01*
X94966353Y-86645296D01*
X94966351Y-86645295D01*
X94961371Y-86642973D01*
X94956063Y-86641551D01*
X94956061Y-86641550D01*
X94887592Y-86623204D01*
X94740942Y-86583909D01*
X94513605Y-86564020D01*
X94286268Y-86583909D01*
X94139618Y-86623204D01*
X94071149Y-86641550D01*
X94071147Y-86641551D01*
X94065839Y-86642973D01*
X94060859Y-86645295D01*
X94060857Y-86645296D01*
X93864002Y-86737091D01*
X93863997Y-86737094D01*
X93859015Y-86739417D01*
X93854508Y-86742573D01*
X93854506Y-86742574D01*
X93676591Y-86867151D01*
X93676588Y-86867153D01*
X93672080Y-86870310D01*
X93510715Y-87031675D01*
X93379822Y-87218610D01*
X93377499Y-87223592D01*
X93377496Y-87223597D01*
X93314733Y-87358193D01*
X93283378Y-87425434D01*
X93281956Y-87430742D01*
X93281955Y-87430744D01*
X93263713Y-87498826D01*
X93226762Y-87559449D01*
X93162901Y-87590470D01*
X93092407Y-87582042D01*
X93037659Y-87536839D01*
X93020300Y-87498827D01*
X93002059Y-87430752D01*
X93002055Y-87430741D01*
X93000633Y-87425434D01*
X92969278Y-87358193D01*
X92906515Y-87223597D01*
X92906512Y-87223592D01*
X92904189Y-87218610D01*
X92773296Y-87031675D01*
X92611931Y-86870310D01*
X92607423Y-86867153D01*
X92607420Y-86867151D01*
X92429505Y-86742574D01*
X92429503Y-86742573D01*
X92424996Y-86739417D01*
X92420014Y-86737094D01*
X92420009Y-86737091D01*
X92223154Y-86645296D01*
X92223152Y-86645295D01*
X92218172Y-86642973D01*
X92212864Y-86641551D01*
X92212862Y-86641550D01*
X92144393Y-86623204D01*
X91997743Y-86583909D01*
X91770406Y-86564020D01*
X91543069Y-86583909D01*
X91396419Y-86623204D01*
X91327950Y-86641550D01*
X91327948Y-86641551D01*
X91322640Y-86642973D01*
X91317660Y-86645295D01*
X91317658Y-86645296D01*
X91120803Y-86737091D01*
X91120798Y-86737094D01*
X91115816Y-86739417D01*
X91111309Y-86742573D01*
X91111307Y-86742574D01*
X90933392Y-86867151D01*
X90933389Y-86867153D01*
X90928881Y-86870310D01*
X90767516Y-87031675D01*
X90636623Y-87218610D01*
X90634300Y-87223592D01*
X90634297Y-87223597D01*
X90571534Y-87358193D01*
X90540179Y-87425434D01*
X90481115Y-87645863D01*
X90461226Y-87873200D01*
X85891393Y-87873200D01*
X86020817Y-87615872D01*
X86023689Y-87609234D01*
X86136941Y-87299759D01*
X86139037Y-87292818D01*
X86215967Y-86972381D01*
X86217251Y-86965242D01*
X86256940Y-86637269D01*
X86257364Y-86631699D01*
X86262961Y-86453597D01*
X86262888Y-86448004D01*
X86257960Y-86362541D01*
X113738490Y-86362541D01*
X113747116Y-86691970D01*
X113747722Y-86699186D01*
X113794155Y-87025438D01*
X113795589Y-87032549D01*
X113879214Y-87351310D01*
X113881451Y-87358193D01*
X114001155Y-87665219D01*
X114004175Y-87671817D01*
X114158381Y-87963063D01*
X114162127Y-87969248D01*
X114348785Y-88240835D01*
X114353230Y-88246565D01*
X114413162Y-88315267D01*
X114426334Y-88323671D01*
X114436189Y-88317801D01*
X116290378Y-86463612D01*
X116297992Y-86449668D01*
X116297861Y-86447835D01*
X116293610Y-86441220D01*
X114437100Y-84584710D01*
X114424307Y-84577724D01*
X114413554Y-84585588D01*
X114262410Y-84778350D01*
X114258276Y-84784299D01*
X114086090Y-85065280D01*
X114082660Y-85071676D01*
X113943917Y-85370572D01*
X113941246Y-85377317D01*
X113837772Y-85690192D01*
X113835896Y-85697196D01*
X113769072Y-86019877D01*
X113768010Y-86027069D01*
X113738718Y-86355287D01*
X113738490Y-86362541D01*
X86257960Y-86362541D01*
X86243870Y-86118177D01*
X86243038Y-86110988D01*
X86186379Y-85786344D01*
X86184724Y-85779289D01*
X86091131Y-85463324D01*
X86088673Y-85456495D01*
X85959382Y-85153379D01*
X85956165Y-85146896D01*
X85934416Y-85108766D01*
X86617000Y-85108766D01*
X86617337Y-85115282D01*
X86627075Y-85209132D01*
X86629968Y-85222528D01*
X86680488Y-85373953D01*
X86686653Y-85387115D01*
X86770426Y-85522492D01*
X86779460Y-85533890D01*
X86892129Y-85646363D01*
X86903540Y-85655375D01*
X87039063Y-85738912D01*
X87052241Y-85745056D01*
X87203766Y-85795315D01*
X87217132Y-85798181D01*
X87309770Y-85807672D01*
X87316185Y-85808000D01*
X87327885Y-85808000D01*
X87343124Y-85803525D01*
X87344329Y-85802135D01*
X87346000Y-85794452D01*
X87346000Y-85789884D01*
X87854000Y-85789884D01*
X87858475Y-85805124D01*
X87859865Y-85806329D01*
X87867548Y-85808000D01*
X87883766Y-85808000D01*
X87890282Y-85807663D01*
X87984132Y-85797925D01*
X87997528Y-85795032D01*
X88148953Y-85744512D01*
X88162115Y-85738347D01*
X88297492Y-85654574D01*
X88308890Y-85645540D01*
X88421363Y-85532871D01*
X88430375Y-85521460D01*
X88513912Y-85385937D01*
X88520056Y-85372759D01*
X88570315Y-85221234D01*
X88573181Y-85207868D01*
X88582672Y-85115230D01*
X88583000Y-85108815D01*
X88583000Y-85034615D01*
X88578525Y-85019376D01*
X88577135Y-85018171D01*
X88569452Y-85016500D01*
X87872115Y-85016500D01*
X87856876Y-85020975D01*
X87855671Y-85022365D01*
X87854000Y-85030048D01*
X87854000Y-85789884D01*
X87346000Y-85789884D01*
X87346000Y-85034615D01*
X87341525Y-85019376D01*
X87340135Y-85018171D01*
X87332452Y-85016500D01*
X86635115Y-85016500D01*
X86619876Y-85020975D01*
X86618671Y-85022365D01*
X86617000Y-85030048D01*
X86617000Y-85108766D01*
X85934416Y-85108766D01*
X85792879Y-84860626D01*
X85788947Y-84854571D01*
X85593842Y-84588969D01*
X85589452Y-84583663D01*
X85575861Y-84575581D01*
X85575256Y-84575602D01*
X85566774Y-84580836D01*
X83709622Y-86437988D01*
X83702008Y-86451932D01*
X82971956Y-86451932D01*
X82973192Y-86449668D01*
X82973061Y-86447835D01*
X82968810Y-86441220D01*
X81112300Y-84584710D01*
X81099507Y-84577724D01*
X81088754Y-84585588D01*
X80937610Y-84778350D01*
X80933476Y-84784299D01*
X80761290Y-85065280D01*
X80757860Y-85071677D01*
X80748787Y-85091223D01*
X80701963Y-85144590D01*
X80633719Y-85164170D01*
X80565724Y-85143746D01*
X80519564Y-85089803D01*
X80508500Y-85038172D01*
X80508500Y-81913677D01*
X80528502Y-81845556D01*
X80582158Y-81799063D01*
X80652432Y-81788959D01*
X80716933Y-81818417D01*
X80718969Y-81820931D01*
X80724095Y-81825082D01*
X80822556Y-81904814D01*
X80867392Y-81941122D01*
X81037561Y-82027827D01*
X81043934Y-82029535D01*
X81043935Y-82029535D01*
X81161864Y-82061134D01*
X81222039Y-82077258D01*
X81227793Y-82077711D01*
X81227794Y-82077711D01*
X81298896Y-82083307D01*
X81298907Y-82083307D01*
X81301354Y-82083500D01*
X82029340Y-82083500D01*
X82097461Y-82103502D01*
X82118435Y-82120405D01*
X83310942Y-83312913D01*
X83344968Y-83375225D01*
X83339903Y-83446041D01*
X83297356Y-83502876D01*
X83230836Y-83527687D01*
X83219867Y-83527992D01*
X83218736Y-83527974D01*
X83211475Y-83528278D01*
X82883567Y-83561008D01*
X82876419Y-83562140D01*
X82554434Y-83632344D01*
X82547456Y-83634292D01*
X82235677Y-83741038D01*
X82228970Y-83743775D01*
X81931532Y-83885646D01*
X81925174Y-83889141D01*
X81646027Y-84064250D01*
X81640104Y-84068459D01*
X81473450Y-84201975D01*
X81464982Y-84214098D01*
X81471379Y-84225369D01*
X83324788Y-86078778D01*
X83338732Y-86086392D01*
X83340565Y-86086261D01*
X83347180Y-86082010D01*
X85202609Y-84226581D01*
X85210001Y-84213044D01*
X85203214Y-84203343D01*
X85109080Y-84122946D01*
X85103321Y-84118574D01*
X84836208Y-83939082D01*
X84790823Y-83884486D01*
X84782160Y-83814020D01*
X84812968Y-83750056D01*
X84873467Y-83712903D01*
X84906484Y-83708500D01*
X86644564Y-83708500D01*
X86712685Y-83728502D01*
X86751708Y-83768197D01*
X86770030Y-83797805D01*
X86770036Y-83797812D01*
X86773884Y-83804031D01*
X86781139Y-83811273D01*
X86782106Y-83813040D01*
X86783611Y-83814939D01*
X86783286Y-83815197D01*
X86815219Y-83873554D01*
X86810218Y-83944375D01*
X86781292Y-83989470D01*
X86778636Y-83992131D01*
X86769625Y-84003540D01*
X86686088Y-84139063D01*
X86679944Y-84152241D01*
X86629685Y-84303766D01*
X86626819Y-84317132D01*
X86617328Y-84409770D01*
X86617000Y-84416185D01*
X86617000Y-84490385D01*
X86621475Y-84505624D01*
X86622865Y-84506829D01*
X86630548Y-84508500D01*
X88564885Y-84508500D01*
X88580124Y-84504025D01*
X88581330Y-84502633D01*
X88584047Y-84490145D01*
X88618072Y-84427832D01*
X88680384Y-84393807D01*
X88751200Y-84398872D01*
X88796262Y-84427833D01*
X89072787Y-84704358D01*
X89106813Y-84766670D01*
X89109213Y-84804434D01*
X89089619Y-85028400D01*
X89109508Y-85255737D01*
X89168572Y-85476166D01*
X89170894Y-85481146D01*
X89170895Y-85481148D01*
X89262690Y-85678003D01*
X89262693Y-85678008D01*
X89265016Y-85682990D01*
X89268172Y-85687497D01*
X89268173Y-85687499D01*
X89352549Y-85808000D01*
X89395909Y-85869925D01*
X89557274Y-86031290D01*
X89561782Y-86034447D01*
X89561785Y-86034449D01*
X89739082Y-86158593D01*
X89744209Y-86162183D01*
X89749191Y-86164506D01*
X89749196Y-86164509D01*
X89945039Y-86255832D01*
X89951033Y-86258627D01*
X89956341Y-86260049D01*
X89956343Y-86260050D01*
X90024812Y-86278396D01*
X90171462Y-86317691D01*
X90398799Y-86337580D01*
X90626136Y-86317691D01*
X90772786Y-86278396D01*
X90841255Y-86260050D01*
X90841257Y-86260049D01*
X90846565Y-86258627D01*
X90852559Y-86255832D01*
X91048402Y-86164509D01*
X91048407Y-86164506D01*
X91053389Y-86162183D01*
X91058516Y-86158593D01*
X91235813Y-86034449D01*
X91235816Y-86034447D01*
X91240324Y-86031290D01*
X91401689Y-85869925D01*
X91445050Y-85808000D01*
X91529425Y-85687499D01*
X91529426Y-85687497D01*
X91532582Y-85682990D01*
X91534905Y-85678008D01*
X91534908Y-85678003D01*
X91626703Y-85481148D01*
X91626704Y-85481146D01*
X91629026Y-85476166D01*
X91630449Y-85470856D01*
X91630452Y-85470848D01*
X91648693Y-85402773D01*
X91685645Y-85342150D01*
X91749505Y-85311129D01*
X91820000Y-85319559D01*
X91874746Y-85364762D01*
X91892105Y-85402772D01*
X91911771Y-85476166D01*
X91914093Y-85481146D01*
X91914094Y-85481148D01*
X92005889Y-85678003D01*
X92005892Y-85678008D01*
X92008215Y-85682990D01*
X92011371Y-85687497D01*
X92011372Y-85687499D01*
X92095748Y-85808000D01*
X92139108Y-85869925D01*
X92300473Y-86031290D01*
X92304981Y-86034447D01*
X92304984Y-86034449D01*
X92482281Y-86158593D01*
X92487408Y-86162183D01*
X92492390Y-86164506D01*
X92492395Y-86164509D01*
X92688238Y-86255832D01*
X92694232Y-86258627D01*
X92699540Y-86260049D01*
X92699542Y-86260050D01*
X92768011Y-86278396D01*
X92914661Y-86317691D01*
X93141998Y-86337580D01*
X93369335Y-86317691D01*
X93515985Y-86278396D01*
X93584454Y-86260050D01*
X93584456Y-86260049D01*
X93589764Y-86258627D01*
X93595758Y-86255832D01*
X93791601Y-86164509D01*
X93791606Y-86164506D01*
X93796588Y-86162183D01*
X93801715Y-86158593D01*
X93979012Y-86034449D01*
X93979015Y-86034447D01*
X93983523Y-86031290D01*
X94144888Y-85869925D01*
X94188249Y-85808000D01*
X94272624Y-85687499D01*
X94272625Y-85687497D01*
X94275781Y-85682990D01*
X94278104Y-85678008D01*
X94278107Y-85678003D01*
X94369902Y-85481148D01*
X94369903Y-85481146D01*
X94372225Y-85476166D01*
X94373648Y-85470856D01*
X94373651Y-85470848D01*
X94391892Y-85402773D01*
X94428844Y-85342150D01*
X94492704Y-85311129D01*
X94563199Y-85319559D01*
X94617945Y-85364762D01*
X94635304Y-85402772D01*
X94654970Y-85476166D01*
X94657292Y-85481146D01*
X94657293Y-85481148D01*
X94749088Y-85678003D01*
X94749091Y-85678008D01*
X94751414Y-85682990D01*
X94754570Y-85687497D01*
X94754571Y-85687499D01*
X94838947Y-85808000D01*
X94882307Y-85869925D01*
X95043672Y-86031290D01*
X95048180Y-86034447D01*
X95048183Y-86034449D01*
X95225480Y-86158593D01*
X95230607Y-86162183D01*
X95235589Y-86164506D01*
X95235594Y-86164509D01*
X95431437Y-86255832D01*
X95437431Y-86258627D01*
X95442739Y-86260049D01*
X95442741Y-86260050D01*
X95511210Y-86278396D01*
X95657860Y-86317691D01*
X95885197Y-86337580D01*
X96112534Y-86317691D01*
X96259184Y-86278396D01*
X96327653Y-86260050D01*
X96327655Y-86260049D01*
X96332963Y-86258627D01*
X96338957Y-86255832D01*
X96534800Y-86164509D01*
X96534805Y-86164506D01*
X96539787Y-86162183D01*
X96544914Y-86158593D01*
X96722211Y-86034449D01*
X96722214Y-86034447D01*
X96726722Y-86031290D01*
X96888087Y-85869925D01*
X96931448Y-85808000D01*
X97015823Y-85687499D01*
X97015824Y-85687497D01*
X97018980Y-85682990D01*
X97021303Y-85678008D01*
X97021306Y-85678003D01*
X97113101Y-85481148D01*
X97113102Y-85481146D01*
X97115424Y-85476166D01*
X97116847Y-85470856D01*
X97116850Y-85470848D01*
X97135091Y-85402773D01*
X97172043Y-85342150D01*
X97235903Y-85311129D01*
X97306398Y-85319559D01*
X97361144Y-85364762D01*
X97378503Y-85402772D01*
X97398169Y-85476166D01*
X97400491Y-85481146D01*
X97400492Y-85481148D01*
X97492287Y-85678003D01*
X97492290Y-85678008D01*
X97494613Y-85682990D01*
X97497769Y-85687497D01*
X97497770Y-85687499D01*
X97582146Y-85808000D01*
X97625506Y-85869925D01*
X97786871Y-86031290D01*
X97791379Y-86034447D01*
X97791382Y-86034449D01*
X97968679Y-86158593D01*
X97973806Y-86162183D01*
X97978788Y-86164506D01*
X97978793Y-86164509D01*
X98174636Y-86255832D01*
X98180630Y-86258627D01*
X98185938Y-86260049D01*
X98185940Y-86260050D01*
X98254409Y-86278396D01*
X98401059Y-86317691D01*
X98628396Y-86337580D01*
X98855733Y-86317691D01*
X99002383Y-86278396D01*
X99070852Y-86260050D01*
X99070854Y-86260049D01*
X99076162Y-86258627D01*
X99082156Y-86255832D01*
X99277999Y-86164509D01*
X99278004Y-86164506D01*
X99282986Y-86162183D01*
X99288113Y-86158593D01*
X99465410Y-86034449D01*
X99465413Y-86034447D01*
X99469921Y-86031290D01*
X99631286Y-85869925D01*
X99674647Y-85808000D01*
X99759022Y-85687499D01*
X99759023Y-85687497D01*
X99762179Y-85682990D01*
X99764502Y-85678008D01*
X99764505Y-85678003D01*
X99856300Y-85481148D01*
X99856301Y-85481146D01*
X99858623Y-85476166D01*
X99860046Y-85470856D01*
X99860049Y-85470848D01*
X99878290Y-85402773D01*
X99915242Y-85342150D01*
X99979102Y-85311129D01*
X100049597Y-85319559D01*
X100104343Y-85364762D01*
X100121702Y-85402772D01*
X100141368Y-85476166D01*
X100143690Y-85481146D01*
X100143691Y-85481148D01*
X100235486Y-85678003D01*
X100235489Y-85678008D01*
X100237812Y-85682990D01*
X100240968Y-85687497D01*
X100240969Y-85687499D01*
X100325345Y-85808000D01*
X100368705Y-85869925D01*
X100530070Y-86031290D01*
X100534578Y-86034447D01*
X100534581Y-86034449D01*
X100711878Y-86158593D01*
X100717005Y-86162183D01*
X100721987Y-86164506D01*
X100721992Y-86164509D01*
X100917835Y-86255832D01*
X100923829Y-86258627D01*
X100929137Y-86260049D01*
X100929139Y-86260050D01*
X100997608Y-86278396D01*
X101144258Y-86317691D01*
X101371595Y-86337580D01*
X101598932Y-86317691D01*
X101745582Y-86278396D01*
X101814051Y-86260050D01*
X101814053Y-86260049D01*
X101819361Y-86258627D01*
X101825355Y-86255832D01*
X102021198Y-86164509D01*
X102021203Y-86164506D01*
X102026185Y-86162183D01*
X102031312Y-86158593D01*
X102208609Y-86034449D01*
X102208612Y-86034447D01*
X102213120Y-86031290D01*
X102374485Y-85869925D01*
X102417846Y-85808000D01*
X102502221Y-85687499D01*
X102502222Y-85687497D01*
X102505378Y-85682990D01*
X102507701Y-85678008D01*
X102507704Y-85678003D01*
X102599499Y-85481148D01*
X102599500Y-85481146D01*
X102601822Y-85476166D01*
X102603245Y-85470856D01*
X102603248Y-85470848D01*
X102621489Y-85402773D01*
X102658441Y-85342150D01*
X102722301Y-85311129D01*
X102792796Y-85319559D01*
X102847542Y-85364762D01*
X102864901Y-85402772D01*
X102884567Y-85476166D01*
X102886889Y-85481146D01*
X102886890Y-85481148D01*
X102978685Y-85678003D01*
X102978688Y-85678008D01*
X102981011Y-85682990D01*
X102984167Y-85687497D01*
X102984168Y-85687499D01*
X103068544Y-85808000D01*
X103111904Y-85869925D01*
X103273269Y-86031290D01*
X103277777Y-86034447D01*
X103277780Y-86034449D01*
X103455077Y-86158593D01*
X103460204Y-86162183D01*
X103465186Y-86164506D01*
X103465191Y-86164509D01*
X103661034Y-86255832D01*
X103667028Y-86258627D01*
X103672336Y-86260049D01*
X103672338Y-86260050D01*
X103740807Y-86278396D01*
X103887457Y-86317691D01*
X104114794Y-86337580D01*
X104342131Y-86317691D01*
X104488781Y-86278396D01*
X104557250Y-86260050D01*
X104557252Y-86260049D01*
X104562560Y-86258627D01*
X104568554Y-86255832D01*
X104764397Y-86164509D01*
X104764402Y-86164506D01*
X104769384Y-86162183D01*
X104774511Y-86158593D01*
X104951808Y-86034449D01*
X104951811Y-86034447D01*
X104956319Y-86031290D01*
X105117684Y-85869925D01*
X105161045Y-85808000D01*
X105245420Y-85687499D01*
X105245421Y-85687497D01*
X105248577Y-85682990D01*
X105250900Y-85678008D01*
X105250903Y-85678003D01*
X105342698Y-85481148D01*
X105342699Y-85481146D01*
X105345021Y-85476166D01*
X105346444Y-85470856D01*
X105346447Y-85470848D01*
X105364688Y-85402773D01*
X105401640Y-85342150D01*
X105465500Y-85311129D01*
X105535995Y-85319559D01*
X105590741Y-85364762D01*
X105608100Y-85402772D01*
X105627766Y-85476166D01*
X105630088Y-85481146D01*
X105630089Y-85481148D01*
X105721884Y-85678003D01*
X105721887Y-85678008D01*
X105724210Y-85682990D01*
X105727366Y-85687497D01*
X105727367Y-85687499D01*
X105811743Y-85808000D01*
X105855103Y-85869925D01*
X106016468Y-86031290D01*
X106020976Y-86034447D01*
X106020979Y-86034449D01*
X106198276Y-86158593D01*
X106203403Y-86162183D01*
X106208385Y-86164506D01*
X106208390Y-86164509D01*
X106404233Y-86255832D01*
X106410227Y-86258627D01*
X106415535Y-86260049D01*
X106415537Y-86260050D01*
X106484006Y-86278396D01*
X106630656Y-86317691D01*
X106857993Y-86337580D01*
X107085330Y-86317691D01*
X107231980Y-86278396D01*
X107300449Y-86260050D01*
X107300451Y-86260049D01*
X107305759Y-86258627D01*
X107311753Y-86255832D01*
X107507596Y-86164509D01*
X107507601Y-86164506D01*
X107512583Y-86162183D01*
X107517710Y-86158593D01*
X107585148Y-86111373D01*
X108882773Y-86111373D01*
X108892069Y-86123388D01*
X108942348Y-86158593D01*
X108951838Y-86164073D01*
X109148616Y-86255832D01*
X109158908Y-86259578D01*
X109368627Y-86315772D01*
X109379422Y-86317675D01*
X109595717Y-86336599D01*
X109606667Y-86336599D01*
X109822962Y-86317675D01*
X109833757Y-86315772D01*
X110043476Y-86259578D01*
X110053768Y-86255832D01*
X110250546Y-86164073D01*
X110260036Y-86158593D01*
X110311154Y-86122801D01*
X110319528Y-86112325D01*
X110312460Y-86098878D01*
X109614004Y-85400422D01*
X109600060Y-85392808D01*
X109598227Y-85392939D01*
X109591612Y-85397190D01*
X108889203Y-86099599D01*
X108882773Y-86111373D01*
X107585148Y-86111373D01*
X107695007Y-86034449D01*
X107695010Y-86034447D01*
X107699518Y-86031290D01*
X107860883Y-85869925D01*
X107904244Y-85808000D01*
X107988619Y-85687499D01*
X107988620Y-85687497D01*
X107991776Y-85682990D01*
X107994099Y-85678008D01*
X107994102Y-85678003D01*
X108085897Y-85481148D01*
X108085898Y-85481146D01*
X108088220Y-85476166D01*
X108089643Y-85470856D01*
X108089646Y-85470848D01*
X108108146Y-85401806D01*
X108145097Y-85341184D01*
X108208958Y-85310162D01*
X108279453Y-85318592D01*
X108334199Y-85363795D01*
X108351559Y-85401807D01*
X108370014Y-85470684D01*
X108373760Y-85480976D01*
X108465519Y-85677754D01*
X108470999Y-85687244D01*
X108506791Y-85738362D01*
X108517267Y-85746736D01*
X108530714Y-85739668D01*
X109229170Y-85041212D01*
X109235548Y-85029532D01*
X109965600Y-85029532D01*
X109965731Y-85031365D01*
X109969982Y-85037980D01*
X110672391Y-85740389D01*
X110684165Y-85746819D01*
X110696180Y-85737523D01*
X110731385Y-85687244D01*
X110736865Y-85677754D01*
X110828624Y-85480976D01*
X110832370Y-85470684D01*
X110888564Y-85260965D01*
X110890467Y-85250170D01*
X110909391Y-85033875D01*
X110909391Y-85022925D01*
X110890467Y-84806630D01*
X110888564Y-84795835D01*
X110832370Y-84586116D01*
X110828624Y-84575824D01*
X110736865Y-84379046D01*
X110731385Y-84369556D01*
X110695593Y-84318438D01*
X110685117Y-84310064D01*
X110671670Y-84317132D01*
X109973214Y-85015588D01*
X109965600Y-85029532D01*
X109235548Y-85029532D01*
X109236784Y-85027268D01*
X109236653Y-85025435D01*
X109232402Y-85018820D01*
X108529993Y-84316411D01*
X108518219Y-84309981D01*
X108506204Y-84319277D01*
X108470999Y-84369556D01*
X108465519Y-84379046D01*
X108373760Y-84575824D01*
X108370014Y-84586116D01*
X108351559Y-84654993D01*
X108314608Y-84715616D01*
X108250747Y-84746637D01*
X108180253Y-84738209D01*
X108125505Y-84693006D01*
X108108146Y-84654994D01*
X108089646Y-84585952D01*
X108089642Y-84585941D01*
X108088220Y-84580634D01*
X108085864Y-84575581D01*
X107994102Y-84378797D01*
X107994099Y-84378792D01*
X107991776Y-84373810D01*
X107942731Y-84303766D01*
X107864042Y-84191386D01*
X107864040Y-84191383D01*
X107860883Y-84186875D01*
X107772603Y-84098595D01*
X107738577Y-84036283D01*
X107743642Y-83965468D01*
X107786189Y-83908632D01*
X107852709Y-83883821D01*
X107861698Y-83883500D01*
X108774689Y-83883500D01*
X108842810Y-83903502D01*
X108886220Y-83950875D01*
X108889924Y-83957922D01*
X109588380Y-84656378D01*
X109602324Y-84663992D01*
X109604157Y-84663861D01*
X109610772Y-84659610D01*
X110056284Y-84214098D01*
X114789782Y-84214098D01*
X114796179Y-84225369D01*
X116649588Y-86078778D01*
X116663532Y-86086392D01*
X116665365Y-86086261D01*
X116671980Y-86082010D01*
X118527409Y-84226581D01*
X118534801Y-84213044D01*
X118528014Y-84203343D01*
X118433880Y-84122946D01*
X118428121Y-84118574D01*
X118154579Y-83934762D01*
X118148358Y-83931082D01*
X117855507Y-83779931D01*
X117848896Y-83776988D01*
X117540629Y-83660504D01*
X117533703Y-83658333D01*
X117214090Y-83578052D01*
X117206980Y-83576696D01*
X116880257Y-83533681D01*
X116873018Y-83533150D01*
X116543537Y-83527974D01*
X116536275Y-83528278D01*
X116208367Y-83561008D01*
X116201219Y-83562140D01*
X115879234Y-83632344D01*
X115872256Y-83634292D01*
X115560477Y-83741038D01*
X115553770Y-83743775D01*
X115256332Y-83885646D01*
X115249974Y-83889141D01*
X114970827Y-84064250D01*
X114964904Y-84068459D01*
X114798250Y-84201975D01*
X114789782Y-84214098D01*
X110056284Y-84214098D01*
X110313183Y-83957199D01*
X110317599Y-83949112D01*
X110367802Y-83898911D01*
X110428185Y-83883500D01*
X111171233Y-83883500D01*
X111182416Y-83884027D01*
X111189909Y-83885702D01*
X111197835Y-83885453D01*
X111197836Y-83885453D01*
X111257986Y-83883562D01*
X111261945Y-83883500D01*
X111289856Y-83883500D01*
X111293791Y-83883003D01*
X111293856Y-83882995D01*
X111305693Y-83882062D01*
X111337951Y-83881048D01*
X111341970Y-83880922D01*
X111349889Y-83880673D01*
X111369343Y-83875021D01*
X111388700Y-83871013D01*
X111400930Y-83869468D01*
X111400931Y-83869468D01*
X111408797Y-83868474D01*
X111416168Y-83865555D01*
X111416170Y-83865555D01*
X111449912Y-83852196D01*
X111461142Y-83848351D01*
X111495983Y-83838229D01*
X111495984Y-83838229D01*
X111503593Y-83836018D01*
X111510412Y-83831985D01*
X111510417Y-83831983D01*
X111521028Y-83825707D01*
X111538776Y-83817012D01*
X111557617Y-83809552D01*
X111593387Y-83783564D01*
X111603307Y-83777048D01*
X111634535Y-83758580D01*
X111634538Y-83758578D01*
X111641362Y-83754542D01*
X111655683Y-83740221D01*
X111670717Y-83727380D01*
X111680694Y-83720131D01*
X111687107Y-83715472D01*
X111715298Y-83681395D01*
X111723288Y-83672616D01*
X117382253Y-78013652D01*
X117390539Y-78006112D01*
X117397018Y-78002000D01*
X117411834Y-77986223D01*
X117443643Y-77952349D01*
X117446398Y-77949507D01*
X117466135Y-77929770D01*
X117468615Y-77926573D01*
X117476320Y-77917551D01*
X117477231Y-77916581D01*
X117506586Y-77885321D01*
X117510405Y-77878375D01*
X117510407Y-77878372D01*
X117516348Y-77867566D01*
X117527199Y-77851047D01*
X117534758Y-77841301D01*
X117539614Y-77835041D01*
X117542759Y-77827772D01*
X117542762Y-77827768D01*
X117557174Y-77794463D01*
X117562391Y-77783813D01*
X117583695Y-77745060D01*
X117588733Y-77725437D01*
X117595137Y-77706734D01*
X117600033Y-77695420D01*
X117600033Y-77695419D01*
X117603181Y-77688145D01*
X117604420Y-77680322D01*
X117604423Y-77680312D01*
X117610099Y-77644476D01*
X117612505Y-77632856D01*
X117621528Y-77597711D01*
X117621528Y-77597710D01*
X117623500Y-77590030D01*
X117623500Y-77569776D01*
X117625051Y-77550065D01*
X117626980Y-77537886D01*
X117628220Y-77530057D01*
X117624059Y-77486038D01*
X117623500Y-77474181D01*
X117623500Y-65380382D01*
X117643502Y-65312261D01*
X117697158Y-65265768D01*
X117705269Y-65262401D01*
X117728293Y-65253769D01*
X117728297Y-65253767D01*
X117736705Y-65250615D01*
X117853261Y-65163261D01*
X117940615Y-65046705D01*
X117991745Y-64910316D01*
X117998500Y-64848134D01*
X117998500Y-62751866D01*
X117991745Y-62689684D01*
X117940615Y-62553295D01*
X117853261Y-62436739D01*
X117736705Y-62349385D01*
X117600316Y-62298255D01*
X117538134Y-62291500D01*
X116441866Y-62291500D01*
X116438469Y-62291869D01*
X116396069Y-62296475D01*
X116379684Y-62298255D01*
X116379679Y-62298207D01*
X116330321Y-62298207D01*
X116330316Y-62298255D01*
X116329874Y-62298207D01*
X116313931Y-62296475D01*
X116271531Y-62291869D01*
X116268134Y-62291500D01*
X115171866Y-62291500D01*
X115168469Y-62291869D01*
X115126069Y-62296475D01*
X115109684Y-62298255D01*
X115109679Y-62298207D01*
X115060321Y-62298207D01*
X115060316Y-62298255D01*
X115059874Y-62298207D01*
X115043931Y-62296475D01*
X115001531Y-62291869D01*
X114998134Y-62291500D01*
X113901866Y-62291500D01*
X113898469Y-62291869D01*
X113856069Y-62296475D01*
X113839684Y-62298255D01*
X113839679Y-62298207D01*
X113790321Y-62298207D01*
X113790316Y-62298255D01*
X113789874Y-62298207D01*
X113773931Y-62296475D01*
X113731531Y-62291869D01*
X113728134Y-62291500D01*
X112631866Y-62291500D01*
X112628469Y-62291869D01*
X112586069Y-62296475D01*
X112569684Y-62298255D01*
X112569679Y-62298207D01*
X112520321Y-62298207D01*
X112520316Y-62298255D01*
X112519874Y-62298207D01*
X112503931Y-62296475D01*
X112461531Y-62291869D01*
X112458134Y-62291500D01*
X111361866Y-62291500D01*
X111358469Y-62291869D01*
X111316069Y-62296475D01*
X111299684Y-62298255D01*
X111299679Y-62298207D01*
X111250321Y-62298207D01*
X111250316Y-62298255D01*
X111249874Y-62298207D01*
X111233931Y-62296475D01*
X111191531Y-62291869D01*
X111188134Y-62291500D01*
X110091866Y-62291500D01*
X110088469Y-62291869D01*
X110037534Y-62297402D01*
X110037532Y-62297402D01*
X110029684Y-62298255D01*
X110029118Y-62298467D01*
X109980237Y-62298468D01*
X109980207Y-62298748D01*
X109977629Y-62298468D01*
X109974763Y-62298468D01*
X109972352Y-62297895D01*
X109921486Y-62292369D01*
X109914672Y-62292000D01*
X109642115Y-62292000D01*
X109626876Y-62296475D01*
X109625671Y-62297865D01*
X109624000Y-62305548D01*
X109624000Y-65289884D01*
X109628475Y-65305123D01*
X109629865Y-65306328D01*
X109637548Y-65307999D01*
X109880500Y-65307999D01*
X109948621Y-65328001D01*
X109995114Y-65381657D01*
X110006500Y-65433999D01*
X110006500Y-66845405D01*
X109986498Y-66913526D01*
X109969595Y-66934500D01*
X104918594Y-71985501D01*
X104856282Y-72019527D01*
X104785467Y-72014462D01*
X104728631Y-71971915D01*
X104703820Y-71905395D01*
X104703499Y-71896406D01*
X104703499Y-71598152D01*
X104697301Y-71519387D01*
X104648216Y-71336199D01*
X104562117Y-71167220D01*
X104557964Y-71162091D01*
X104557961Y-71162087D01*
X104446921Y-71024965D01*
X104442766Y-71019834D01*
X104350854Y-70945405D01*
X104300513Y-70904639D01*
X104300509Y-70904636D01*
X104295380Y-70900483D01*
X104289070Y-70897268D01*
X104288866Y-70897076D01*
X104283955Y-70893886D01*
X104284538Y-70892988D01*
X104237454Y-70848520D01*
X104220387Y-70779606D01*
X104243287Y-70712404D01*
X104284391Y-70676786D01*
X104283955Y-70676114D01*
X104288793Y-70672972D01*
X104289070Y-70672732D01*
X104295380Y-70669517D01*
X104300509Y-70665364D01*
X104300513Y-70665361D01*
X104437635Y-70554321D01*
X104442766Y-70550166D01*
X104496002Y-70484425D01*
X104557961Y-70407913D01*
X104557964Y-70407909D01*
X104562117Y-70402780D01*
X104575111Y-70377279D01*
X104627017Y-70275406D01*
X104648216Y-70233801D01*
X104697301Y-70050613D01*
X104700768Y-70006565D01*
X104703307Y-69974305D01*
X104703307Y-69974298D01*
X104703500Y-69971849D01*
X104703499Y-69058152D01*
X104697301Y-68979387D01*
X104648216Y-68796199D01*
X104562117Y-68627220D01*
X104557964Y-68622091D01*
X104557961Y-68622087D01*
X104446921Y-68484965D01*
X104442766Y-68479834D01*
X104295380Y-68360483D01*
X104289490Y-68357482D01*
X104286520Y-68355553D01*
X104240284Y-68301676D01*
X104230516Y-68231354D01*
X104260316Y-68166915D01*
X104286516Y-68144212D01*
X104286650Y-68144125D01*
X104292530Y-68141129D01*
X104297661Y-68136974D01*
X104297664Y-68136972D01*
X104435814Y-68025100D01*
X104440945Y-68020945D01*
X104445100Y-68015814D01*
X104556973Y-67877663D01*
X104556976Y-67877659D01*
X104561129Y-67872530D01*
X104647829Y-67702371D01*
X104649537Y-67695997D01*
X104695763Y-67523481D01*
X104695764Y-67523477D01*
X104697257Y-67517904D01*
X104698023Y-67508175D01*
X104703307Y-67441037D01*
X104703307Y-67441030D01*
X104703500Y-67438581D01*
X104703499Y-66670262D01*
X104723501Y-66602142D01*
X104777157Y-66555649D01*
X104847431Y-66545545D01*
X104869166Y-66550670D01*
X105003766Y-66595315D01*
X105017132Y-66598181D01*
X105109770Y-66607672D01*
X105116185Y-66608000D01*
X105127885Y-66608000D01*
X105143124Y-66603525D01*
X105144329Y-66602135D01*
X105146000Y-66594452D01*
X105146000Y-66589885D01*
X105654000Y-66589885D01*
X105658475Y-66605124D01*
X105659865Y-66606329D01*
X105667548Y-66608000D01*
X105683766Y-66608000D01*
X105690282Y-66607663D01*
X105784132Y-66597925D01*
X105797528Y-66595032D01*
X105948953Y-66544512D01*
X105962115Y-66538347D01*
X106097492Y-66454574D01*
X106108890Y-66445540D01*
X106221363Y-66332871D01*
X106230375Y-66321460D01*
X106313912Y-66185937D01*
X106320056Y-66172759D01*
X106370315Y-66021234D01*
X106373181Y-66007868D01*
X106382672Y-65915230D01*
X106383000Y-65908815D01*
X106383000Y-65834615D01*
X106378525Y-65819376D01*
X106377135Y-65818171D01*
X106369452Y-65816500D01*
X105672115Y-65816500D01*
X105656876Y-65820975D01*
X105655671Y-65822365D01*
X105654000Y-65830048D01*
X105654000Y-66589885D01*
X105146000Y-66589885D01*
X105146000Y-65434500D01*
X105166002Y-65366379D01*
X105219658Y-65319886D01*
X105272000Y-65308500D01*
X106364885Y-65308500D01*
X106380124Y-65304025D01*
X106381329Y-65302635D01*
X106383000Y-65294952D01*
X106383000Y-65216234D01*
X106382663Y-65209718D01*
X106372925Y-65115868D01*
X106370032Y-65102472D01*
X106319512Y-64951047D01*
X106313347Y-64937885D01*
X106229574Y-64802508D01*
X106220536Y-64791106D01*
X106218861Y-64789433D01*
X106218081Y-64788007D01*
X106215993Y-64785373D01*
X106216444Y-64785016D01*
X106184781Y-64727151D01*
X106189784Y-64656331D01*
X106218701Y-64611246D01*
X106221758Y-64608184D01*
X106221762Y-64608179D01*
X106226929Y-64603003D01*
X106230768Y-64596775D01*
X106233033Y-64593907D01*
X106290950Y-64552845D01*
X106331914Y-64546000D01*
X106965500Y-64546000D01*
X107033621Y-64566002D01*
X107080114Y-64619658D01*
X107091500Y-64672000D01*
X107091500Y-64848134D01*
X107098255Y-64910316D01*
X107149385Y-65046705D01*
X107236739Y-65163261D01*
X107353295Y-65250615D01*
X107489684Y-65301745D01*
X107551866Y-65308500D01*
X108648134Y-65308500D01*
X108652746Y-65307999D01*
X108702466Y-65302598D01*
X108702468Y-65302598D01*
X108710316Y-65301745D01*
X108710882Y-65301533D01*
X108759763Y-65301532D01*
X108759793Y-65301252D01*
X108762371Y-65301532D01*
X108765237Y-65301532D01*
X108767648Y-65302105D01*
X108818514Y-65307631D01*
X108825328Y-65308000D01*
X109097885Y-65308000D01*
X109113124Y-65303525D01*
X109114329Y-65302135D01*
X109116000Y-65294452D01*
X109116000Y-62310116D01*
X109111525Y-62294877D01*
X109110135Y-62293672D01*
X109102452Y-62292001D01*
X108825331Y-62292001D01*
X108818510Y-62292371D01*
X108767651Y-62297894D01*
X108765244Y-62298467D01*
X108762380Y-62298467D01*
X108759793Y-62298748D01*
X108759762Y-62298467D01*
X108710882Y-62298467D01*
X108710316Y-62298255D01*
X108702459Y-62297401D01*
X108702457Y-62297401D01*
X108651531Y-62291869D01*
X108648134Y-62291500D01*
X107551866Y-62291500D01*
X107489684Y-62298255D01*
X107353295Y-62349385D01*
X107236739Y-62436739D01*
X107149385Y-62553295D01*
X107098255Y-62689684D01*
X107091500Y-62751866D01*
X107091500Y-63003000D01*
X107071498Y-63071121D01*
X107017842Y-63117614D01*
X106965500Y-63129000D01*
X106331940Y-63129000D01*
X106263819Y-63108998D01*
X106233194Y-63081264D01*
X106229968Y-63077194D01*
X106226116Y-63070969D01*
X106220936Y-63065798D01*
X106108184Y-62953242D01*
X106108179Y-62953238D01*
X106103003Y-62948071D01*
X106096772Y-62944230D01*
X105961150Y-62860631D01*
X105961148Y-62860630D01*
X105954920Y-62856791D01*
X105789809Y-62802026D01*
X105782973Y-62801326D01*
X105782970Y-62801325D01*
X105731474Y-62796049D01*
X105687072Y-62791500D01*
X105112928Y-62791500D01*
X105109682Y-62791837D01*
X105109678Y-62791837D01*
X105015765Y-62801581D01*
X105015761Y-62801582D01*
X105008907Y-62802293D01*
X105002371Y-62804474D01*
X105002369Y-62804474D01*
X104869605Y-62848768D01*
X104843893Y-62857346D01*
X104695969Y-62948884D01*
X104690796Y-62954066D01*
X104578242Y-63066816D01*
X104578238Y-63066821D01*
X104573071Y-63071997D01*
X104481791Y-63220080D01*
X104427026Y-63385191D01*
X104416500Y-63487928D01*
X104416500Y-63729340D01*
X104396498Y-63797461D01*
X104379595Y-63818435D01*
X103608695Y-64589335D01*
X103546383Y-64623361D01*
X103475568Y-64618296D01*
X103418732Y-64575749D01*
X103393921Y-64509229D01*
X103393600Y-64500240D01*
X103393600Y-62871454D01*
X103392794Y-62861202D01*
X103387811Y-62797894D01*
X103387811Y-62797893D01*
X103387358Y-62792139D01*
X103377483Y-62755283D01*
X103339635Y-62614035D01*
X103339635Y-62614034D01*
X103337927Y-62607661D01*
X103251222Y-62437492D01*
X103145964Y-62307509D01*
X103135182Y-62294195D01*
X103131031Y-62289069D01*
X103061076Y-62232420D01*
X103020724Y-62174006D01*
X103018360Y-62103048D01*
X103054733Y-62042077D01*
X103118295Y-62010449D01*
X103140371Y-62008500D01*
X119265500Y-62008500D01*
X119333621Y-62028502D01*
G37*
%TD.AperFunction*%
%TA.AperFunction,Conductor*%
G36*
X116303586Y-67090598D02*
G01*
X116347474Y-67146405D01*
X116356500Y-67193235D01*
X116356500Y-77195406D01*
X116336498Y-77263527D01*
X116319595Y-77284501D01*
X111024500Y-82579595D01*
X110962188Y-82613621D01*
X110935405Y-82616500D01*
X110583594Y-82616500D01*
X110515473Y-82596498D01*
X110468980Y-82542842D01*
X110458876Y-82472568D01*
X110488370Y-82407988D01*
X110494499Y-82401405D01*
X114892253Y-78003652D01*
X114900539Y-77996112D01*
X114907018Y-77992000D01*
X114953644Y-77942348D01*
X114956398Y-77939507D01*
X114976135Y-77919770D01*
X114978615Y-77916573D01*
X114986320Y-77907551D01*
X115016586Y-77875321D01*
X115020405Y-77868375D01*
X115020407Y-77868372D01*
X115026348Y-77857566D01*
X115037199Y-77841047D01*
X115037559Y-77840583D01*
X115049614Y-77825041D01*
X115052759Y-77817772D01*
X115052762Y-77817768D01*
X115067174Y-77784463D01*
X115072391Y-77773813D01*
X115093695Y-77735060D01*
X115098733Y-77715437D01*
X115105137Y-77696734D01*
X115110033Y-77685420D01*
X115110033Y-77685419D01*
X115113181Y-77678145D01*
X115114420Y-77670322D01*
X115114423Y-77670312D01*
X115120099Y-77634476D01*
X115122505Y-77622856D01*
X115131528Y-77587711D01*
X115131528Y-77587710D01*
X115133500Y-77580030D01*
X115133500Y-77559776D01*
X115135051Y-77540064D01*
X115136980Y-77527885D01*
X115138220Y-77520057D01*
X115134059Y-77476038D01*
X115133500Y-77464181D01*
X115133500Y-67236278D01*
X115153502Y-67168157D01*
X115207158Y-67121664D01*
X115277432Y-67111560D01*
X115310747Y-67121171D01*
X115417712Y-67168794D01*
X115511112Y-67188647D01*
X115598056Y-67207128D01*
X115598061Y-67207128D01*
X115604513Y-67208500D01*
X115795487Y-67208500D01*
X115801939Y-67207128D01*
X115801944Y-67207128D01*
X115888888Y-67188647D01*
X115982288Y-67168794D01*
X116069141Y-67130125D01*
X116150719Y-67093804D01*
X116156752Y-67091118D01*
X116162095Y-67087236D01*
X116167499Y-67084116D01*
X116236494Y-67067378D01*
X116303586Y-67090598D01*
G37*
%TD.AperFunction*%
%TA.AperFunction,Conductor*%
G36*
X113784532Y-73465538D02*
G01*
X113841368Y-73508085D01*
X113866179Y-73574605D01*
X113866500Y-73583594D01*
X113866500Y-77185406D01*
X113846498Y-77253527D01*
X113829595Y-77274501D01*
X109274500Y-81829595D01*
X109212188Y-81863621D01*
X109185405Y-81866500D01*
X103356482Y-81866500D01*
X103288361Y-81846498D01*
X103241868Y-81792842D01*
X103231764Y-81722568D01*
X103250011Y-81674003D01*
X103251222Y-81672508D01*
X103337927Y-81502339D01*
X103387358Y-81317861D01*
X103393600Y-81238546D01*
X103393600Y-81009500D01*
X103413602Y-80941379D01*
X103467258Y-80894886D01*
X103519600Y-80883500D01*
X105921233Y-80883500D01*
X105932416Y-80884027D01*
X105939909Y-80885702D01*
X105947835Y-80885453D01*
X105947836Y-80885453D01*
X106007986Y-80883562D01*
X106011945Y-80883500D01*
X106039856Y-80883500D01*
X106043791Y-80883003D01*
X106043856Y-80882995D01*
X106055693Y-80882062D01*
X106087951Y-80881048D01*
X106091970Y-80880922D01*
X106099889Y-80880673D01*
X106119343Y-80875021D01*
X106138700Y-80871013D01*
X106150930Y-80869468D01*
X106150931Y-80869468D01*
X106158797Y-80868474D01*
X106166168Y-80865555D01*
X106166170Y-80865555D01*
X106199912Y-80852196D01*
X106211142Y-80848351D01*
X106245983Y-80838229D01*
X106245984Y-80838229D01*
X106253593Y-80836018D01*
X106260412Y-80831985D01*
X106260417Y-80831983D01*
X106271028Y-80825707D01*
X106288776Y-80817012D01*
X106307617Y-80809552D01*
X106343387Y-80783564D01*
X106353307Y-80777048D01*
X106384535Y-80758580D01*
X106384538Y-80758578D01*
X106391362Y-80754542D01*
X106405683Y-80740221D01*
X106420717Y-80727380D01*
X106430694Y-80720131D01*
X106437107Y-80715472D01*
X106465298Y-80681395D01*
X106473288Y-80672616D01*
X113572247Y-73573657D01*
X113580537Y-73566113D01*
X113587018Y-73562000D01*
X113633659Y-73512332D01*
X113636413Y-73509491D01*
X113651405Y-73494499D01*
X113713717Y-73460473D01*
X113784532Y-73465538D01*
G37*
%TD.AperFunction*%
%TA.AperFunction,Conductor*%
G36*
X90737968Y-65207833D02*
G01*
X90758162Y-65231139D01*
X90758871Y-65232530D01*
X90763024Y-65237659D01*
X90763027Y-65237663D01*
X90819985Y-65308000D01*
X90879055Y-65380945D01*
X90884186Y-65385100D01*
X91022337Y-65496973D01*
X91022341Y-65496976D01*
X91027470Y-65501129D01*
X91033347Y-65504124D01*
X91033351Y-65504126D01*
X91191064Y-65584484D01*
X91197629Y-65587829D01*
X91204002Y-65589537D01*
X91204003Y-65589537D01*
X91376519Y-65635763D01*
X91376523Y-65635764D01*
X91382096Y-65637257D01*
X91391825Y-65638023D01*
X91458963Y-65643307D01*
X91458970Y-65643307D01*
X91461419Y-65643500D01*
X91924812Y-65643500D01*
X92388580Y-65643499D01*
X92437947Y-65639614D01*
X92462150Y-65637710D01*
X92462152Y-65637710D01*
X92467904Y-65637257D01*
X92652371Y-65587829D01*
X92658936Y-65584484D01*
X92816649Y-65504126D01*
X92816653Y-65504124D01*
X92822530Y-65501129D01*
X92827659Y-65496976D01*
X92827663Y-65496973D01*
X92965814Y-65385100D01*
X92970945Y-65380945D01*
X93091129Y-65232530D01*
X93091141Y-65232507D01*
X93143165Y-65187860D01*
X93213486Y-65178091D01*
X93277925Y-65207892D01*
X93298095Y-65231168D01*
X93298778Y-65232508D01*
X93418969Y-65380931D01*
X93567392Y-65501122D01*
X93737561Y-65587827D01*
X93743934Y-65589535D01*
X93743935Y-65589535D01*
X93916460Y-65635763D01*
X93922039Y-65637258D01*
X93927793Y-65637711D01*
X93927794Y-65637711D01*
X93998896Y-65643307D01*
X93998907Y-65643307D01*
X94001354Y-65643500D01*
X94928646Y-65643500D01*
X94931093Y-65643307D01*
X94931104Y-65643307D01*
X95002206Y-65637711D01*
X95002207Y-65637711D01*
X95007961Y-65637258D01*
X95013541Y-65635763D01*
X95186065Y-65589535D01*
X95186066Y-65589535D01*
X95192439Y-65587827D01*
X95362608Y-65501122D01*
X95511031Y-65380931D01*
X95569984Y-65308131D01*
X95627067Y-65237639D01*
X95631222Y-65232508D01*
X95631236Y-65232519D01*
X95683207Y-65187920D01*
X95753528Y-65178153D01*
X95817967Y-65207955D01*
X95838114Y-65231206D01*
X95838778Y-65232508D01*
X95842933Y-65237639D01*
X95900017Y-65308131D01*
X95958969Y-65380931D01*
X96107392Y-65501122D01*
X96277561Y-65587827D01*
X96283934Y-65589535D01*
X96283935Y-65589535D01*
X96456460Y-65635763D01*
X96462039Y-65637258D01*
X96467793Y-65637711D01*
X96467794Y-65637711D01*
X96538896Y-65643307D01*
X96538907Y-65643307D01*
X96541354Y-65643500D01*
X97468646Y-65643500D01*
X97471093Y-65643307D01*
X97471104Y-65643307D01*
X97542206Y-65637711D01*
X97542207Y-65637711D01*
X97547961Y-65637258D01*
X97553541Y-65635763D01*
X97726065Y-65589535D01*
X97726066Y-65589535D01*
X97732439Y-65587827D01*
X97902608Y-65501122D01*
X98051031Y-65380931D01*
X98109984Y-65308131D01*
X98167067Y-65237639D01*
X98171222Y-65232508D01*
X98171236Y-65232519D01*
X98223207Y-65187920D01*
X98293528Y-65178153D01*
X98357967Y-65207955D01*
X98378114Y-65231206D01*
X98378778Y-65232508D01*
X98382933Y-65237639D01*
X98440017Y-65308131D01*
X98498969Y-65380931D01*
X98647392Y-65501122D01*
X98817561Y-65587827D01*
X98823934Y-65589535D01*
X98823935Y-65589535D01*
X98996460Y-65635763D01*
X99002039Y-65637258D01*
X99007793Y-65637711D01*
X99007794Y-65637711D01*
X99078896Y-65643307D01*
X99078907Y-65643307D01*
X99081354Y-65643500D01*
X100008646Y-65643500D01*
X100011093Y-65643307D01*
X100011104Y-65643307D01*
X100082206Y-65637711D01*
X100082207Y-65637711D01*
X100087961Y-65637258D01*
X100093541Y-65635763D01*
X100272439Y-65587827D01*
X100272912Y-65589593D01*
X100334805Y-65584576D01*
X100397437Y-65618009D01*
X100432051Y-65679996D01*
X100427658Y-65750857D01*
X100392019Y-65802894D01*
X100375341Y-65817443D01*
X100375337Y-65817447D01*
X100369615Y-65822439D01*
X100361058Y-65834615D01*
X100332872Y-65874719D01*
X100328939Y-65880014D01*
X100289524Y-65930282D01*
X100286401Y-65937198D01*
X100285017Y-65939484D01*
X100276643Y-65954165D01*
X100275378Y-65956525D01*
X100271010Y-65962739D01*
X100268250Y-65969818D01*
X100268249Y-65969820D01*
X100247798Y-66022275D01*
X100245247Y-66028344D01*
X100218955Y-66086573D01*
X100217571Y-66094040D01*
X100216770Y-66096595D01*
X100212141Y-66112848D01*
X100211478Y-66115428D01*
X100208718Y-66122509D01*
X100202103Y-66172759D01*
X100200379Y-66185852D01*
X100199348Y-66192359D01*
X100187704Y-66255186D01*
X100188141Y-66262766D01*
X100188141Y-66262767D01*
X100191291Y-66317392D01*
X100191500Y-66324646D01*
X100191500Y-71954340D01*
X100171498Y-72022461D01*
X100154595Y-72043435D01*
X95343435Y-76854595D01*
X95281123Y-76888621D01*
X95254340Y-76891500D01*
X88948912Y-76891500D01*
X88940342Y-76891208D01*
X88890224Y-76887791D01*
X88890220Y-76887791D01*
X88882648Y-76887275D01*
X88875171Y-76888580D01*
X88875170Y-76888580D01*
X88848692Y-76893201D01*
X88819697Y-76898262D01*
X88813179Y-76899223D01*
X88749758Y-76906898D01*
X88742657Y-76909581D01*
X88740048Y-76910222D01*
X88723738Y-76914685D01*
X88721202Y-76915450D01*
X88713716Y-76916757D01*
X88706759Y-76919811D01*
X88655205Y-76942442D01*
X88649101Y-76944933D01*
X88589344Y-76967513D01*
X88583081Y-76971817D01*
X88580715Y-76973054D01*
X88565903Y-76981299D01*
X88563649Y-76982632D01*
X88556695Y-76985685D01*
X88505998Y-77024587D01*
X88500668Y-77028459D01*
X88454280Y-77060339D01*
X88454275Y-77060344D01*
X88448019Y-77064643D01*
X88442968Y-77070313D01*
X88442966Y-77070314D01*
X88406565Y-77111170D01*
X88401584Y-77116446D01*
X87088435Y-78429595D01*
X87026123Y-78463621D01*
X86999340Y-78466500D01*
X86381354Y-78466500D01*
X86378907Y-78466693D01*
X86378896Y-78466693D01*
X86307794Y-78472289D01*
X86307793Y-78472289D01*
X86302039Y-78472742D01*
X86296464Y-78474236D01*
X86296463Y-78474236D01*
X86123935Y-78520465D01*
X86117561Y-78522173D01*
X85947392Y-78608878D01*
X85798969Y-78729069D01*
X85678778Y-78877492D01*
X85678614Y-78877814D01*
X85626493Y-78922542D01*
X85556172Y-78932309D01*
X85491733Y-78902508D01*
X85469029Y-78876306D01*
X85466645Y-78872635D01*
X85354826Y-78734551D01*
X85345549Y-78725274D01*
X85207464Y-78613454D01*
X85196453Y-78606304D01*
X85038136Y-78525637D01*
X85025890Y-78520936D01*
X84853457Y-78474733D01*
X84842130Y-78472786D01*
X84771065Y-78467193D01*
X84766138Y-78467000D01*
X84577115Y-78467000D01*
X84561876Y-78471475D01*
X84560671Y-78472865D01*
X84559000Y-78480548D01*
X84559000Y-80403000D01*
X84538998Y-80471121D01*
X84485342Y-80517614D01*
X84433000Y-80529000D01*
X84177000Y-80529000D01*
X84108879Y-80508998D01*
X84062386Y-80455342D01*
X84051000Y-80403000D01*
X84051000Y-78485115D01*
X84046525Y-78469876D01*
X84045135Y-78468671D01*
X84037452Y-78467000D01*
X83843862Y-78467000D01*
X83838935Y-78467193D01*
X83767870Y-78472786D01*
X83756543Y-78474733D01*
X83584110Y-78520936D01*
X83571864Y-78525637D01*
X83413547Y-78606304D01*
X83402536Y-78613454D01*
X83264451Y-78725274D01*
X83255174Y-78734551D01*
X83143355Y-78872635D01*
X83140971Y-78876306D01*
X83087094Y-78922541D01*
X83016772Y-78932309D01*
X82952333Y-78902508D01*
X82932029Y-78879076D01*
X82931222Y-78877492D01*
X82811031Y-78729069D01*
X82662608Y-78608878D01*
X82492439Y-78522173D01*
X82486065Y-78520465D01*
X82313537Y-78474236D01*
X82313536Y-78474236D01*
X82307961Y-78472742D01*
X82302207Y-78472289D01*
X82302206Y-78472289D01*
X82231104Y-78466693D01*
X82231093Y-78466693D01*
X82228646Y-78466500D01*
X81301354Y-78466500D01*
X81298907Y-78466693D01*
X81298896Y-78466693D01*
X81227794Y-78472289D01*
X81227793Y-78472289D01*
X81222039Y-78472742D01*
X81216464Y-78474236D01*
X81216463Y-78474236D01*
X81043935Y-78520465D01*
X81037561Y-78522173D01*
X80867392Y-78608878D01*
X80718969Y-78729069D01*
X80718337Y-78728289D01*
X80661283Y-78759444D01*
X80590468Y-78754379D01*
X80533632Y-78711832D01*
X80508821Y-78645312D01*
X80508500Y-78636323D01*
X80508500Y-65473604D01*
X80528502Y-65405483D01*
X80582158Y-65358990D01*
X80652432Y-65348886D01*
X80716958Y-65378355D01*
X80719055Y-65380945D01*
X80724186Y-65385100D01*
X80862337Y-65496973D01*
X80862341Y-65496976D01*
X80867470Y-65501129D01*
X80873347Y-65504124D01*
X80873351Y-65504126D01*
X81031064Y-65584484D01*
X81037629Y-65587829D01*
X81044002Y-65589537D01*
X81044003Y-65589537D01*
X81216519Y-65635763D01*
X81216523Y-65635764D01*
X81222096Y-65637257D01*
X81231825Y-65638023D01*
X81298963Y-65643307D01*
X81298970Y-65643307D01*
X81301419Y-65643500D01*
X81764812Y-65643500D01*
X82228580Y-65643499D01*
X82277947Y-65639614D01*
X82302150Y-65637710D01*
X82302152Y-65637710D01*
X82307904Y-65637257D01*
X82492371Y-65587829D01*
X82498936Y-65584484D01*
X82656649Y-65504126D01*
X82656653Y-65504124D01*
X82662530Y-65501129D01*
X82667659Y-65496976D01*
X82667663Y-65496973D01*
X82805814Y-65385100D01*
X82810945Y-65380945D01*
X82870015Y-65308000D01*
X82926973Y-65237663D01*
X82926976Y-65237659D01*
X82931129Y-65232530D01*
X82931166Y-65232458D01*
X82983208Y-65187798D01*
X83053530Y-65178031D01*
X83117968Y-65207833D01*
X83138162Y-65231139D01*
X83138871Y-65232530D01*
X83143024Y-65237659D01*
X83143027Y-65237663D01*
X83199985Y-65308000D01*
X83259055Y-65380945D01*
X83264186Y-65385100D01*
X83402337Y-65496973D01*
X83402341Y-65496976D01*
X83407470Y-65501129D01*
X83413347Y-65504124D01*
X83413351Y-65504126D01*
X83571064Y-65584484D01*
X83577629Y-65587829D01*
X83584002Y-65589537D01*
X83584003Y-65589537D01*
X83756519Y-65635763D01*
X83756523Y-65635764D01*
X83762096Y-65637257D01*
X83771825Y-65638023D01*
X83838963Y-65643307D01*
X83838970Y-65643307D01*
X83841419Y-65643500D01*
X84304812Y-65643500D01*
X84768580Y-65643499D01*
X84817947Y-65639614D01*
X84842150Y-65637710D01*
X84842152Y-65637710D01*
X84847904Y-65637257D01*
X85032371Y-65587829D01*
X85038936Y-65584484D01*
X85196649Y-65504126D01*
X85196653Y-65504124D01*
X85202530Y-65501129D01*
X85207659Y-65496976D01*
X85207663Y-65496973D01*
X85345814Y-65385100D01*
X85350945Y-65380945D01*
X85410015Y-65308000D01*
X85466973Y-65237663D01*
X85466976Y-65237659D01*
X85471129Y-65232530D01*
X85471166Y-65232458D01*
X85523208Y-65187798D01*
X85593530Y-65178031D01*
X85657968Y-65207833D01*
X85678162Y-65231139D01*
X85678871Y-65232530D01*
X85683024Y-65237659D01*
X85683027Y-65237663D01*
X85739985Y-65308000D01*
X85799055Y-65380945D01*
X85804186Y-65385100D01*
X85942337Y-65496973D01*
X85942341Y-65496976D01*
X85947470Y-65501129D01*
X85953347Y-65504124D01*
X85953351Y-65504126D01*
X86111064Y-65584484D01*
X86117629Y-65587829D01*
X86124002Y-65589537D01*
X86124003Y-65589537D01*
X86296519Y-65635763D01*
X86296523Y-65635764D01*
X86302096Y-65637257D01*
X86311825Y-65638023D01*
X86378963Y-65643307D01*
X86378970Y-65643307D01*
X86381419Y-65643500D01*
X86844812Y-65643500D01*
X87308580Y-65643499D01*
X87357947Y-65639614D01*
X87382150Y-65637710D01*
X87382152Y-65637710D01*
X87387904Y-65637257D01*
X87572371Y-65587829D01*
X87578936Y-65584484D01*
X87736649Y-65504126D01*
X87736653Y-65504124D01*
X87742530Y-65501129D01*
X87747659Y-65496976D01*
X87747663Y-65496973D01*
X87885814Y-65385100D01*
X87890945Y-65380945D01*
X87950015Y-65308000D01*
X88006973Y-65237663D01*
X88006976Y-65237659D01*
X88011129Y-65232530D01*
X88011166Y-65232458D01*
X88063208Y-65187798D01*
X88133530Y-65178031D01*
X88197968Y-65207833D01*
X88218162Y-65231139D01*
X88218871Y-65232530D01*
X88223024Y-65237659D01*
X88223027Y-65237663D01*
X88279985Y-65308000D01*
X88339055Y-65380945D01*
X88344186Y-65385100D01*
X88482337Y-65496973D01*
X88482341Y-65496976D01*
X88487470Y-65501129D01*
X88493347Y-65504124D01*
X88493351Y-65504126D01*
X88651064Y-65584484D01*
X88657629Y-65587829D01*
X88664002Y-65589537D01*
X88664003Y-65589537D01*
X88836519Y-65635763D01*
X88836523Y-65635764D01*
X88842096Y-65637257D01*
X88851825Y-65638023D01*
X88918963Y-65643307D01*
X88918970Y-65643307D01*
X88921419Y-65643500D01*
X89384812Y-65643500D01*
X89848580Y-65643499D01*
X89897947Y-65639614D01*
X89922150Y-65637710D01*
X89922152Y-65637710D01*
X89927904Y-65637257D01*
X90112371Y-65587829D01*
X90118936Y-65584484D01*
X90276649Y-65504126D01*
X90276653Y-65504124D01*
X90282530Y-65501129D01*
X90287659Y-65496976D01*
X90287663Y-65496973D01*
X90425814Y-65385100D01*
X90430945Y-65380945D01*
X90490015Y-65308000D01*
X90546973Y-65237663D01*
X90546976Y-65237659D01*
X90551129Y-65232530D01*
X90551166Y-65232458D01*
X90603208Y-65187798D01*
X90673530Y-65178031D01*
X90737968Y-65207833D01*
G37*
%TD.AperFunction*%
%TA.AperFunction,Conductor*%
G36*
X112460802Y-71036485D02*
G01*
X112518946Y-71077225D01*
X112545835Y-71142933D01*
X112546500Y-71155866D01*
X112546500Y-72755405D01*
X112526498Y-72823526D01*
X112509595Y-72844500D01*
X105774500Y-79579595D01*
X105712188Y-79613621D01*
X105685405Y-79616500D01*
X103519600Y-79616500D01*
X103451479Y-79596498D01*
X103404986Y-79542842D01*
X103393600Y-79490500D01*
X103393600Y-79311454D01*
X103387358Y-79232139D01*
X103337927Y-79047661D01*
X103251222Y-78877492D01*
X103131031Y-78729069D01*
X103109745Y-78711832D01*
X103039341Y-78654819D01*
X102998989Y-78596404D01*
X102996625Y-78525447D01*
X103032998Y-78464476D01*
X103096560Y-78432848D01*
X103118632Y-78430899D01*
X103864448Y-78430899D01*
X103913395Y-78427047D01*
X103937459Y-78425154D01*
X103937461Y-78425154D01*
X103943213Y-78424701D01*
X104126401Y-78375616D01*
X104249832Y-78312725D01*
X104289499Y-78292514D01*
X104289502Y-78292512D01*
X104295380Y-78289517D01*
X104300509Y-78285364D01*
X104300513Y-78285361D01*
X104437635Y-78174321D01*
X104442766Y-78170166D01*
X104448286Y-78163349D01*
X104557961Y-78027913D01*
X104557964Y-78027909D01*
X104562117Y-78022780D01*
X104571864Y-78003652D01*
X104629211Y-77891100D01*
X104648216Y-77853801D01*
X104649530Y-77848896D01*
X104692271Y-77792919D01*
X104759024Y-77768741D01*
X104766818Y-77768500D01*
X105286233Y-77768500D01*
X105297416Y-77769027D01*
X105304909Y-77770702D01*
X105312835Y-77770453D01*
X105312836Y-77770453D01*
X105372986Y-77768562D01*
X105376945Y-77768500D01*
X105404856Y-77768500D01*
X105408791Y-77768003D01*
X105408856Y-77767995D01*
X105420693Y-77767062D01*
X105452951Y-77766048D01*
X105456970Y-77765922D01*
X105464889Y-77765673D01*
X105484343Y-77760021D01*
X105503700Y-77756013D01*
X105515930Y-77754468D01*
X105515931Y-77754468D01*
X105523797Y-77753474D01*
X105531168Y-77750555D01*
X105531170Y-77750555D01*
X105564912Y-77737196D01*
X105576142Y-77733351D01*
X105610983Y-77723229D01*
X105610984Y-77723229D01*
X105618593Y-77721018D01*
X105625412Y-77716985D01*
X105625417Y-77716983D01*
X105636028Y-77710707D01*
X105653776Y-77702012D01*
X105672617Y-77694552D01*
X105708387Y-77668564D01*
X105718307Y-77662048D01*
X105749535Y-77643580D01*
X105749538Y-77643578D01*
X105756362Y-77639542D01*
X105770683Y-77625221D01*
X105785717Y-77612380D01*
X105795694Y-77605131D01*
X105802107Y-77600472D01*
X105830298Y-77566395D01*
X105838288Y-77557616D01*
X112302253Y-71093652D01*
X112310539Y-71086112D01*
X112317018Y-71082000D01*
X112328649Y-71069614D01*
X112389862Y-71033648D01*
X112460802Y-71036485D01*
G37*
%TD.AperFunction*%
%TD*%
M02*
