%TF.GenerationSoftware,KiCad,Pcbnew,(6.0.7-1)-1*%
%TF.CreationDate,2023-01-15T18:13:01-08:00*%
%TF.ProjectId,NeoGeoDB15Wireless,4e656f47-656f-4444-9231-35576972656c,rev?*%
%TF.SameCoordinates,Original*%
%TF.FileFunction,Copper,L2,Bot*%
%TF.FilePolarity,Positive*%
%FSLAX46Y46*%
G04 Gerber Fmt 4.6, Leading zero omitted, Abs format (unit mm)*
G04 Created by KiCad (PCBNEW (6.0.7-1)-1) date 2023-01-15 18:13:01*
%MOMM*%
%LPD*%
G01*
G04 APERTURE LIST*
G04 Aperture macros list*
%AMRoundRect*
0 Rectangle with rounded corners*
0 $1 Rounding radius*
0 $2 $3 $4 $5 $6 $7 $8 $9 X,Y pos of 4 corners*
0 Add a 4 corners polygon primitive as box body*
4,1,4,$2,$3,$4,$5,$6,$7,$8,$9,$2,$3,0*
0 Add four circle primitives for the rounded corners*
1,1,$1+$1,$2,$3*
1,1,$1+$1,$4,$5*
1,1,$1+$1,$6,$7*
1,1,$1+$1,$8,$9*
0 Add four rect primitives between the rounded corners*
20,1,$1+$1,$2,$3,$4,$5,0*
20,1,$1+$1,$4,$5,$6,$7,0*
20,1,$1+$1,$6,$7,$8,$9,0*
20,1,$1+$1,$8,$9,$2,$3,0*%
G04 Aperture macros list end*
%TA.AperFunction,ComponentPad*%
%ADD10RoundRect,0.400000X0.400000X-0.900000X0.400000X0.900000X-0.400000X0.900000X-0.400000X-0.900000X0*%
%TD*%
%TA.AperFunction,ComponentPad*%
%ADD11RoundRect,0.400050X0.400050X-0.899950X0.400050X0.899950X-0.400050X0.899950X-0.400050X-0.899950X0*%
%TD*%
%TA.AperFunction,ComponentPad*%
%ADD12RoundRect,0.400000X0.900000X-0.400000X0.900000X0.400000X-0.900000X0.400000X-0.900000X-0.400000X0*%
%TD*%
%TA.AperFunction,ComponentPad*%
%ADD13RoundRect,0.393700X0.906300X-0.393700X0.906300X0.393700X-0.906300X0.393700X-0.906300X-0.393700X0*%
%TD*%
%TA.AperFunction,WasherPad*%
%ADD14C,4.825000*%
%TD*%
%TA.AperFunction,ComponentPad*%
%ADD15C,1.591397*%
%TD*%
%TA.AperFunction,SMDPad,CuDef*%
%ADD16R,1.000000X2.000000*%
%TD*%
%TA.AperFunction,ViaPad*%
%ADD17C,0.800000*%
%TD*%
%TA.AperFunction,Conductor*%
%ADD18C,0.400000*%
%TD*%
%TA.AperFunction,Conductor*%
%ADD19C,0.250000*%
%TD*%
G04 APERTURE END LIST*
D10*
%TO.P,U1,1,GP0*%
%TO.N,/DU*%
X81765000Y-63835000D03*
%TO.P,U1,2,GP1*%
%TO.N,/DD*%
X84305000Y-63835000D03*
%TO.P,U1,3,GP2*%
%TO.N,/DL*%
X86845000Y-63835000D03*
%TO.P,U1,4,GP3*%
%TO.N,/DR*%
X89385000Y-63835000D03*
%TO.P,U1,5,GP4*%
%TO.N,/BA*%
X91925000Y-63835000D03*
D11*
%TO.P,U1,6,GP5*%
%TO.N,/BB*%
X94465000Y-63835000D03*
%TO.P,U1,7,GP6*%
%TO.N,/BC*%
X97005000Y-63835000D03*
%TO.P,U1,8,GP7*%
%TO.N,/BD*%
X99545000Y-63835000D03*
%TO.P,U1,9,GP8*%
%TO.N,/STA*%
X102085000Y-63835000D03*
D12*
%TO.P,U1,10,GP9*%
%TO.N,/SEL*%
X102895000Y-66975000D03*
D13*
%TO.P,U1,11,GP10*%
%TO.N,unconnected-(U1-Pad11)*%
X102895000Y-69515000D03*
%TO.P,U1,12,GP11*%
%TO.N,unconnected-(U1-Pad12)*%
X102895000Y-72055000D03*
%TO.P,U1,13,GP12*%
%TO.N,/MISO*%
X102895000Y-74595000D03*
%TO.P,U1,14,GP13*%
%TO.N,/CS*%
X102895000Y-77135000D03*
D11*
%TO.P,U1,15,GP14*%
%TO.N,/SCK*%
X102085000Y-80275000D03*
%TO.P,U1,16,GP15*%
%TO.N,/MOSI*%
X99545000Y-80275000D03*
%TO.P,U1,17,GP26*%
%TO.N,/CE*%
X97005000Y-80275000D03*
%TO.P,U1,18,GP27*%
%TO.N,/IRQ*%
X94465000Y-80275000D03*
%TO.P,U1,19,GP28*%
%TO.N,unconnected-(U1-Pad19)*%
X81765000Y-80275000D03*
%TO.P,U1,20,GP29*%
%TO.N,unconnected-(U1-Pad20)*%
X84305000Y-80275000D03*
%TO.P,U1,21,3V3*%
%TO.N,/3V3*%
X86845000Y-80275000D03*
%TO.P,U1,22,5V*%
%TO.N,/VCC*%
X91925000Y-80275000D03*
%TO.P,U1,23,GND*%
%TO.N,/GND*%
X89385000Y-80275000D03*
%TD*%
D14*
%TO.P,J1,*%
%TO.N,*%
X116662400Y-86450800D03*
X83337600Y-86450800D03*
D15*
%TO.P,J1,1,1*%
%TO.N,/GND*%
X109601192Y-85028400D03*
%TO.P,J1,2,2*%
%TO.N,unconnected-(J1-Pad2)*%
X106857993Y-85028400D03*
%TO.P,J1,3,3*%
%TO.N,/SEL*%
X104114794Y-85028400D03*
%TO.P,J1,4,4*%
%TO.N,/BD*%
X101371595Y-85028400D03*
%TO.P,J1,5,5*%
%TO.N,/BB*%
X98628396Y-85028400D03*
%TO.P,J1,6,6*%
%TO.N,/DR*%
X95885197Y-85028400D03*
%TO.P,J1,7,7*%
%TO.N,/DD*%
X93141998Y-85028400D03*
%TO.P,J1,8,8*%
%TO.N,/VCC*%
X90398799Y-85028400D03*
%TO.P,J1,9,P9*%
%TO.N,unconnected-(J1-Pad9)*%
X108229600Y-87873200D03*
%TO.P,J1,10,P10*%
%TO.N,unconnected-(J1-Pad10)*%
X105486401Y-87873200D03*
%TO.P,J1,11,P111*%
%TO.N,/STA*%
X102743202Y-87873200D03*
%TO.P,J1,12,P12*%
%TO.N,/BC*%
X100000003Y-87873200D03*
%TO.P,J1,13,P13*%
%TO.N,/BA*%
X97256804Y-87873200D03*
%TO.P,J1,14,P14*%
%TO.N,/DL*%
X94513605Y-87873200D03*
%TO.P,J1,15,P15*%
%TO.N,/DU*%
X91770406Y-87873200D03*
%TD*%
D16*
%TO.P,U2,1,GND*%
%TO.N,/GND*%
X109370000Y-63800000D03*
%TO.P,U2,2,VCC*%
%TO.N,/3V3*%
X108100000Y-63800000D03*
%TO.P,U2,3,CE*%
%TO.N,/CE*%
X110640000Y-63800000D03*
%TO.P,U2,4,~{CSN}*%
%TO.N,/CS*%
X111910000Y-63800000D03*
%TO.P,U2,5,SCK*%
%TO.N,/SCK*%
X113180000Y-63800000D03*
%TO.P,U2,6,MOSI*%
%TO.N,/MOSI*%
X114450000Y-63800000D03*
%TO.P,U2,7,MISO*%
%TO.N,/MISO*%
X115720000Y-63800000D03*
%TO.P,U2,8,IRQ*%
%TO.N,/IRQ*%
X116990000Y-63800000D03*
%TD*%
D17*
%TO.N,/MISO*%
X110000000Y-70000000D03*
X115500000Y-70000000D03*
%TD*%
D18*
%TO.N,/3V3*%
X86845000Y-79675000D02*
X86845000Y-79655000D01*
X86845000Y-79655000D02*
X100900000Y-65600000D01*
X106300000Y-65600000D02*
X108100000Y-63800000D01*
X100900000Y-65600000D02*
X106300000Y-65600000D01*
D19*
%TO.N,/MISO*%
X102295000Y-74595000D02*
X105405000Y-74595000D01*
X115720000Y-69780000D02*
X115720000Y-63800000D01*
X115500000Y-70000000D02*
X115720000Y-69780000D01*
X105405000Y-74595000D02*
X110000000Y-70000000D01*
%TO.N,/CS*%
X111910000Y-63800000D02*
X111910000Y-70590000D01*
X111910000Y-70590000D02*
X105365000Y-77135000D01*
X105365000Y-77135000D02*
X102295000Y-77135000D01*
%TO.N,/SCK*%
X102660000Y-80250000D02*
X102085000Y-79675000D01*
X113180000Y-73070000D02*
X106000000Y-80250000D01*
X106000000Y-80250000D02*
X102660000Y-80250000D01*
X113180000Y-63800000D02*
X113180000Y-73070000D01*
%TO.N,/MOSI*%
X99545000Y-80795000D02*
X99545000Y-79675000D01*
X109500000Y-82500000D02*
X101250000Y-82500000D01*
X114500000Y-77500000D02*
X109500000Y-82500000D01*
X101250000Y-82500000D02*
X99545000Y-80795000D01*
X114500000Y-63850000D02*
X114500000Y-77500000D01*
X114450000Y-63800000D02*
X114500000Y-63850000D01*
%TO.N,/CE*%
X104377400Y-70942600D02*
X101307400Y-70942600D01*
X110640000Y-64680000D02*
X104377400Y-70942600D01*
X110640000Y-63800000D02*
X110640000Y-64680000D01*
X101307400Y-70942600D02*
X97005000Y-75245000D01*
X97005000Y-75245000D02*
X97005000Y-79675000D01*
%TO.N,/IRQ*%
X116990000Y-63800000D02*
X116990000Y-77510000D01*
X116990000Y-77510000D02*
X111250000Y-83250000D01*
X94465000Y-80465000D02*
X94465000Y-79675000D01*
X97250000Y-83250000D02*
X94465000Y-80465000D01*
X111250000Y-83250000D02*
X97250000Y-83250000D01*
%TD*%
%TA.AperFunction,Conductor*%
%TO.N,/GND*%
G36*
X119333621Y-62028502D02*
G01*
X119380114Y-62082158D01*
X119391500Y-62134500D01*
X119391500Y-84864464D01*
X119371498Y-84932585D01*
X119317842Y-84979078D01*
X119247568Y-84989182D01*
X119182988Y-84959688D01*
X119156052Y-84926892D01*
X119118099Y-84860353D01*
X119116308Y-84857213D01*
X118916883Y-84585729D01*
X118912149Y-84580634D01*
X118690048Y-84341626D01*
X118690046Y-84341625D01*
X118687576Y-84338966D01*
X118684822Y-84336614D01*
X118684818Y-84336610D01*
X118591046Y-84256521D01*
X118431427Y-84120193D01*
X118428424Y-84118175D01*
X118428416Y-84118169D01*
X118201171Y-83965468D01*
X118151830Y-83932312D01*
X118148621Y-83930656D01*
X118148613Y-83930651D01*
X117855711Y-83779474D01*
X117855712Y-83779474D01*
X117852491Y-83777812D01*
X117537378Y-83658741D01*
X117210668Y-83576677D01*
X117069862Y-83558139D01*
X116880295Y-83533182D01*
X116880287Y-83533181D01*
X116876691Y-83532708D01*
X116737023Y-83530514D01*
X116543516Y-83527474D01*
X116543512Y-83527474D01*
X116539874Y-83527417D01*
X116536259Y-83527778D01*
X116536254Y-83527778D01*
X116297735Y-83551585D01*
X116204681Y-83560873D01*
X115875554Y-83632634D01*
X115872127Y-83633807D01*
X115872121Y-83633809D01*
X115560288Y-83740574D01*
X115560283Y-83740576D01*
X115556857Y-83741749D01*
X115553589Y-83743308D01*
X115553581Y-83743311D01*
X115408589Y-83812469D01*
X115252813Y-83886770D01*
X114967452Y-84065777D01*
X114964616Y-84068049D01*
X114964609Y-84068054D01*
X114896586Y-84122551D01*
X114704557Y-84276395D01*
X114467613Y-84515835D01*
X114465377Y-84518687D01*
X114465375Y-84518689D01*
X114311722Y-84714649D01*
X114259758Y-84780921D01*
X114257865Y-84784010D01*
X114257863Y-84784013D01*
X114104748Y-85033875D01*
X114083750Y-85068140D01*
X114082231Y-85071412D01*
X114082228Y-85071418D01*
X114048816Y-85143399D01*
X113941920Y-85373686D01*
X113940780Y-85377133D01*
X113837288Y-85690062D01*
X113837285Y-85690072D01*
X113836149Y-85693508D01*
X113835413Y-85697063D01*
X113835412Y-85697066D01*
X113825126Y-85746736D01*
X113767839Y-86023368D01*
X113749295Y-86231146D01*
X113741529Y-86318170D01*
X113737894Y-86358894D01*
X113737989Y-86362524D01*
X113737989Y-86362525D01*
X113745112Y-86634522D01*
X113746712Y-86695637D01*
X113794176Y-87029135D01*
X113879656Y-87354968D01*
X114002021Y-87668817D01*
X114003725Y-87672035D01*
X114133322Y-87916801D01*
X114159647Y-87966521D01*
X114161699Y-87969506D01*
X114161704Y-87969515D01*
X114348389Y-88241143D01*
X114348395Y-88241150D01*
X114350446Y-88244135D01*
X114571889Y-88497980D01*
X114821040Y-88724690D01*
X115094598Y-88921261D01*
X115388936Y-89085088D01*
X115700153Y-89213998D01*
X115703647Y-89214993D01*
X115703649Y-89214994D01*
X116020623Y-89305287D01*
X116020628Y-89305288D01*
X116024124Y-89306284D01*
X116186748Y-89332914D01*
X116352974Y-89360135D01*
X116352981Y-89360136D01*
X116356555Y-89360721D01*
X116524797Y-89368655D01*
X116689413Y-89376419D01*
X116689414Y-89376419D01*
X116693040Y-89376590D01*
X116699980Y-89376117D01*
X117025487Y-89353926D01*
X117025494Y-89353925D01*
X117029119Y-89353678D01*
X117032695Y-89353015D01*
X117032697Y-89353015D01*
X117356772Y-89292951D01*
X117356776Y-89292950D01*
X117360337Y-89292290D01*
X117682304Y-89193240D01*
X117708136Y-89181901D01*
X117987439Y-89059296D01*
X117990754Y-89057841D01*
X118281596Y-88887886D01*
X118498953Y-88724690D01*
X118548070Y-88687812D01*
X118548074Y-88687809D01*
X118550977Y-88685629D01*
X118795326Y-88453751D01*
X119011404Y-88195324D01*
X119070178Y-88105850D01*
X119160188Y-87968822D01*
X119214306Y-87922868D01*
X119284677Y-87913467D01*
X119348960Y-87943604D01*
X119386745Y-88003711D01*
X119391500Y-88037999D01*
X119391500Y-90065500D01*
X119371498Y-90133621D01*
X119317842Y-90180114D01*
X119265500Y-90191500D01*
X80634500Y-90191500D01*
X80566379Y-90171498D01*
X80519886Y-90117842D01*
X80508500Y-90065500D01*
X80508500Y-87857401D01*
X80528502Y-87789280D01*
X80582158Y-87742787D01*
X80652432Y-87732683D01*
X80717012Y-87762177D01*
X80745852Y-87798438D01*
X80834847Y-87966521D01*
X80836899Y-87969506D01*
X80836904Y-87969515D01*
X81023589Y-88241143D01*
X81023595Y-88241150D01*
X81025646Y-88244135D01*
X81247089Y-88497980D01*
X81496240Y-88724690D01*
X81769798Y-88921261D01*
X82064136Y-89085088D01*
X82375353Y-89213998D01*
X82378847Y-89214993D01*
X82378849Y-89214994D01*
X82695823Y-89305287D01*
X82695828Y-89305288D01*
X82699324Y-89306284D01*
X82861948Y-89332914D01*
X83028174Y-89360135D01*
X83028181Y-89360136D01*
X83031755Y-89360721D01*
X83199997Y-89368655D01*
X83364613Y-89376419D01*
X83364614Y-89376419D01*
X83368240Y-89376590D01*
X83375180Y-89376117D01*
X83700687Y-89353926D01*
X83700694Y-89353925D01*
X83704319Y-89353678D01*
X83707895Y-89353015D01*
X83707897Y-89353015D01*
X84031972Y-89292951D01*
X84031976Y-89292950D01*
X84035537Y-89292290D01*
X84357504Y-89193240D01*
X84383336Y-89181901D01*
X84662639Y-89059296D01*
X84665954Y-89057841D01*
X84956796Y-88887886D01*
X85174153Y-88724690D01*
X85223270Y-88687812D01*
X85223274Y-88687809D01*
X85226177Y-88685629D01*
X85470526Y-88453751D01*
X85686604Y-88195324D01*
X85692105Y-88186950D01*
X85869560Y-87916801D01*
X85869565Y-87916792D01*
X85871547Y-87913775D01*
X85891954Y-87873200D01*
X90461226Y-87873200D01*
X90481115Y-88100537D01*
X90540179Y-88320966D01*
X90542501Y-88325946D01*
X90542502Y-88325948D01*
X90634297Y-88522803D01*
X90634300Y-88522808D01*
X90636623Y-88527790D01*
X90639779Y-88532297D01*
X90639780Y-88532299D01*
X90747143Y-88685629D01*
X90767516Y-88714725D01*
X90928881Y-88876090D01*
X90933389Y-88879247D01*
X90933392Y-88879249D01*
X91111307Y-89003826D01*
X91115816Y-89006983D01*
X91120798Y-89009306D01*
X91120803Y-89009309D01*
X91279527Y-89083323D01*
X91322640Y-89103427D01*
X91327948Y-89104849D01*
X91327950Y-89104850D01*
X91396419Y-89123196D01*
X91543069Y-89162491D01*
X91770406Y-89182380D01*
X91997743Y-89162491D01*
X92144393Y-89123196D01*
X92212862Y-89104850D01*
X92212864Y-89104849D01*
X92218172Y-89103427D01*
X92261285Y-89083323D01*
X92420009Y-89009309D01*
X92420014Y-89009306D01*
X92424996Y-89006983D01*
X92429505Y-89003826D01*
X92607420Y-88879249D01*
X92607423Y-88879247D01*
X92611931Y-88876090D01*
X92773296Y-88714725D01*
X92793670Y-88685629D01*
X92901032Y-88532299D01*
X92901033Y-88532297D01*
X92904189Y-88527790D01*
X92906512Y-88522808D01*
X92906515Y-88522803D01*
X92998310Y-88325948D01*
X92998311Y-88325946D01*
X93000633Y-88320966D01*
X93002056Y-88315656D01*
X93002059Y-88315648D01*
X93020300Y-88247573D01*
X93057252Y-88186950D01*
X93121112Y-88155929D01*
X93191607Y-88164359D01*
X93246353Y-88209562D01*
X93263712Y-88247572D01*
X93283378Y-88320966D01*
X93285700Y-88325946D01*
X93285701Y-88325948D01*
X93377496Y-88522803D01*
X93377499Y-88522808D01*
X93379822Y-88527790D01*
X93382978Y-88532297D01*
X93382979Y-88532299D01*
X93490342Y-88685629D01*
X93510715Y-88714725D01*
X93672080Y-88876090D01*
X93676588Y-88879247D01*
X93676591Y-88879249D01*
X93854506Y-89003826D01*
X93859015Y-89006983D01*
X93863997Y-89009306D01*
X93864002Y-89009309D01*
X94022726Y-89083323D01*
X94065839Y-89103427D01*
X94071147Y-89104849D01*
X94071149Y-89104850D01*
X94139618Y-89123196D01*
X94286268Y-89162491D01*
X94513605Y-89182380D01*
X94740942Y-89162491D01*
X94887592Y-89123196D01*
X94956061Y-89104850D01*
X94956063Y-89104849D01*
X94961371Y-89103427D01*
X95004484Y-89083323D01*
X95163208Y-89009309D01*
X95163213Y-89009306D01*
X95168195Y-89006983D01*
X95172704Y-89003826D01*
X95350619Y-88879249D01*
X95350622Y-88879247D01*
X95355130Y-88876090D01*
X95516495Y-88714725D01*
X95536869Y-88685629D01*
X95644231Y-88532299D01*
X95644232Y-88532297D01*
X95647388Y-88527790D01*
X95649711Y-88522808D01*
X95649714Y-88522803D01*
X95741509Y-88325948D01*
X95741510Y-88325946D01*
X95743832Y-88320966D01*
X95745255Y-88315656D01*
X95745258Y-88315648D01*
X95763499Y-88247573D01*
X95800451Y-88186950D01*
X95864311Y-88155929D01*
X95934806Y-88164359D01*
X95989552Y-88209562D01*
X96006911Y-88247572D01*
X96026577Y-88320966D01*
X96028899Y-88325946D01*
X96028900Y-88325948D01*
X96120695Y-88522803D01*
X96120698Y-88522808D01*
X96123021Y-88527790D01*
X96126177Y-88532297D01*
X96126178Y-88532299D01*
X96233541Y-88685629D01*
X96253914Y-88714725D01*
X96415279Y-88876090D01*
X96419787Y-88879247D01*
X96419790Y-88879249D01*
X96597705Y-89003826D01*
X96602214Y-89006983D01*
X96607196Y-89009306D01*
X96607201Y-89009309D01*
X96765925Y-89083323D01*
X96809038Y-89103427D01*
X96814346Y-89104849D01*
X96814348Y-89104850D01*
X96882817Y-89123196D01*
X97029467Y-89162491D01*
X97256804Y-89182380D01*
X97484141Y-89162491D01*
X97630791Y-89123196D01*
X97699260Y-89104850D01*
X97699262Y-89104849D01*
X97704570Y-89103427D01*
X97747683Y-89083323D01*
X97906407Y-89009309D01*
X97906412Y-89009306D01*
X97911394Y-89006983D01*
X97915903Y-89003826D01*
X98093818Y-88879249D01*
X98093821Y-88879247D01*
X98098329Y-88876090D01*
X98259694Y-88714725D01*
X98280068Y-88685629D01*
X98387430Y-88532299D01*
X98387431Y-88532297D01*
X98390587Y-88527790D01*
X98392910Y-88522808D01*
X98392913Y-88522803D01*
X98484708Y-88325948D01*
X98484709Y-88325946D01*
X98487031Y-88320966D01*
X98488454Y-88315656D01*
X98488457Y-88315648D01*
X98506698Y-88247573D01*
X98543650Y-88186950D01*
X98607510Y-88155929D01*
X98678005Y-88164359D01*
X98732751Y-88209562D01*
X98750110Y-88247572D01*
X98769776Y-88320966D01*
X98772098Y-88325946D01*
X98772099Y-88325948D01*
X98863894Y-88522803D01*
X98863897Y-88522808D01*
X98866220Y-88527790D01*
X98869376Y-88532297D01*
X98869377Y-88532299D01*
X98976740Y-88685629D01*
X98997113Y-88714725D01*
X99158478Y-88876090D01*
X99162986Y-88879247D01*
X99162989Y-88879249D01*
X99340904Y-89003826D01*
X99345413Y-89006983D01*
X99350395Y-89009306D01*
X99350400Y-89009309D01*
X99509124Y-89083323D01*
X99552237Y-89103427D01*
X99557545Y-89104849D01*
X99557547Y-89104850D01*
X99626016Y-89123196D01*
X99772666Y-89162491D01*
X100000003Y-89182380D01*
X100227340Y-89162491D01*
X100373990Y-89123196D01*
X100442459Y-89104850D01*
X100442461Y-89104849D01*
X100447769Y-89103427D01*
X100490882Y-89083323D01*
X100649606Y-89009309D01*
X100649611Y-89009306D01*
X100654593Y-89006983D01*
X100659102Y-89003826D01*
X100837017Y-88879249D01*
X100837020Y-88879247D01*
X100841528Y-88876090D01*
X101002893Y-88714725D01*
X101023267Y-88685629D01*
X101130629Y-88532299D01*
X101130630Y-88532297D01*
X101133786Y-88527790D01*
X101136109Y-88522808D01*
X101136112Y-88522803D01*
X101227907Y-88325948D01*
X101227908Y-88325946D01*
X101230230Y-88320966D01*
X101231653Y-88315656D01*
X101231656Y-88315648D01*
X101249897Y-88247573D01*
X101286849Y-88186950D01*
X101350709Y-88155929D01*
X101421204Y-88164359D01*
X101475950Y-88209562D01*
X101493309Y-88247572D01*
X101512975Y-88320966D01*
X101515297Y-88325946D01*
X101515298Y-88325948D01*
X101607093Y-88522803D01*
X101607096Y-88522808D01*
X101609419Y-88527790D01*
X101612575Y-88532297D01*
X101612576Y-88532299D01*
X101719939Y-88685629D01*
X101740312Y-88714725D01*
X101901677Y-88876090D01*
X101906185Y-88879247D01*
X101906188Y-88879249D01*
X102084103Y-89003826D01*
X102088612Y-89006983D01*
X102093594Y-89009306D01*
X102093599Y-89009309D01*
X102252323Y-89083323D01*
X102295436Y-89103427D01*
X102300744Y-89104849D01*
X102300746Y-89104850D01*
X102369215Y-89123196D01*
X102515865Y-89162491D01*
X102743202Y-89182380D01*
X102970539Y-89162491D01*
X103117189Y-89123196D01*
X103185658Y-89104850D01*
X103185660Y-89104849D01*
X103190968Y-89103427D01*
X103234081Y-89083323D01*
X103392805Y-89009309D01*
X103392810Y-89009306D01*
X103397792Y-89006983D01*
X103402301Y-89003826D01*
X103580216Y-88879249D01*
X103580219Y-88879247D01*
X103584727Y-88876090D01*
X103746092Y-88714725D01*
X103766466Y-88685629D01*
X103873828Y-88532299D01*
X103873829Y-88532297D01*
X103876985Y-88527790D01*
X103879308Y-88522808D01*
X103879311Y-88522803D01*
X103971106Y-88325948D01*
X103971107Y-88325946D01*
X103973429Y-88320966D01*
X103974852Y-88315656D01*
X103974855Y-88315648D01*
X103993096Y-88247573D01*
X104030048Y-88186950D01*
X104093908Y-88155929D01*
X104164403Y-88164359D01*
X104219149Y-88209562D01*
X104236508Y-88247572D01*
X104256174Y-88320966D01*
X104258496Y-88325946D01*
X104258497Y-88325948D01*
X104350292Y-88522803D01*
X104350295Y-88522808D01*
X104352618Y-88527790D01*
X104355774Y-88532297D01*
X104355775Y-88532299D01*
X104463138Y-88685629D01*
X104483511Y-88714725D01*
X104644876Y-88876090D01*
X104649384Y-88879247D01*
X104649387Y-88879249D01*
X104827302Y-89003826D01*
X104831811Y-89006983D01*
X104836793Y-89009306D01*
X104836798Y-89009309D01*
X104995522Y-89083323D01*
X105038635Y-89103427D01*
X105043943Y-89104849D01*
X105043945Y-89104850D01*
X105112414Y-89123196D01*
X105259064Y-89162491D01*
X105486401Y-89182380D01*
X105713738Y-89162491D01*
X105860388Y-89123196D01*
X105928857Y-89104850D01*
X105928859Y-89104849D01*
X105934167Y-89103427D01*
X105977280Y-89083323D01*
X106136004Y-89009309D01*
X106136009Y-89009306D01*
X106140991Y-89006983D01*
X106145500Y-89003826D01*
X106323415Y-88879249D01*
X106323418Y-88879247D01*
X106327926Y-88876090D01*
X106489291Y-88714725D01*
X106509665Y-88685629D01*
X106617027Y-88532299D01*
X106617028Y-88532297D01*
X106620184Y-88527790D01*
X106622507Y-88522808D01*
X106622510Y-88522803D01*
X106714305Y-88325948D01*
X106714306Y-88325946D01*
X106716628Y-88320966D01*
X106718051Y-88315656D01*
X106718054Y-88315648D01*
X106736295Y-88247573D01*
X106773247Y-88186950D01*
X106837107Y-88155929D01*
X106907602Y-88164359D01*
X106962348Y-88209562D01*
X106979707Y-88247572D01*
X106999373Y-88320966D01*
X107001695Y-88325946D01*
X107001696Y-88325948D01*
X107093491Y-88522803D01*
X107093494Y-88522808D01*
X107095817Y-88527790D01*
X107098973Y-88532297D01*
X107098974Y-88532299D01*
X107206337Y-88685629D01*
X107226710Y-88714725D01*
X107388075Y-88876090D01*
X107392583Y-88879247D01*
X107392586Y-88879249D01*
X107570501Y-89003826D01*
X107575010Y-89006983D01*
X107579992Y-89009306D01*
X107579997Y-89009309D01*
X107738721Y-89083323D01*
X107781834Y-89103427D01*
X107787142Y-89104849D01*
X107787144Y-89104850D01*
X107855613Y-89123196D01*
X108002263Y-89162491D01*
X108229600Y-89182380D01*
X108456937Y-89162491D01*
X108603587Y-89123196D01*
X108672056Y-89104850D01*
X108672058Y-89104849D01*
X108677366Y-89103427D01*
X108720479Y-89083323D01*
X108879203Y-89009309D01*
X108879208Y-89009306D01*
X108884190Y-89006983D01*
X108888699Y-89003826D01*
X109066614Y-88879249D01*
X109066617Y-88879247D01*
X109071125Y-88876090D01*
X109232490Y-88714725D01*
X109252864Y-88685629D01*
X109360226Y-88532299D01*
X109360227Y-88532297D01*
X109363383Y-88527790D01*
X109365706Y-88522808D01*
X109365709Y-88522803D01*
X109457504Y-88325948D01*
X109457505Y-88325946D01*
X109459827Y-88320966D01*
X109518891Y-88100537D01*
X109538780Y-87873200D01*
X109518891Y-87645863D01*
X109459827Y-87425434D01*
X109426968Y-87354968D01*
X109365709Y-87223597D01*
X109365706Y-87223592D01*
X109363383Y-87218610D01*
X109360226Y-87214101D01*
X109235649Y-87036186D01*
X109235647Y-87036183D01*
X109232490Y-87031675D01*
X109071125Y-86870310D01*
X109066617Y-86867153D01*
X109066614Y-86867151D01*
X108888699Y-86742574D01*
X108888697Y-86742573D01*
X108884190Y-86739417D01*
X108879208Y-86737094D01*
X108879203Y-86737091D01*
X108682348Y-86645296D01*
X108682346Y-86645295D01*
X108677366Y-86642973D01*
X108672058Y-86641551D01*
X108672056Y-86641550D01*
X108603587Y-86623204D01*
X108456937Y-86583909D01*
X108229600Y-86564020D01*
X108002263Y-86583909D01*
X107855613Y-86623204D01*
X107787144Y-86641550D01*
X107787142Y-86641551D01*
X107781834Y-86642973D01*
X107776854Y-86645295D01*
X107776852Y-86645296D01*
X107579997Y-86737091D01*
X107579992Y-86737094D01*
X107575010Y-86739417D01*
X107570503Y-86742573D01*
X107570501Y-86742574D01*
X107392586Y-86867151D01*
X107392583Y-86867153D01*
X107388075Y-86870310D01*
X107226710Y-87031675D01*
X107223553Y-87036183D01*
X107223551Y-87036186D01*
X107098974Y-87214101D01*
X107095817Y-87218610D01*
X107093494Y-87223592D01*
X107093491Y-87223597D01*
X107032232Y-87354968D01*
X106999373Y-87425434D01*
X106997951Y-87430742D01*
X106997950Y-87430744D01*
X106979708Y-87498826D01*
X106942757Y-87559449D01*
X106878896Y-87590470D01*
X106808402Y-87582042D01*
X106753654Y-87536839D01*
X106736295Y-87498827D01*
X106718054Y-87430752D01*
X106718050Y-87430741D01*
X106716628Y-87425434D01*
X106683769Y-87354968D01*
X106622510Y-87223597D01*
X106622507Y-87223592D01*
X106620184Y-87218610D01*
X106617027Y-87214101D01*
X106492450Y-87036186D01*
X106492448Y-87036183D01*
X106489291Y-87031675D01*
X106327926Y-86870310D01*
X106323418Y-86867153D01*
X106323415Y-86867151D01*
X106145500Y-86742574D01*
X106145498Y-86742573D01*
X106140991Y-86739417D01*
X106136009Y-86737094D01*
X106136004Y-86737091D01*
X105939149Y-86645296D01*
X105939147Y-86645295D01*
X105934167Y-86642973D01*
X105928859Y-86641551D01*
X105928857Y-86641550D01*
X105860388Y-86623204D01*
X105713738Y-86583909D01*
X105486401Y-86564020D01*
X105259064Y-86583909D01*
X105112414Y-86623204D01*
X105043945Y-86641550D01*
X105043943Y-86641551D01*
X105038635Y-86642973D01*
X105033655Y-86645295D01*
X105033653Y-86645296D01*
X104836798Y-86737091D01*
X104836793Y-86737094D01*
X104831811Y-86739417D01*
X104827304Y-86742573D01*
X104827302Y-86742574D01*
X104649387Y-86867151D01*
X104649384Y-86867153D01*
X104644876Y-86870310D01*
X104483511Y-87031675D01*
X104480354Y-87036183D01*
X104480352Y-87036186D01*
X104355775Y-87214101D01*
X104352618Y-87218610D01*
X104350295Y-87223592D01*
X104350292Y-87223597D01*
X104289033Y-87354968D01*
X104256174Y-87425434D01*
X104254752Y-87430742D01*
X104254751Y-87430744D01*
X104236509Y-87498826D01*
X104199558Y-87559449D01*
X104135697Y-87590470D01*
X104065203Y-87582042D01*
X104010455Y-87536839D01*
X103993096Y-87498827D01*
X103974855Y-87430752D01*
X103974851Y-87430741D01*
X103973429Y-87425434D01*
X103940570Y-87354968D01*
X103879311Y-87223597D01*
X103879308Y-87223592D01*
X103876985Y-87218610D01*
X103873828Y-87214101D01*
X103749251Y-87036186D01*
X103749249Y-87036183D01*
X103746092Y-87031675D01*
X103584727Y-86870310D01*
X103580219Y-86867153D01*
X103580216Y-86867151D01*
X103402301Y-86742574D01*
X103402299Y-86742573D01*
X103397792Y-86739417D01*
X103392810Y-86737094D01*
X103392805Y-86737091D01*
X103195950Y-86645296D01*
X103195948Y-86645295D01*
X103190968Y-86642973D01*
X103185660Y-86641551D01*
X103185658Y-86641550D01*
X103117189Y-86623204D01*
X102970539Y-86583909D01*
X102743202Y-86564020D01*
X102515865Y-86583909D01*
X102369215Y-86623204D01*
X102300746Y-86641550D01*
X102300744Y-86641551D01*
X102295436Y-86642973D01*
X102290456Y-86645295D01*
X102290454Y-86645296D01*
X102093599Y-86737091D01*
X102093594Y-86737094D01*
X102088612Y-86739417D01*
X102084105Y-86742573D01*
X102084103Y-86742574D01*
X101906188Y-86867151D01*
X101906185Y-86867153D01*
X101901677Y-86870310D01*
X101740312Y-87031675D01*
X101737155Y-87036183D01*
X101737153Y-87036186D01*
X101612576Y-87214101D01*
X101609419Y-87218610D01*
X101607096Y-87223592D01*
X101607093Y-87223597D01*
X101545834Y-87354968D01*
X101512975Y-87425434D01*
X101511553Y-87430742D01*
X101511552Y-87430744D01*
X101493310Y-87498826D01*
X101456359Y-87559449D01*
X101392498Y-87590470D01*
X101322004Y-87582042D01*
X101267256Y-87536839D01*
X101249897Y-87498827D01*
X101231656Y-87430752D01*
X101231652Y-87430741D01*
X101230230Y-87425434D01*
X101197371Y-87354968D01*
X101136112Y-87223597D01*
X101136109Y-87223592D01*
X101133786Y-87218610D01*
X101130629Y-87214101D01*
X101006052Y-87036186D01*
X101006050Y-87036183D01*
X101002893Y-87031675D01*
X100841528Y-86870310D01*
X100837020Y-86867153D01*
X100837017Y-86867151D01*
X100659102Y-86742574D01*
X100659100Y-86742573D01*
X100654593Y-86739417D01*
X100649611Y-86737094D01*
X100649606Y-86737091D01*
X100452751Y-86645296D01*
X100452749Y-86645295D01*
X100447769Y-86642973D01*
X100442461Y-86641551D01*
X100442459Y-86641550D01*
X100373990Y-86623204D01*
X100227340Y-86583909D01*
X100000003Y-86564020D01*
X99772666Y-86583909D01*
X99626016Y-86623204D01*
X99557547Y-86641550D01*
X99557545Y-86641551D01*
X99552237Y-86642973D01*
X99547257Y-86645295D01*
X99547255Y-86645296D01*
X99350400Y-86737091D01*
X99350395Y-86737094D01*
X99345413Y-86739417D01*
X99340906Y-86742573D01*
X99340904Y-86742574D01*
X99162989Y-86867151D01*
X99162986Y-86867153D01*
X99158478Y-86870310D01*
X98997113Y-87031675D01*
X98993956Y-87036183D01*
X98993954Y-87036186D01*
X98869377Y-87214101D01*
X98866220Y-87218610D01*
X98863897Y-87223592D01*
X98863894Y-87223597D01*
X98802635Y-87354968D01*
X98769776Y-87425434D01*
X98768354Y-87430742D01*
X98768353Y-87430744D01*
X98750111Y-87498826D01*
X98713160Y-87559449D01*
X98649299Y-87590470D01*
X98578805Y-87582042D01*
X98524057Y-87536839D01*
X98506698Y-87498827D01*
X98488457Y-87430752D01*
X98488453Y-87430741D01*
X98487031Y-87425434D01*
X98454172Y-87354968D01*
X98392913Y-87223597D01*
X98392910Y-87223592D01*
X98390587Y-87218610D01*
X98387430Y-87214101D01*
X98262853Y-87036186D01*
X98262851Y-87036183D01*
X98259694Y-87031675D01*
X98098329Y-86870310D01*
X98093821Y-86867153D01*
X98093818Y-86867151D01*
X97915903Y-86742574D01*
X97915901Y-86742573D01*
X97911394Y-86739417D01*
X97906412Y-86737094D01*
X97906407Y-86737091D01*
X97709552Y-86645296D01*
X97709550Y-86645295D01*
X97704570Y-86642973D01*
X97699262Y-86641551D01*
X97699260Y-86641550D01*
X97630791Y-86623204D01*
X97484141Y-86583909D01*
X97256804Y-86564020D01*
X97029467Y-86583909D01*
X96882817Y-86623204D01*
X96814348Y-86641550D01*
X96814346Y-86641551D01*
X96809038Y-86642973D01*
X96804058Y-86645295D01*
X96804056Y-86645296D01*
X96607201Y-86737091D01*
X96607196Y-86737094D01*
X96602214Y-86739417D01*
X96597707Y-86742573D01*
X96597705Y-86742574D01*
X96419790Y-86867151D01*
X96419787Y-86867153D01*
X96415279Y-86870310D01*
X96253914Y-87031675D01*
X96250757Y-87036183D01*
X96250755Y-87036186D01*
X96126178Y-87214101D01*
X96123021Y-87218610D01*
X96120698Y-87223592D01*
X96120695Y-87223597D01*
X96059436Y-87354968D01*
X96026577Y-87425434D01*
X96025155Y-87430742D01*
X96025154Y-87430744D01*
X96006912Y-87498826D01*
X95969961Y-87559449D01*
X95906100Y-87590470D01*
X95835606Y-87582042D01*
X95780858Y-87536839D01*
X95763499Y-87498827D01*
X95745258Y-87430752D01*
X95745254Y-87430741D01*
X95743832Y-87425434D01*
X95710973Y-87354968D01*
X95649714Y-87223597D01*
X95649711Y-87223592D01*
X95647388Y-87218610D01*
X95644231Y-87214101D01*
X95519654Y-87036186D01*
X95519652Y-87036183D01*
X95516495Y-87031675D01*
X95355130Y-86870310D01*
X95350622Y-86867153D01*
X95350619Y-86867151D01*
X95172704Y-86742574D01*
X95172702Y-86742573D01*
X95168195Y-86739417D01*
X95163213Y-86737094D01*
X95163208Y-86737091D01*
X94966353Y-86645296D01*
X94966351Y-86645295D01*
X94961371Y-86642973D01*
X94956063Y-86641551D01*
X94956061Y-86641550D01*
X94887592Y-86623204D01*
X94740942Y-86583909D01*
X94513605Y-86564020D01*
X94286268Y-86583909D01*
X94139618Y-86623204D01*
X94071149Y-86641550D01*
X94071147Y-86641551D01*
X94065839Y-86642973D01*
X94060859Y-86645295D01*
X94060857Y-86645296D01*
X93864002Y-86737091D01*
X93863997Y-86737094D01*
X93859015Y-86739417D01*
X93854508Y-86742573D01*
X93854506Y-86742574D01*
X93676591Y-86867151D01*
X93676588Y-86867153D01*
X93672080Y-86870310D01*
X93510715Y-87031675D01*
X93507558Y-87036183D01*
X93507556Y-87036186D01*
X93382979Y-87214101D01*
X93379822Y-87218610D01*
X93377499Y-87223592D01*
X93377496Y-87223597D01*
X93316237Y-87354968D01*
X93283378Y-87425434D01*
X93281956Y-87430742D01*
X93281955Y-87430744D01*
X93263713Y-87498826D01*
X93226762Y-87559449D01*
X93162901Y-87590470D01*
X93092407Y-87582042D01*
X93037659Y-87536839D01*
X93020300Y-87498827D01*
X93002059Y-87430752D01*
X93002055Y-87430741D01*
X93000633Y-87425434D01*
X92967774Y-87354968D01*
X92906515Y-87223597D01*
X92906512Y-87223592D01*
X92904189Y-87218610D01*
X92901032Y-87214101D01*
X92776455Y-87036186D01*
X92776453Y-87036183D01*
X92773296Y-87031675D01*
X92611931Y-86870310D01*
X92607423Y-86867153D01*
X92607420Y-86867151D01*
X92429505Y-86742574D01*
X92429503Y-86742573D01*
X92424996Y-86739417D01*
X92420014Y-86737094D01*
X92420009Y-86737091D01*
X92223154Y-86645296D01*
X92223152Y-86645295D01*
X92218172Y-86642973D01*
X92212864Y-86641551D01*
X92212862Y-86641550D01*
X92144393Y-86623204D01*
X91997743Y-86583909D01*
X91770406Y-86564020D01*
X91543069Y-86583909D01*
X91396419Y-86623204D01*
X91327950Y-86641550D01*
X91327948Y-86641551D01*
X91322640Y-86642973D01*
X91317660Y-86645295D01*
X91317658Y-86645296D01*
X91120803Y-86737091D01*
X91120798Y-86737094D01*
X91115816Y-86739417D01*
X91111309Y-86742573D01*
X91111307Y-86742574D01*
X90933392Y-86867151D01*
X90933389Y-86867153D01*
X90928881Y-86870310D01*
X90767516Y-87031675D01*
X90764359Y-87036183D01*
X90764357Y-87036186D01*
X90639780Y-87214101D01*
X90636623Y-87218610D01*
X90634300Y-87223592D01*
X90634297Y-87223597D01*
X90573038Y-87354968D01*
X90540179Y-87425434D01*
X90481115Y-87645863D01*
X90461226Y-87873200D01*
X85891954Y-87873200D01*
X86008965Y-87640550D01*
X86021277Y-87616071D01*
X86021280Y-87616063D01*
X86022904Y-87612835D01*
X86024149Y-87609433D01*
X86137421Y-87299904D01*
X86137422Y-87299900D01*
X86138669Y-87296493D01*
X86139514Y-87292971D01*
X86139517Y-87292963D01*
X86216460Y-86972470D01*
X86216461Y-86972466D01*
X86217307Y-86968941D01*
X86229625Y-86867151D01*
X86257440Y-86637301D01*
X86257440Y-86637294D01*
X86257776Y-86634522D01*
X86263550Y-86450800D01*
X86255793Y-86316267D01*
X86244368Y-86118120D01*
X86244367Y-86118115D01*
X86244159Y-86114500D01*
X86230188Y-86034449D01*
X86186867Y-85786230D01*
X86186865Y-85786223D01*
X86186243Y-85782657D01*
X86175628Y-85746819D01*
X86093883Y-85470856D01*
X86090570Y-85459670D01*
X86066302Y-85402774D01*
X85959832Y-85153158D01*
X85959830Y-85153155D01*
X85958408Y-85149820D01*
X85913697Y-85071432D01*
X85793299Y-84860353D01*
X85791508Y-84857213D01*
X85592083Y-84585729D01*
X85587349Y-84580634D01*
X85365248Y-84341626D01*
X85365246Y-84341625D01*
X85362776Y-84338966D01*
X85360022Y-84336614D01*
X85360018Y-84336610D01*
X85266246Y-84256521D01*
X85106627Y-84120193D01*
X85103624Y-84118175D01*
X85103616Y-84118169D01*
X84876371Y-83965468D01*
X84827030Y-83932312D01*
X84823821Y-83930656D01*
X84823813Y-83930651D01*
X84530911Y-83779474D01*
X84530912Y-83779474D01*
X84527691Y-83777812D01*
X84212578Y-83658741D01*
X83885868Y-83576677D01*
X83745062Y-83558139D01*
X83555495Y-83533182D01*
X83555487Y-83533181D01*
X83551891Y-83532708D01*
X83412223Y-83530514D01*
X83218716Y-83527474D01*
X83218712Y-83527474D01*
X83215074Y-83527417D01*
X83211459Y-83527778D01*
X83211454Y-83527778D01*
X82972935Y-83551585D01*
X82879881Y-83560873D01*
X82550754Y-83632634D01*
X82547327Y-83633807D01*
X82547321Y-83633809D01*
X82235488Y-83740574D01*
X82235483Y-83740576D01*
X82232057Y-83741749D01*
X82228789Y-83743308D01*
X82228781Y-83743311D01*
X82083789Y-83812469D01*
X81928013Y-83886770D01*
X81642652Y-84065777D01*
X81639816Y-84068049D01*
X81639809Y-84068054D01*
X81571786Y-84122551D01*
X81379757Y-84276395D01*
X81142813Y-84515835D01*
X81140577Y-84518687D01*
X81140575Y-84518689D01*
X80986922Y-84714649D01*
X80934958Y-84780921D01*
X80933065Y-84784010D01*
X80933063Y-84784013D01*
X80779948Y-85033875D01*
X80758950Y-85068140D01*
X80757428Y-85071419D01*
X80757421Y-85071432D01*
X80748787Y-85090032D01*
X80701963Y-85143399D01*
X80633720Y-85162979D01*
X80565724Y-85142555D01*
X80519565Y-85088613D01*
X80508500Y-85036981D01*
X80508500Y-81913677D01*
X80528502Y-81845556D01*
X80582158Y-81799063D01*
X80652432Y-81788959D01*
X80716933Y-81818417D01*
X80718969Y-81820931D01*
X80724095Y-81825082D01*
X80771687Y-81863621D01*
X80867392Y-81941122D01*
X81037561Y-82027827D01*
X81043934Y-82029535D01*
X81043935Y-82029535D01*
X81214609Y-82075267D01*
X81222039Y-82077258D01*
X81227793Y-82077711D01*
X81227794Y-82077711D01*
X81298896Y-82083307D01*
X81298907Y-82083307D01*
X81301354Y-82083500D01*
X82228646Y-82083500D01*
X82231093Y-82083307D01*
X82231104Y-82083307D01*
X82302206Y-82077711D01*
X82302207Y-82077711D01*
X82307961Y-82077258D01*
X82315392Y-82075267D01*
X82486065Y-82029535D01*
X82486066Y-82029535D01*
X82492439Y-82027827D01*
X82662608Y-81941122D01*
X82758314Y-81863621D01*
X82805905Y-81825082D01*
X82811031Y-81820931D01*
X82931222Y-81672508D01*
X82931236Y-81672519D01*
X82983207Y-81627920D01*
X83053528Y-81618153D01*
X83117967Y-81647955D01*
X83138114Y-81671206D01*
X83138778Y-81672508D01*
X83258969Y-81820931D01*
X83264095Y-81825082D01*
X83311687Y-81863621D01*
X83407392Y-81941122D01*
X83577561Y-82027827D01*
X83583934Y-82029535D01*
X83583935Y-82029535D01*
X83754609Y-82075267D01*
X83762039Y-82077258D01*
X83767793Y-82077711D01*
X83767794Y-82077711D01*
X83838896Y-82083307D01*
X83838907Y-82083307D01*
X83841354Y-82083500D01*
X84768646Y-82083500D01*
X84771093Y-82083307D01*
X84771104Y-82083307D01*
X84842206Y-82077711D01*
X84842207Y-82077711D01*
X84847961Y-82077258D01*
X84855392Y-82075267D01*
X85026065Y-82029535D01*
X85026066Y-82029535D01*
X85032439Y-82027827D01*
X85202608Y-81941122D01*
X85298314Y-81863621D01*
X85345905Y-81825082D01*
X85351031Y-81820931D01*
X85471222Y-81672508D01*
X85471236Y-81672519D01*
X85523207Y-81627920D01*
X85593528Y-81618153D01*
X85657967Y-81647955D01*
X85678114Y-81671206D01*
X85678778Y-81672508D01*
X85798969Y-81820931D01*
X85804095Y-81825082D01*
X85851687Y-81863621D01*
X85947392Y-81941122D01*
X86117561Y-82027827D01*
X86123934Y-82029535D01*
X86123935Y-82029535D01*
X86294609Y-82075267D01*
X86302039Y-82077258D01*
X86307793Y-82077711D01*
X86307794Y-82077711D01*
X86378896Y-82083307D01*
X86378907Y-82083307D01*
X86381354Y-82083500D01*
X87308646Y-82083500D01*
X87311093Y-82083307D01*
X87311104Y-82083307D01*
X87382206Y-82077711D01*
X87382207Y-82077711D01*
X87387961Y-82077258D01*
X87395392Y-82075267D01*
X87566065Y-82029535D01*
X87566066Y-82029535D01*
X87572439Y-82027827D01*
X87742608Y-81941122D01*
X87838314Y-81863621D01*
X87885905Y-81825082D01*
X87891031Y-81820931D01*
X88011222Y-81672508D01*
X88011386Y-81672186D01*
X88063507Y-81627458D01*
X88133828Y-81617691D01*
X88198267Y-81647492D01*
X88220971Y-81673694D01*
X88223355Y-81677365D01*
X88335174Y-81815449D01*
X88344451Y-81824726D01*
X88482536Y-81936546D01*
X88493547Y-81943696D01*
X88651864Y-82024363D01*
X88664110Y-82029064D01*
X88836543Y-82075267D01*
X88847870Y-82077214D01*
X88918935Y-82082807D01*
X88923861Y-82083000D01*
X89112885Y-82083000D01*
X89128124Y-82078525D01*
X89129329Y-82077135D01*
X89131000Y-82069452D01*
X89131000Y-78485117D01*
X89126153Y-78468610D01*
X89126153Y-78397614D01*
X89157954Y-78344016D01*
X100871405Y-66630565D01*
X100933717Y-66596539D01*
X101004532Y-66601604D01*
X101061368Y-66644151D01*
X101086179Y-66710671D01*
X101086500Y-66719660D01*
X101086501Y-67438580D01*
X101092743Y-67517904D01*
X101142171Y-67702371D01*
X101228871Y-67872530D01*
X101233024Y-67877659D01*
X101233027Y-67877663D01*
X101344900Y-68015814D01*
X101349055Y-68020945D01*
X101354186Y-68025100D01*
X101492336Y-68136972D01*
X101492339Y-68136974D01*
X101497470Y-68141129D01*
X101503350Y-68144125D01*
X101503484Y-68144212D01*
X101549718Y-68198091D01*
X101559484Y-68268412D01*
X101529680Y-68332851D01*
X101503480Y-68355553D01*
X101500510Y-68357482D01*
X101494620Y-68360483D01*
X101347234Y-68479834D01*
X101343079Y-68484965D01*
X101232039Y-68622087D01*
X101232036Y-68622091D01*
X101227883Y-68627220D01*
X101141784Y-68796199D01*
X101092699Y-68979387D01*
X101092246Y-68985141D01*
X101092246Y-68985143D01*
X101086694Y-69055692D01*
X101086500Y-69058151D01*
X101086501Y-69971848D01*
X101086695Y-69974308D01*
X101091939Y-70040949D01*
X101092699Y-70050613D01*
X101094193Y-70056188D01*
X101134234Y-70205625D01*
X101132544Y-70276602D01*
X101092750Y-70335397D01*
X101062568Y-70353873D01*
X101061419Y-70354370D01*
X101053806Y-70356582D01*
X101046980Y-70360619D01*
X101036371Y-70366893D01*
X101018621Y-70375590D01*
X100999783Y-70383048D01*
X100993367Y-70387709D01*
X100993366Y-70387710D01*
X100964025Y-70409028D01*
X100954101Y-70415547D01*
X100922860Y-70434022D01*
X100922855Y-70434026D01*
X100916037Y-70438058D01*
X100901713Y-70452382D01*
X100886681Y-70465221D01*
X100870293Y-70477128D01*
X100842112Y-70511193D01*
X100834122Y-70519973D01*
X96612747Y-74741348D01*
X96604461Y-74748888D01*
X96597982Y-74753000D01*
X96592557Y-74758777D01*
X96551357Y-74802651D01*
X96548602Y-74805493D01*
X96528865Y-74825230D01*
X96526385Y-74828427D01*
X96518682Y-74837447D01*
X96488414Y-74869679D01*
X96484595Y-74876625D01*
X96484593Y-74876628D01*
X96478652Y-74887434D01*
X96467801Y-74903953D01*
X96455386Y-74919959D01*
X96452241Y-74927228D01*
X96452238Y-74927232D01*
X96437826Y-74960537D01*
X96432609Y-74971187D01*
X96411305Y-75009940D01*
X96409334Y-75017615D01*
X96409334Y-75017616D01*
X96406267Y-75029562D01*
X96399863Y-75048266D01*
X96397249Y-75054308D01*
X96391819Y-75066855D01*
X96390580Y-75074678D01*
X96390577Y-75074688D01*
X96384901Y-75110524D01*
X96382495Y-75122144D01*
X96375372Y-75149890D01*
X96371500Y-75164970D01*
X96371500Y-75185224D01*
X96369949Y-75204934D01*
X96366780Y-75224943D01*
X96367526Y-75232835D01*
X96370941Y-75268961D01*
X96371500Y-75280819D01*
X96371500Y-78400319D01*
X96351498Y-78468440D01*
X96297842Y-78514933D01*
X96289974Y-78517758D01*
X96290104Y-78518097D01*
X96283935Y-78520465D01*
X96277561Y-78522173D01*
X96107392Y-78608878D01*
X95958969Y-78729069D01*
X95838778Y-78877492D01*
X95838764Y-78877481D01*
X95786793Y-78922080D01*
X95716472Y-78931847D01*
X95652033Y-78902045D01*
X95631886Y-78878794D01*
X95631222Y-78877492D01*
X95511031Y-78729069D01*
X95362608Y-78608878D01*
X95192439Y-78522173D01*
X95186065Y-78520465D01*
X95013537Y-78474236D01*
X95013536Y-78474236D01*
X95007961Y-78472742D01*
X95002207Y-78472289D01*
X95002206Y-78472289D01*
X94931104Y-78466693D01*
X94931093Y-78466693D01*
X94928646Y-78466500D01*
X94001354Y-78466500D01*
X93998907Y-78466693D01*
X93998896Y-78466693D01*
X93927794Y-78472289D01*
X93927793Y-78472289D01*
X93922039Y-78472742D01*
X93916464Y-78474236D01*
X93916463Y-78474236D01*
X93743935Y-78520465D01*
X93737561Y-78522173D01*
X93567392Y-78608878D01*
X93418969Y-78729069D01*
X93298778Y-78877492D01*
X93298764Y-78877481D01*
X93246793Y-78922080D01*
X93176472Y-78931847D01*
X93112033Y-78902045D01*
X93091886Y-78878794D01*
X93091222Y-78877492D01*
X92971031Y-78729069D01*
X92822608Y-78608878D01*
X92652439Y-78522173D01*
X92646065Y-78520465D01*
X92473537Y-78474236D01*
X92473536Y-78474236D01*
X92467961Y-78472742D01*
X92462207Y-78472289D01*
X92462206Y-78472289D01*
X92391104Y-78466693D01*
X92391093Y-78466693D01*
X92388646Y-78466500D01*
X91461354Y-78466500D01*
X91458907Y-78466693D01*
X91458896Y-78466693D01*
X91387794Y-78472289D01*
X91387793Y-78472289D01*
X91382039Y-78472742D01*
X91376464Y-78474236D01*
X91376463Y-78474236D01*
X91203935Y-78520465D01*
X91197561Y-78522173D01*
X91027392Y-78608878D01*
X90878969Y-78729069D01*
X90758778Y-78877492D01*
X90758614Y-78877814D01*
X90706493Y-78922542D01*
X90636172Y-78932309D01*
X90571733Y-78902508D01*
X90549029Y-78876306D01*
X90546645Y-78872635D01*
X90434826Y-78734551D01*
X90425549Y-78725274D01*
X90287464Y-78613454D01*
X90276453Y-78606304D01*
X90118136Y-78525637D01*
X90105890Y-78520936D01*
X89933457Y-78474733D01*
X89922130Y-78472786D01*
X89851065Y-78467193D01*
X89846138Y-78467000D01*
X89657115Y-78467000D01*
X89641876Y-78471475D01*
X89640671Y-78472865D01*
X89639000Y-78480548D01*
X89639000Y-82064885D01*
X89643475Y-82080124D01*
X89644865Y-82081329D01*
X89652548Y-82083000D01*
X89846139Y-82083000D01*
X89851065Y-82082807D01*
X89922130Y-82077214D01*
X89933457Y-82075267D01*
X90105890Y-82029064D01*
X90118136Y-82024363D01*
X90276453Y-81943696D01*
X90287464Y-81936546D01*
X90425549Y-81824726D01*
X90434826Y-81815449D01*
X90546645Y-81677365D01*
X90549029Y-81673694D01*
X90602906Y-81627459D01*
X90673228Y-81617691D01*
X90737667Y-81647492D01*
X90757971Y-81670924D01*
X90758778Y-81672508D01*
X90878969Y-81820931D01*
X90884095Y-81825082D01*
X90931687Y-81863621D01*
X91027392Y-81941122D01*
X91197561Y-82027827D01*
X91203934Y-82029535D01*
X91203935Y-82029535D01*
X91374609Y-82075267D01*
X91382039Y-82077258D01*
X91387793Y-82077711D01*
X91387794Y-82077711D01*
X91458896Y-82083307D01*
X91458907Y-82083307D01*
X91461354Y-82083500D01*
X92388646Y-82083500D01*
X92391093Y-82083307D01*
X92391104Y-82083307D01*
X92462206Y-82077711D01*
X92462207Y-82077711D01*
X92467961Y-82077258D01*
X92475392Y-82075267D01*
X92646065Y-82029535D01*
X92646066Y-82029535D01*
X92652439Y-82027827D01*
X92822608Y-81941122D01*
X92918314Y-81863621D01*
X92965905Y-81825082D01*
X92971031Y-81820931D01*
X93091222Y-81672508D01*
X93091236Y-81672519D01*
X93143207Y-81627920D01*
X93213528Y-81618153D01*
X93277967Y-81647955D01*
X93298114Y-81671206D01*
X93298778Y-81672508D01*
X93418969Y-81820931D01*
X93424095Y-81825082D01*
X93471687Y-81863621D01*
X93567392Y-81941122D01*
X93737561Y-82027827D01*
X93743934Y-82029535D01*
X93743935Y-82029535D01*
X93914609Y-82075267D01*
X93922039Y-82077258D01*
X93927793Y-82077711D01*
X93927794Y-82077711D01*
X93998896Y-82083307D01*
X93998907Y-82083307D01*
X94001354Y-82083500D01*
X94928646Y-82083500D01*
X94931093Y-82083307D01*
X94931104Y-82083307D01*
X95002206Y-82077711D01*
X95002207Y-82077711D01*
X95007961Y-82077258D01*
X95015392Y-82075267D01*
X95074445Y-82059444D01*
X95145422Y-82061134D01*
X95196151Y-82092056D01*
X96746348Y-83642253D01*
X96753888Y-83650539D01*
X96758000Y-83657018D01*
X96763777Y-83662443D01*
X96807651Y-83703643D01*
X96810493Y-83706398D01*
X96830230Y-83726135D01*
X96833427Y-83728615D01*
X96842447Y-83736318D01*
X96874679Y-83766586D01*
X96881625Y-83770405D01*
X96881628Y-83770407D01*
X96892434Y-83776348D01*
X96908953Y-83787199D01*
X96924959Y-83799614D01*
X96932228Y-83802759D01*
X96932232Y-83802762D01*
X96965537Y-83817174D01*
X96976187Y-83822391D01*
X97014940Y-83843695D01*
X97022615Y-83845666D01*
X97022616Y-83845666D01*
X97034562Y-83848733D01*
X97053267Y-83855137D01*
X97071855Y-83863181D01*
X97079678Y-83864420D01*
X97079688Y-83864423D01*
X97115524Y-83870099D01*
X97127144Y-83872505D01*
X97158959Y-83880673D01*
X97169970Y-83883500D01*
X97190224Y-83883500D01*
X97209934Y-83885051D01*
X97229943Y-83888220D01*
X97237835Y-83887474D01*
X97256580Y-83885702D01*
X97273962Y-83884059D01*
X97285819Y-83883500D01*
X97624691Y-83883500D01*
X97692812Y-83903502D01*
X97739305Y-83957158D01*
X97749409Y-84027432D01*
X97719915Y-84092012D01*
X97713786Y-84098595D01*
X97625506Y-84186875D01*
X97622349Y-84191383D01*
X97622347Y-84191386D01*
X97519011Y-84338966D01*
X97494613Y-84373810D01*
X97492290Y-84378792D01*
X97492287Y-84378797D01*
X97400492Y-84575652D01*
X97398169Y-84580634D01*
X97396747Y-84585942D01*
X97396746Y-84585944D01*
X97378504Y-84654026D01*
X97341553Y-84714649D01*
X97277692Y-84745670D01*
X97207198Y-84737242D01*
X97152450Y-84692039D01*
X97135091Y-84654027D01*
X97116850Y-84585952D01*
X97116846Y-84585941D01*
X97115424Y-84580634D01*
X97113101Y-84575652D01*
X97021306Y-84378797D01*
X97021303Y-84378792D01*
X97018980Y-84373810D01*
X96994582Y-84338966D01*
X96891246Y-84191386D01*
X96891244Y-84191383D01*
X96888087Y-84186875D01*
X96726722Y-84025510D01*
X96722214Y-84022353D01*
X96722211Y-84022351D01*
X96544296Y-83897774D01*
X96544294Y-83897773D01*
X96539787Y-83894617D01*
X96534805Y-83892294D01*
X96534800Y-83892291D01*
X96337945Y-83800496D01*
X96337943Y-83800495D01*
X96332963Y-83798173D01*
X96327655Y-83796751D01*
X96327653Y-83796750D01*
X96185200Y-83758580D01*
X96112534Y-83739109D01*
X95885197Y-83719220D01*
X95657860Y-83739109D01*
X95585194Y-83758580D01*
X95442741Y-83796750D01*
X95442739Y-83796751D01*
X95437431Y-83798173D01*
X95432451Y-83800495D01*
X95432449Y-83800496D01*
X95235594Y-83892291D01*
X95235589Y-83892294D01*
X95230607Y-83894617D01*
X95226100Y-83897773D01*
X95226098Y-83897774D01*
X95048183Y-84022351D01*
X95048180Y-84022353D01*
X95043672Y-84025510D01*
X94882307Y-84186875D01*
X94879150Y-84191383D01*
X94879148Y-84191386D01*
X94775812Y-84338966D01*
X94751414Y-84373810D01*
X94749091Y-84378792D01*
X94749088Y-84378797D01*
X94657293Y-84575652D01*
X94654970Y-84580634D01*
X94653548Y-84585942D01*
X94653547Y-84585944D01*
X94635305Y-84654026D01*
X94598354Y-84714649D01*
X94534493Y-84745670D01*
X94463999Y-84737242D01*
X94409251Y-84692039D01*
X94391892Y-84654027D01*
X94373651Y-84585952D01*
X94373647Y-84585941D01*
X94372225Y-84580634D01*
X94369902Y-84575652D01*
X94278107Y-84378797D01*
X94278104Y-84378792D01*
X94275781Y-84373810D01*
X94251383Y-84338966D01*
X94148047Y-84191386D01*
X94148045Y-84191383D01*
X94144888Y-84186875D01*
X93983523Y-84025510D01*
X93979015Y-84022353D01*
X93979012Y-84022351D01*
X93801097Y-83897774D01*
X93801095Y-83897773D01*
X93796588Y-83894617D01*
X93791606Y-83892294D01*
X93791601Y-83892291D01*
X93594746Y-83800496D01*
X93594744Y-83800495D01*
X93589764Y-83798173D01*
X93584456Y-83796751D01*
X93584454Y-83796750D01*
X93442001Y-83758580D01*
X93369335Y-83739109D01*
X93141998Y-83719220D01*
X92914661Y-83739109D01*
X92841995Y-83758580D01*
X92699542Y-83796750D01*
X92699540Y-83796751D01*
X92694232Y-83798173D01*
X92689252Y-83800495D01*
X92689250Y-83800496D01*
X92492395Y-83892291D01*
X92492390Y-83892294D01*
X92487408Y-83894617D01*
X92482901Y-83897773D01*
X92482899Y-83897774D01*
X92304984Y-84022351D01*
X92304981Y-84022353D01*
X92300473Y-84025510D01*
X92139108Y-84186875D01*
X92135951Y-84191383D01*
X92135949Y-84191386D01*
X92032613Y-84338966D01*
X92008215Y-84373810D01*
X92005892Y-84378792D01*
X92005889Y-84378797D01*
X91914094Y-84575652D01*
X91911771Y-84580634D01*
X91910349Y-84585942D01*
X91910348Y-84585944D01*
X91892106Y-84654026D01*
X91855155Y-84714649D01*
X91791294Y-84745670D01*
X91720800Y-84737242D01*
X91666052Y-84692039D01*
X91648693Y-84654027D01*
X91630452Y-84585952D01*
X91630448Y-84585941D01*
X91629026Y-84580634D01*
X91626703Y-84575652D01*
X91534908Y-84378797D01*
X91534905Y-84378792D01*
X91532582Y-84373810D01*
X91508184Y-84338966D01*
X91404848Y-84191386D01*
X91404846Y-84191383D01*
X91401689Y-84186875D01*
X91240324Y-84025510D01*
X91235816Y-84022353D01*
X91235813Y-84022351D01*
X91057898Y-83897774D01*
X91057896Y-83897773D01*
X91053389Y-83894617D01*
X91048407Y-83892294D01*
X91048402Y-83892291D01*
X90851547Y-83800496D01*
X90851545Y-83800495D01*
X90846565Y-83798173D01*
X90841257Y-83796751D01*
X90841255Y-83796750D01*
X90698802Y-83758580D01*
X90626136Y-83739109D01*
X90398799Y-83719220D01*
X90171462Y-83739109D01*
X90098796Y-83758580D01*
X89956343Y-83796750D01*
X89956341Y-83796751D01*
X89951033Y-83798173D01*
X89946053Y-83800495D01*
X89946051Y-83800496D01*
X89749196Y-83892291D01*
X89749191Y-83892294D01*
X89744209Y-83894617D01*
X89739702Y-83897773D01*
X89739700Y-83897774D01*
X89561785Y-84022351D01*
X89561782Y-84022353D01*
X89557274Y-84025510D01*
X89395909Y-84186875D01*
X89392752Y-84191383D01*
X89392750Y-84191386D01*
X89289414Y-84338966D01*
X89265016Y-84373810D01*
X89262693Y-84378792D01*
X89262690Y-84378797D01*
X89170895Y-84575652D01*
X89168572Y-84580634D01*
X89109508Y-84801063D01*
X89089619Y-85028400D01*
X89109508Y-85255737D01*
X89168572Y-85476166D01*
X89170894Y-85481146D01*
X89170895Y-85481148D01*
X89262690Y-85678003D01*
X89262693Y-85678008D01*
X89265016Y-85682990D01*
X89395909Y-85869925D01*
X89557274Y-86031290D01*
X89561782Y-86034447D01*
X89561785Y-86034449D01*
X89739082Y-86158593D01*
X89744209Y-86162183D01*
X89749191Y-86164506D01*
X89749196Y-86164509D01*
X89945039Y-86255832D01*
X89951033Y-86258627D01*
X89956341Y-86260049D01*
X89956343Y-86260050D01*
X90024812Y-86278396D01*
X90171462Y-86317691D01*
X90398799Y-86337580D01*
X90626136Y-86317691D01*
X90772786Y-86278396D01*
X90841255Y-86260050D01*
X90841257Y-86260049D01*
X90846565Y-86258627D01*
X90852559Y-86255832D01*
X91048402Y-86164509D01*
X91048407Y-86164506D01*
X91053389Y-86162183D01*
X91058516Y-86158593D01*
X91235813Y-86034449D01*
X91235816Y-86034447D01*
X91240324Y-86031290D01*
X91401689Y-85869925D01*
X91532582Y-85682990D01*
X91534905Y-85678008D01*
X91534908Y-85678003D01*
X91626703Y-85481148D01*
X91626704Y-85481146D01*
X91629026Y-85476166D01*
X91630449Y-85470856D01*
X91630452Y-85470848D01*
X91648693Y-85402773D01*
X91685645Y-85342150D01*
X91749505Y-85311129D01*
X91820000Y-85319559D01*
X91874746Y-85364762D01*
X91892105Y-85402772D01*
X91911771Y-85476166D01*
X91914093Y-85481146D01*
X91914094Y-85481148D01*
X92005889Y-85678003D01*
X92005892Y-85678008D01*
X92008215Y-85682990D01*
X92139108Y-85869925D01*
X92300473Y-86031290D01*
X92304981Y-86034447D01*
X92304984Y-86034449D01*
X92482281Y-86158593D01*
X92487408Y-86162183D01*
X92492390Y-86164506D01*
X92492395Y-86164509D01*
X92688238Y-86255832D01*
X92694232Y-86258627D01*
X92699540Y-86260049D01*
X92699542Y-86260050D01*
X92768011Y-86278396D01*
X92914661Y-86317691D01*
X93141998Y-86337580D01*
X93369335Y-86317691D01*
X93515985Y-86278396D01*
X93584454Y-86260050D01*
X93584456Y-86260049D01*
X93589764Y-86258627D01*
X93595758Y-86255832D01*
X93791601Y-86164509D01*
X93791606Y-86164506D01*
X93796588Y-86162183D01*
X93801715Y-86158593D01*
X93979012Y-86034449D01*
X93979015Y-86034447D01*
X93983523Y-86031290D01*
X94144888Y-85869925D01*
X94275781Y-85682990D01*
X94278104Y-85678008D01*
X94278107Y-85678003D01*
X94369902Y-85481148D01*
X94369903Y-85481146D01*
X94372225Y-85476166D01*
X94373648Y-85470856D01*
X94373651Y-85470848D01*
X94391892Y-85402773D01*
X94428844Y-85342150D01*
X94492704Y-85311129D01*
X94563199Y-85319559D01*
X94617945Y-85364762D01*
X94635304Y-85402772D01*
X94654970Y-85476166D01*
X94657292Y-85481146D01*
X94657293Y-85481148D01*
X94749088Y-85678003D01*
X94749091Y-85678008D01*
X94751414Y-85682990D01*
X94882307Y-85869925D01*
X95043672Y-86031290D01*
X95048180Y-86034447D01*
X95048183Y-86034449D01*
X95225480Y-86158593D01*
X95230607Y-86162183D01*
X95235589Y-86164506D01*
X95235594Y-86164509D01*
X95431437Y-86255832D01*
X95437431Y-86258627D01*
X95442739Y-86260049D01*
X95442741Y-86260050D01*
X95511210Y-86278396D01*
X95657860Y-86317691D01*
X95885197Y-86337580D01*
X96112534Y-86317691D01*
X96259184Y-86278396D01*
X96327653Y-86260050D01*
X96327655Y-86260049D01*
X96332963Y-86258627D01*
X96338957Y-86255832D01*
X96534800Y-86164509D01*
X96534805Y-86164506D01*
X96539787Y-86162183D01*
X96544914Y-86158593D01*
X96722211Y-86034449D01*
X96722214Y-86034447D01*
X96726722Y-86031290D01*
X96888087Y-85869925D01*
X97018980Y-85682990D01*
X97021303Y-85678008D01*
X97021306Y-85678003D01*
X97113101Y-85481148D01*
X97113102Y-85481146D01*
X97115424Y-85476166D01*
X97116847Y-85470856D01*
X97116850Y-85470848D01*
X97135091Y-85402773D01*
X97172043Y-85342150D01*
X97235903Y-85311129D01*
X97306398Y-85319559D01*
X97361144Y-85364762D01*
X97378503Y-85402772D01*
X97398169Y-85476166D01*
X97400491Y-85481146D01*
X97400492Y-85481148D01*
X97492287Y-85678003D01*
X97492290Y-85678008D01*
X97494613Y-85682990D01*
X97625506Y-85869925D01*
X97786871Y-86031290D01*
X97791379Y-86034447D01*
X97791382Y-86034449D01*
X97968679Y-86158593D01*
X97973806Y-86162183D01*
X97978788Y-86164506D01*
X97978793Y-86164509D01*
X98174636Y-86255832D01*
X98180630Y-86258627D01*
X98185938Y-86260049D01*
X98185940Y-86260050D01*
X98254409Y-86278396D01*
X98401059Y-86317691D01*
X98628396Y-86337580D01*
X98855733Y-86317691D01*
X99002383Y-86278396D01*
X99070852Y-86260050D01*
X99070854Y-86260049D01*
X99076162Y-86258627D01*
X99082156Y-86255832D01*
X99277999Y-86164509D01*
X99278004Y-86164506D01*
X99282986Y-86162183D01*
X99288113Y-86158593D01*
X99465410Y-86034449D01*
X99465413Y-86034447D01*
X99469921Y-86031290D01*
X99631286Y-85869925D01*
X99762179Y-85682990D01*
X99764502Y-85678008D01*
X99764505Y-85678003D01*
X99856300Y-85481148D01*
X99856301Y-85481146D01*
X99858623Y-85476166D01*
X99860046Y-85470856D01*
X99860049Y-85470848D01*
X99878290Y-85402773D01*
X99915242Y-85342150D01*
X99979102Y-85311129D01*
X100049597Y-85319559D01*
X100104343Y-85364762D01*
X100121702Y-85402772D01*
X100141368Y-85476166D01*
X100143690Y-85481146D01*
X100143691Y-85481148D01*
X100235486Y-85678003D01*
X100235489Y-85678008D01*
X100237812Y-85682990D01*
X100368705Y-85869925D01*
X100530070Y-86031290D01*
X100534578Y-86034447D01*
X100534581Y-86034449D01*
X100711878Y-86158593D01*
X100717005Y-86162183D01*
X100721987Y-86164506D01*
X100721992Y-86164509D01*
X100917835Y-86255832D01*
X100923829Y-86258627D01*
X100929137Y-86260049D01*
X100929139Y-86260050D01*
X100997608Y-86278396D01*
X101144258Y-86317691D01*
X101371595Y-86337580D01*
X101598932Y-86317691D01*
X101745582Y-86278396D01*
X101814051Y-86260050D01*
X101814053Y-86260049D01*
X101819361Y-86258627D01*
X101825355Y-86255832D01*
X102021198Y-86164509D01*
X102021203Y-86164506D01*
X102026185Y-86162183D01*
X102031312Y-86158593D01*
X102208609Y-86034449D01*
X102208612Y-86034447D01*
X102213120Y-86031290D01*
X102374485Y-85869925D01*
X102505378Y-85682990D01*
X102507701Y-85678008D01*
X102507704Y-85678003D01*
X102599499Y-85481148D01*
X102599500Y-85481146D01*
X102601822Y-85476166D01*
X102603245Y-85470856D01*
X102603248Y-85470848D01*
X102621489Y-85402773D01*
X102658441Y-85342150D01*
X102722301Y-85311129D01*
X102792796Y-85319559D01*
X102847542Y-85364762D01*
X102864901Y-85402772D01*
X102884567Y-85476166D01*
X102886889Y-85481146D01*
X102886890Y-85481148D01*
X102978685Y-85678003D01*
X102978688Y-85678008D01*
X102981011Y-85682990D01*
X103111904Y-85869925D01*
X103273269Y-86031290D01*
X103277777Y-86034447D01*
X103277780Y-86034449D01*
X103455077Y-86158593D01*
X103460204Y-86162183D01*
X103465186Y-86164506D01*
X103465191Y-86164509D01*
X103661034Y-86255832D01*
X103667028Y-86258627D01*
X103672336Y-86260049D01*
X103672338Y-86260050D01*
X103740807Y-86278396D01*
X103887457Y-86317691D01*
X104114794Y-86337580D01*
X104342131Y-86317691D01*
X104488781Y-86278396D01*
X104557250Y-86260050D01*
X104557252Y-86260049D01*
X104562560Y-86258627D01*
X104568554Y-86255832D01*
X104764397Y-86164509D01*
X104764402Y-86164506D01*
X104769384Y-86162183D01*
X104774511Y-86158593D01*
X104951808Y-86034449D01*
X104951811Y-86034447D01*
X104956319Y-86031290D01*
X105117684Y-85869925D01*
X105248577Y-85682990D01*
X105250900Y-85678008D01*
X105250903Y-85678003D01*
X105342698Y-85481148D01*
X105342699Y-85481146D01*
X105345021Y-85476166D01*
X105346444Y-85470856D01*
X105346447Y-85470848D01*
X105364688Y-85402773D01*
X105401640Y-85342150D01*
X105465500Y-85311129D01*
X105535995Y-85319559D01*
X105590741Y-85364762D01*
X105608100Y-85402772D01*
X105627766Y-85476166D01*
X105630088Y-85481146D01*
X105630089Y-85481148D01*
X105721884Y-85678003D01*
X105721887Y-85678008D01*
X105724210Y-85682990D01*
X105855103Y-85869925D01*
X106016468Y-86031290D01*
X106020976Y-86034447D01*
X106020979Y-86034449D01*
X106198276Y-86158593D01*
X106203403Y-86162183D01*
X106208385Y-86164506D01*
X106208390Y-86164509D01*
X106404233Y-86255832D01*
X106410227Y-86258627D01*
X106415535Y-86260049D01*
X106415537Y-86260050D01*
X106484006Y-86278396D01*
X106630656Y-86317691D01*
X106857993Y-86337580D01*
X107085330Y-86317691D01*
X107231980Y-86278396D01*
X107300449Y-86260050D01*
X107300451Y-86260049D01*
X107305759Y-86258627D01*
X107311753Y-86255832D01*
X107507596Y-86164509D01*
X107507601Y-86164506D01*
X107512583Y-86162183D01*
X107517710Y-86158593D01*
X107585148Y-86111373D01*
X108882773Y-86111373D01*
X108892069Y-86123388D01*
X108942348Y-86158593D01*
X108951838Y-86164073D01*
X109148616Y-86255832D01*
X109158908Y-86259578D01*
X109368627Y-86315772D01*
X109379422Y-86317675D01*
X109595717Y-86336599D01*
X109606667Y-86336599D01*
X109822962Y-86317675D01*
X109833757Y-86315772D01*
X110043476Y-86259578D01*
X110053768Y-86255832D01*
X110250546Y-86164073D01*
X110260036Y-86158593D01*
X110311154Y-86122801D01*
X110319528Y-86112325D01*
X110312460Y-86098878D01*
X109614004Y-85400422D01*
X109600060Y-85392808D01*
X109598227Y-85392939D01*
X109591612Y-85397190D01*
X108889203Y-86099599D01*
X108882773Y-86111373D01*
X107585148Y-86111373D01*
X107695007Y-86034449D01*
X107695010Y-86034447D01*
X107699518Y-86031290D01*
X107860883Y-85869925D01*
X107991776Y-85682990D01*
X107994099Y-85678008D01*
X107994102Y-85678003D01*
X108085897Y-85481148D01*
X108085898Y-85481146D01*
X108088220Y-85476166D01*
X108089643Y-85470856D01*
X108089646Y-85470848D01*
X108108146Y-85401806D01*
X108145097Y-85341184D01*
X108208958Y-85310162D01*
X108279453Y-85318592D01*
X108334199Y-85363795D01*
X108351559Y-85401807D01*
X108370014Y-85470684D01*
X108373760Y-85480976D01*
X108465519Y-85677754D01*
X108470999Y-85687244D01*
X108506791Y-85738362D01*
X108517267Y-85746736D01*
X108530714Y-85739668D01*
X109229170Y-85041212D01*
X109235548Y-85029532D01*
X109965600Y-85029532D01*
X109965731Y-85031365D01*
X109969982Y-85037980D01*
X110672391Y-85740389D01*
X110684165Y-85746819D01*
X110696180Y-85737523D01*
X110731385Y-85687244D01*
X110736865Y-85677754D01*
X110828624Y-85480976D01*
X110832370Y-85470684D01*
X110888564Y-85260965D01*
X110890467Y-85250170D01*
X110909391Y-85033875D01*
X110909391Y-85022925D01*
X110890467Y-84806630D01*
X110888564Y-84795835D01*
X110832370Y-84586116D01*
X110828624Y-84575824D01*
X110736865Y-84379046D01*
X110731385Y-84369556D01*
X110695593Y-84318438D01*
X110685117Y-84310064D01*
X110671670Y-84317132D01*
X109973214Y-85015588D01*
X109965600Y-85029532D01*
X109235548Y-85029532D01*
X109236784Y-85027268D01*
X109236653Y-85025435D01*
X109232402Y-85018820D01*
X108529993Y-84316411D01*
X108518219Y-84309981D01*
X108506204Y-84319277D01*
X108470999Y-84369556D01*
X108465519Y-84379046D01*
X108373760Y-84575824D01*
X108370014Y-84586116D01*
X108351559Y-84654993D01*
X108314608Y-84715616D01*
X108250747Y-84746637D01*
X108180253Y-84738209D01*
X108125505Y-84693006D01*
X108108146Y-84654994D01*
X108089646Y-84585952D01*
X108089642Y-84585941D01*
X108088220Y-84580634D01*
X108085897Y-84575652D01*
X107994102Y-84378797D01*
X107994099Y-84378792D01*
X107991776Y-84373810D01*
X107967378Y-84338966D01*
X107864042Y-84191386D01*
X107864040Y-84191383D01*
X107860883Y-84186875D01*
X107772603Y-84098595D01*
X107738577Y-84036283D01*
X107743642Y-83965468D01*
X107786189Y-83908632D01*
X107852709Y-83883821D01*
X107861698Y-83883500D01*
X108774689Y-83883500D01*
X108842810Y-83903502D01*
X108886220Y-83950875D01*
X108889924Y-83957922D01*
X109588380Y-84656378D01*
X109602324Y-84663992D01*
X109604157Y-84663861D01*
X109610772Y-84659610D01*
X110313183Y-83957199D01*
X110317599Y-83949112D01*
X110367802Y-83898911D01*
X110428185Y-83883500D01*
X111171233Y-83883500D01*
X111182416Y-83884027D01*
X111189909Y-83885702D01*
X111197835Y-83885453D01*
X111197836Y-83885453D01*
X111257986Y-83883562D01*
X111261945Y-83883500D01*
X111289856Y-83883500D01*
X111293791Y-83883003D01*
X111293856Y-83882995D01*
X111305693Y-83882062D01*
X111337951Y-83881048D01*
X111341970Y-83880922D01*
X111349889Y-83880673D01*
X111369343Y-83875021D01*
X111388700Y-83871013D01*
X111400930Y-83869468D01*
X111400931Y-83869468D01*
X111408797Y-83868474D01*
X111416168Y-83865555D01*
X111416170Y-83865555D01*
X111449912Y-83852196D01*
X111461142Y-83848351D01*
X111495983Y-83838229D01*
X111495984Y-83838229D01*
X111503593Y-83836018D01*
X111510412Y-83831985D01*
X111510417Y-83831983D01*
X111521028Y-83825707D01*
X111538776Y-83817012D01*
X111557617Y-83809552D01*
X111593387Y-83783564D01*
X111603307Y-83777048D01*
X111634535Y-83758580D01*
X111634538Y-83758578D01*
X111641362Y-83754542D01*
X111655683Y-83740221D01*
X111670717Y-83727380D01*
X111680694Y-83720131D01*
X111687107Y-83715472D01*
X111715298Y-83681395D01*
X111723288Y-83672616D01*
X117382253Y-78013652D01*
X117390539Y-78006112D01*
X117397018Y-78002000D01*
X117411834Y-77986223D01*
X117443643Y-77952349D01*
X117446398Y-77949507D01*
X117466135Y-77929770D01*
X117468615Y-77926573D01*
X117476320Y-77917551D01*
X117477231Y-77916581D01*
X117506586Y-77885321D01*
X117510405Y-77878375D01*
X117510407Y-77878372D01*
X117516348Y-77867566D01*
X117527199Y-77851047D01*
X117534758Y-77841301D01*
X117539614Y-77835041D01*
X117542759Y-77827772D01*
X117542762Y-77827768D01*
X117557174Y-77794463D01*
X117562391Y-77783813D01*
X117583695Y-77745060D01*
X117588733Y-77725437D01*
X117595137Y-77706734D01*
X117600033Y-77695420D01*
X117600033Y-77695419D01*
X117603181Y-77688145D01*
X117604420Y-77680322D01*
X117604423Y-77680312D01*
X117610099Y-77644476D01*
X117612505Y-77632856D01*
X117621528Y-77597711D01*
X117621528Y-77597710D01*
X117623500Y-77590030D01*
X117623500Y-77569776D01*
X117625051Y-77550065D01*
X117626980Y-77537886D01*
X117628220Y-77530057D01*
X117624059Y-77486038D01*
X117623500Y-77474181D01*
X117623500Y-65380382D01*
X117643502Y-65312261D01*
X117697158Y-65265768D01*
X117705269Y-65262401D01*
X117728293Y-65253769D01*
X117728296Y-65253768D01*
X117736705Y-65250615D01*
X117853261Y-65163261D01*
X117940615Y-65046705D01*
X117991745Y-64910316D01*
X117998500Y-64848134D01*
X117998500Y-62751866D01*
X117991745Y-62689684D01*
X117940615Y-62553295D01*
X117853261Y-62436739D01*
X117736705Y-62349385D01*
X117600316Y-62298255D01*
X117538134Y-62291500D01*
X116441866Y-62291500D01*
X116438469Y-62291869D01*
X116396069Y-62296475D01*
X116379684Y-62298255D01*
X116379679Y-62298207D01*
X116330321Y-62298207D01*
X116330316Y-62298255D01*
X116329874Y-62298207D01*
X116313931Y-62296475D01*
X116271531Y-62291869D01*
X116268134Y-62291500D01*
X115171866Y-62291500D01*
X115168469Y-62291869D01*
X115126069Y-62296475D01*
X115109684Y-62298255D01*
X115109679Y-62298207D01*
X115060321Y-62298207D01*
X115060316Y-62298255D01*
X115059874Y-62298207D01*
X115043931Y-62296475D01*
X115001531Y-62291869D01*
X114998134Y-62291500D01*
X113901866Y-62291500D01*
X113898469Y-62291869D01*
X113856069Y-62296475D01*
X113839684Y-62298255D01*
X113839679Y-62298207D01*
X113790321Y-62298207D01*
X113790316Y-62298255D01*
X113789874Y-62298207D01*
X113773931Y-62296475D01*
X113731531Y-62291869D01*
X113728134Y-62291500D01*
X112631866Y-62291500D01*
X112628469Y-62291869D01*
X112586069Y-62296475D01*
X112569684Y-62298255D01*
X112569679Y-62298207D01*
X112520321Y-62298207D01*
X112520316Y-62298255D01*
X112519874Y-62298207D01*
X112503931Y-62296475D01*
X112461531Y-62291869D01*
X112458134Y-62291500D01*
X111361866Y-62291500D01*
X111358469Y-62291869D01*
X111316069Y-62296475D01*
X111299684Y-62298255D01*
X111299679Y-62298207D01*
X111250321Y-62298207D01*
X111250316Y-62298255D01*
X111249874Y-62298207D01*
X111233931Y-62296475D01*
X111191531Y-62291869D01*
X111188134Y-62291500D01*
X110091866Y-62291500D01*
X110088469Y-62291869D01*
X110037534Y-62297402D01*
X110037532Y-62297402D01*
X110029684Y-62298255D01*
X110029118Y-62298467D01*
X109980237Y-62298468D01*
X109980207Y-62298748D01*
X109977629Y-62298468D01*
X109974763Y-62298468D01*
X109972352Y-62297895D01*
X109921486Y-62292369D01*
X109914672Y-62292000D01*
X109642115Y-62292000D01*
X109626876Y-62296475D01*
X109625671Y-62297865D01*
X109624000Y-62305548D01*
X109624000Y-63928000D01*
X109603998Y-63996121D01*
X109550342Y-64042614D01*
X109498000Y-64054000D01*
X109242000Y-64054000D01*
X109173879Y-64033998D01*
X109127386Y-63980342D01*
X109116000Y-63928000D01*
X109116000Y-62310116D01*
X109111525Y-62294877D01*
X109110135Y-62293672D01*
X109102452Y-62292001D01*
X108825331Y-62292001D01*
X108818510Y-62292371D01*
X108767651Y-62297894D01*
X108765244Y-62298467D01*
X108762380Y-62298467D01*
X108759793Y-62298748D01*
X108759762Y-62298467D01*
X108710882Y-62298467D01*
X108710316Y-62298255D01*
X108702459Y-62297401D01*
X108702457Y-62297401D01*
X108651531Y-62291869D01*
X108648134Y-62291500D01*
X107551866Y-62291500D01*
X107489684Y-62298255D01*
X107353295Y-62349385D01*
X107236739Y-62436739D01*
X107149385Y-62553295D01*
X107098255Y-62689684D01*
X107091500Y-62751866D01*
X107091500Y-63754340D01*
X107071498Y-63822461D01*
X107054595Y-63843435D01*
X106043435Y-64854595D01*
X105981123Y-64888621D01*
X105954340Y-64891500D01*
X103519600Y-64891500D01*
X103451479Y-64871498D01*
X103404986Y-64817842D01*
X103393600Y-64765500D01*
X103393600Y-62871454D01*
X103387358Y-62792139D01*
X103377483Y-62755283D01*
X103339635Y-62614035D01*
X103339635Y-62614034D01*
X103337927Y-62607661D01*
X103251222Y-62437492D01*
X103145964Y-62307509D01*
X103135182Y-62294195D01*
X103131031Y-62289069D01*
X103061076Y-62232420D01*
X103020724Y-62174006D01*
X103018360Y-62103048D01*
X103054733Y-62042077D01*
X103118295Y-62010449D01*
X103140371Y-62008500D01*
X119265500Y-62008500D01*
X119333621Y-62028502D01*
G37*
%TD.AperFunction*%
%TD*%
M02*
